<svg width="203" height="377" viewBox="0 0 203 377" fill="none" xmlns="http://www.w3.org/2000/svg">
<g opacity="0.03">
<path d="M0.569336 274.875V56.2104L100.655 0.314453L203.896 60.2708V141.877H165.116V81.9208L102.225 43.5998L33.4816 81.9208V294.702L0.569336 274.875Z" fill="white"/>
<path d="M79.0195 105.809V320.857L177.297 380.813L216.522 360.082L115.073 300.57V128.807L79.0195 105.809Z" fill="white"/>
<path d="M363.715 59.3684V278.032L263.629 333.928L160.388 273.972V192.366H199.153V252.337L262.044 290.658L330.802 252.337V39.541L363.715 59.3684Z" fill="white"/>
<path d="M285.265 228.434V13.386L186.988 -46.5703L147.763 -25.839L249.196 33.6727V205.451L285.265 228.434Z" fill="white"/>
</g>
</svg>
