<svg width="415" height="414" viewBox="0 0 415 414" fill="none" xmlns="http://www.w3.org/2000/svg">
<path d="M10.0195 207.529V248.595C10.0195 248.974 10.2335 249.32 10.5723 249.49L206.138 347.28C206.803 347.612 207.586 347.129 207.586 346.385V312.487C207.586 312.119 207.383 311.78 207.059 311.606L11.4924 206.648C10.8262 206.29 10.0195 206.773 10.0195 207.529Z" fill="#1B92BA" stroke="#193049"/>
<path d="M403.022 205.369L207.135 311.988C206.814 312.163 206.613 312.5 206.613 312.866V346.458C206.613 347.202 207.397 347.686 208.062 347.351L403.949 248.93C404.287 248.76 404.5 248.414 404.5 248.036V206.247C404.5 205.489 403.689 205.006 403.022 205.369Z" fill="#135A70" stroke="#193049"/>
<path d="M14.2061 214.253C8.83175 211.522 8.73541 203.926 13.9329 201.026L14.1843 200.892L202.779 104.296C204.778 103.273 207.122 103.202 209.17 104.085L209.575 104.275L399.753 200.161C405.157 202.885 405.252 210.519 400.024 213.411L399.771 213.545L209.566 310.076C207.565 311.092 205.222 311.154 203.179 310.265L202.774 310.074L14.2061 214.253Z" fill="white" stroke="#193049"/>
<path d="M56.2508 202.095C56.6816 202.379 56.9442 202.68 57.0386 202.997C57.133 203.314 57.0699 203.629 56.8493 203.94C56.6286 204.245 56.2611 204.526 55.7467 204.785C55.268 205.027 54.7425 205.209 54.1703 205.333C53.5909 205.453 52.9897 205.513 52.3668 205.512C51.7511 205.507 51.1351 205.438 50.5188 205.305C49.9025 205.172 49.3218 204.971 48.7765 204.702C48.2241 204.43 47.8148 204.142 47.5486 203.84C47.2752 203.534 47.1308 203.228 47.1152 202.921C47.1067 202.61 47.2236 202.312 47.4658 202.025C47.7008 201.735 48.0577 201.47 48.5364 201.228C49.0579 200.966 49.6263 200.779 50.2416 200.67C50.8568 200.553 51.4867 200.518 52.1312 200.565C52.7686 200.609 53.3777 200.739 53.9586 200.954L53.1655 201.353C52.7068 201.227 52.2483 201.157 51.79 201.145C51.3389 201.129 50.9023 201.163 50.4803 201.247C50.0582 201.331 49.6793 201.457 49.3435 201.627C48.9077 201.846 48.6045 202.106 48.4339 202.407C48.2705 202.704 48.279 203.014 48.4593 203.338C48.6397 203.662 49.0312 203.973 49.6338 204.27C50.2365 204.568 50.8638 204.76 51.5156 204.846C52.1675 204.933 52.7904 204.934 53.3843 204.849C53.9853 204.761 54.5037 204.607 54.9395 204.387C55.2753 204.218 55.5251 204.031 55.6889 203.827C55.8527 203.616 55.9162 203.398 55.8795 203.173C55.8499 202.945 55.7093 202.719 55.4578 202.495L56.2508 202.095ZM63.5315 200.863C62.8957 201.183 62.1699 201.402 61.3542 201.52C60.5385 201.631 59.708 201.631 58.8627 201.52C58.0174 201.409 57.2288 201.173 56.4971 200.812C55.7653 200.451 55.2839 200.061 55.0531 199.64C54.815 199.217 54.8061 198.803 55.0263 198.398C55.2537 197.99 55.6854 197.626 56.3212 197.306C56.9571 196.986 57.6793 196.768 58.4878 196.654C59.3035 196.537 60.1376 196.535 60.99 196.649C61.8353 196.76 62.6239 196.996 63.3557 197.357C64.0875 197.718 64.5688 198.108 64.7997 198.529C65.0305 198.949 65.0359 199.365 64.8157 199.776C64.5954 200.18 64.1674 200.543 63.5315 200.863ZM62.7244 200.465C63.2102 200.22 63.542 199.949 63.7197 199.652C63.8903 199.352 63.8818 199.041 63.6943 198.721C63.5068 198.4 63.1082 198.09 62.4983 197.789C61.8885 197.488 61.2648 197.294 60.6273 197.208C59.9825 197.117 59.3596 197.117 58.7586 197.205C58.1576 197.293 57.6141 197.459 57.1283 197.704C56.6497 197.945 56.3215 198.218 56.1438 198.522C55.9732 198.823 55.9817 199.133 56.1692 199.454C56.3495 199.771 56.7446 200.08 57.3544 200.38C57.9642 200.681 58.5915 200.877 59.2362 200.967C59.881 201.057 60.5038 201.058 61.1049 200.97C61.7059 200.874 62.2457 200.706 62.7244 200.465ZM72.0832 195.932L71.7403 196.105L68.4339 191.31L69.2912 190.878L76.2863 194.329L75.429 194.761L69.9298 192.048L70.1443 191.983L72.857 196.057L71.9997 196.489L63.8108 195.185L63.9393 195.077L69.4277 197.785L68.5704 198.217L61.5753 194.766L62.4326 194.334L72.0832 195.932ZM76.5105 191.748L75.7033 191.35L77.8895 190.248C78.3182 190.033 78.532 189.792 78.5308 189.528C78.5297 189.257 78.3139 189.015 77.8834 188.803C77.4386 188.583 76.9513 188.478 76.4216 188.488C75.8918 188.49 75.4125 188.599 74.9839 188.815L72.9692 189.83L79.1571 192.883L78.2998 193.315L71.3047 189.864L74.1767 188.417C74.4982 188.255 74.8485 188.128 75.2276 188.038C75.6067 187.947 75.9967 187.897 76.3976 187.888C76.8056 187.876 77.2067 187.91 77.6008 187.99C78.002 188.067 78.382 188.194 78.7408 188.371C79.0995 188.548 79.358 188.736 79.5164 188.935C79.6819 189.131 79.7543 189.33 79.7337 189.534C79.7202 189.734 79.6244 189.929 79.4462 190.119C79.268 190.309 79.0181 190.485 78.6966 190.647L76.5105 191.748ZM88.1478 188.46C87.512 188.781 86.7862 189 85.9705 189.117C85.1548 189.228 84.3243 189.228 83.479 189.117C82.6337 189.006 81.8452 188.771 81.1134 188.41C80.3816 188.049 79.9003 187.658 79.6694 187.238C79.4313 186.814 79.4224 186.4 79.6427 185.996C79.8701 185.588 80.3017 185.223 80.9375 184.903C81.5734 184.583 82.2956 184.366 83.1041 184.251C83.9198 184.134 84.7539 184.132 85.6064 184.246C86.4517 184.357 87.2402 184.593 87.972 184.954C88.7038 185.315 89.1851 185.705 89.416 186.126C89.6469 186.546 89.6522 186.962 89.432 187.373C89.2117 187.778 88.7837 188.14 88.1478 188.46ZM87.3407 188.062C87.8265 187.817 88.1583 187.546 88.3361 187.249C88.5066 186.949 88.4982 186.638 88.3107 186.318C88.1232 185.997 87.7245 185.687 87.1147 185.386C86.5048 185.085 85.8812 184.891 85.2436 184.805C84.5989 184.715 83.976 184.714 83.3749 184.802C82.7739 184.89 82.2305 185.057 81.7447 185.301C81.266 185.542 80.9378 185.815 80.7601 186.119C80.5895 186.42 80.598 186.73 80.7855 187.051C80.9658 187.368 81.3609 187.677 81.9707 187.978C82.5805 188.278 83.2078 188.474 83.8526 188.564C84.4973 188.654 85.1202 188.655 85.7212 188.567C86.3222 188.472 86.862 188.303 87.3407 188.062ZM90.4445 184.931L91.2161 184.543C91.5388 184.681 91.8972 184.768 92.2911 184.806C92.685 184.844 93.0859 184.828 93.4937 184.758C93.9086 184.685 94.3019 184.555 94.6734 184.368C94.9949 184.206 95.2162 184.048 95.3372 183.894C95.4583 183.732 95.4863 183.582 95.4212 183.443C95.3634 183.301 95.2196 183.173 94.9901 183.06C94.7533 182.943 94.506 182.878 94.2482 182.865C93.9904 182.852 93.7041 182.874 93.3894 182.933C93.0746 182.991 92.7241 183.071 92.3379 183.173C91.9732 183.271 91.5906 183.363 91.19 183.451C90.7894 183.538 90.3816 183.604 89.9665 183.648C89.5586 183.689 89.1648 183.691 88.7852 183.653C88.3984 183.612 88.04 183.51 87.71 183.347C87.3872 183.188 87.1716 182.996 87.0632 182.772C86.9549 182.54 86.9825 182.297 87.1461 182.043C87.3097 181.782 87.6308 181.531 88.1094 181.29C88.8596 180.912 89.6249 180.73 90.4054 180.744C91.1858 180.759 91.9061 180.936 92.5662 181.276L91.7946 181.665C91.2709 181.421 90.7622 181.312 90.2683 181.339C89.7744 181.366 89.3095 181.49 88.8737 181.709C88.5093 181.893 88.2775 182.096 88.1782 182.317C88.0717 182.536 88.1979 182.733 88.5566 182.91C88.7144 182.988 88.8829 183.043 89.062 183.074C89.2411 183.098 89.4487 183.101 89.6849 183.082C89.9283 183.06 90.218 183.014 90.5542 182.945C90.8904 182.868 91.2909 182.77 91.7558 182.65C92.0562 182.571 92.3745 182.496 92.7107 182.427C93.054 182.354 93.401 182.304 93.7517 182.278C94.1096 182.248 94.4676 182.261 94.8258 182.316C95.184 182.365 95.5389 182.476 95.8904 182.649C96.2276 182.815 96.4611 183.012 96.591 183.24C96.7208 183.461 96.7039 183.702 96.5403 183.963C96.3839 184.221 96.0378 184.485 95.5019 184.755C95.0447 184.985 94.5908 185.153 94.1402 185.259C93.6895 185.357 93.2602 185.409 92.8521 185.414C92.444 185.419 92.0752 185.398 91.7457 185.349C91.4161 185.293 91.1366 185.227 90.9072 185.149C90.6777 185.071 90.5235 184.999 90.4445 184.931ZM98.2482 181.44L97.441 181.041L100.785 179.357L101.592 179.755L98.2482 181.44ZM98.663 183.055L94.315 178.27L95.2152 177.817L104.879 179.923L103.957 180.388L95.3037 178.437L95.5609 178.308L99.5632 182.601L98.663 183.055ZM106.273 179.221L99.278 175.77L102.021 174.387C102.743 174.024 103.469 173.823 104.199 173.784C104.936 173.742 105.599 173.865 106.187 174.156C106.553 174.336 106.776 174.521 106.855 174.71C106.942 174.895 106.911 175.083 106.761 175.272C106.612 175.462 106.376 175.656 106.055 175.854L106.012 175.811C106.29 175.685 106.576 175.577 106.87 175.486C107.155 175.392 107.445 175.328 107.739 175.295C108.039 175.258 108.343 175.262 108.651 175.307C108.96 175.352 109.271 175.453 109.587 175.608C110.01 175.817 110.269 176.038 110.363 176.269C110.457 176.501 110.412 176.738 110.226 176.982C110.041 177.218 109.745 177.45 109.338 177.676L106.273 179.221ZM106.323 178.39L108.317 177.386C108.802 177.141 109.091 176.906 109.183 176.681C109.276 176.449 109.124 176.235 108.73 176.04C108.414 175.885 108.088 175.813 107.752 175.825C107.422 175.834 107.097 175.894 106.775 176.006C106.446 176.114 106.139 176.241 105.853 176.385L104.074 177.281L106.323 178.39ZM103.267 176.883L105.046 175.986C105.532 175.742 105.806 175.499 105.87 175.26C105.933 175.013 105.768 174.793 105.373 174.598C104.986 174.407 104.566 174.339 104.116 174.395C103.672 174.446 103.243 174.577 102.829 174.786L100.942 175.736L103.267 176.883ZM107.061 171.848L113.248 174.901L117.106 172.957L117.914 173.356L113.198 175.731L106.203 172.28L107.061 171.848ZM117.411 170.54L119.682 171.66L123.765 169.603L124.572 170.001L119.632 172.49L112.636 169.039L117.566 166.555L118.373 166.953L114.301 169.005L116.604 170.141L119.937 168.462L120.744 168.86L117.411 170.54ZM68.8091 212.405L59.3063 210.218L60.228 209.753L68.4516 211.662L68.1944 211.792L64.1931 207.756L65.1147 207.291L73.2526 209.243L72.9954 209.373L69.0799 205.293L69.9801 204.84L74.4889 209.543L73.5887 209.997L65.2463 207.933L65.4821 207.814L69.7093 211.952L68.8091 212.405ZM71.589 204.029L72.4463 203.597L79.4414 207.048L78.584 207.48L71.589 204.029ZM74.0031 202.813L79.5758 200.005L80.3829 200.403L74.8103 203.211L74.0031 202.813ZM77.0818 201.981L77.9391 201.549L84.2132 204.644L83.3558 205.076L77.0818 201.981ZM84.7949 200.466L89.2101 198.241L90.0173 198.64L85.602 200.864L84.7949 200.466ZM86.0572 196.739L86.9145 196.307L93.9096 199.758L93.0523 200.19L86.0572 196.739ZM80.9132 199.331L81.7706 198.899L88.7656 202.35L87.9083 202.782L80.9132 199.331ZM93.7805 192.848C94.4807 192.495 95.1598 192.246 95.8178 192.101C96.4759 191.948 97.1092 191.879 97.7178 191.894C98.3264 191.91 98.9031 191.988 99.4478 192.128C99.9925 192.269 100.498 192.454 100.964 192.684C101.431 192.914 101.808 193.168 102.095 193.445C102.383 193.722 102.542 194.018 102.572 194.332C102.609 194.642 102.488 194.964 102.21 195.297C101.925 195.627 101.447 195.961 100.776 196.299L98.5144 197.438L91.5193 193.987L93.7805 192.848ZM98.5646 196.608L99.9685 195.901C100.533 195.616 100.918 195.343 101.125 195.082C101.339 194.817 101.423 194.567 101.379 194.331C101.328 194.092 101.184 193.872 100.947 193.669C100.717 193.463 100.437 193.279 100.107 193.116C99.7771 192.953 99.4078 192.817 98.9992 192.708C98.5978 192.596 98.1644 192.532 97.699 192.516C97.2263 192.496 96.729 192.543 96.2068 192.656C95.6918 192.765 95.152 192.962 94.5876 193.246L93.1838 193.954L98.5646 196.608ZM103.993 191.608L106.264 192.729L110.347 190.671L111.154 191.07L106.214 193.559L99.2189 190.108L104.149 187.624L104.956 188.022L100.883 190.074L103.186 191.21L106.519 189.531L107.326 189.929L103.993 191.608ZM110.906 184.219L111.713 184.617L107.641 186.669L109.944 187.805L113.277 186.126L114.084 186.524L110.751 188.204L113.829 189.722L112.972 190.154L105.977 186.703L110.906 184.219ZM112.572 183.38L113.429 182.948L120.424 186.399L119.567 186.831L112.572 183.38Z" fill="#193049"/>
<path d="M209.414 195.906C228.786 195.906 246.294 199.931 258.938 206.41C271.614 212.905 279.246 221.773 279.246 231.404C279.246 241.036 271.614 249.904 258.938 256.398C246.294 262.877 228.785 266.902 209.414 266.902C190.043 266.902 172.534 262.877 159.89 256.398C147.214 249.904 139.582 241.036 139.582 231.404C139.582 221.773 147.214 212.905 159.89 206.41C172.534 199.931 190.043 195.906 209.414 195.906Z" fill="#135A70" stroke="black" stroke-width="1.16387"/>
<ellipse cx="208.833" cy="236.642" rx="65.1767" ry="29.6787" fill="#169AC1"/>
<path d="M240.489 226.353L224.422 236.243L209.139 228.629V176.473L199.998 170.49L216.685 139.672L232.734 149.552L250.011 160.187L240.489 166.048V226.353Z" fill="#E6F6F7"/>
<path d="M224.422 236.243L240.489 226.353V166.048L250.011 160.187L232.734 149.552M224.422 236.243V175.395L215.9 180.642M224.422 236.243L209.139 228.629V176.473M232.734 149.552L215.9 180.642M232.734 149.552L216.685 139.672L199.998 170.49L209.139 176.473M215.9 180.642L209.139 176.473" stroke="black" stroke-width="1.19015"/>
<path d="M209.518 187.261V177.109L216.063 180.916L224.394 175.205V194.24L209.518 187.261Z" fill="black"/>
<ellipse cx="237.328" cy="234.328" rx="4.16885" ry="10.7615" transform="rotate(84.269 237.328 234.328)" fill="#193049"/>
<path d="M222.428 235.423V232.895L231.724 234.68L241.764 232.82V235.423C241.218 236.663 238.521 239.142 232.096 239.142C225.67 239.142 222.973 236.663 222.428 235.423Z" fill="#315780" stroke="#193049" stroke-width="0.305043"/>
<path d="M232.1 228.656C234.774 228.656 237.187 229.137 238.927 229.907C239.797 230.292 240.491 230.747 240.966 231.244C241.44 231.741 241.689 232.272 241.689 232.817C241.689 233.363 241.44 233.894 240.966 234.391C240.491 234.888 239.797 235.342 238.927 235.728C237.187 236.498 234.774 236.979 232.1 236.979C229.426 236.978 227.012 236.498 225.272 235.728C224.403 235.342 223.708 234.888 223.233 234.391C222.759 233.894 222.51 233.363 222.51 232.817C222.51 232.272 222.759 231.74 223.233 231.244C223.708 230.747 224.403 230.292 225.272 229.907C227.012 229.137 229.426 228.656 232.1 228.656Z" fill="white" stroke="#193049" stroke-width="0.305043"/>
<path d="M222.428 233.486V230.957L231.724 232.742L241.764 230.883V233.486C241.218 234.725 238.521 237.204 232.096 237.204C225.67 237.204 222.973 234.725 222.428 233.486Z" fill="#315780" stroke="#193049" stroke-width="0.305043"/>
<path d="M232.1 226.723C234.774 226.723 237.187 227.204 238.927 227.974C239.797 228.359 240.491 228.813 240.966 229.311C241.44 229.807 241.689 230.338 241.689 230.884C241.689 231.429 241.44 231.961 240.966 232.457C240.491 232.954 239.797 233.409 238.927 233.794C237.187 234.564 234.774 235.045 232.1 235.045C229.426 235.045 227.012 234.564 225.272 233.794C224.403 233.409 223.708 232.954 223.233 232.457C222.759 231.961 222.51 231.429 222.51 230.884C222.51 230.338 222.759 229.807 223.233 229.311C223.708 228.813 224.403 228.359 225.272 227.974C227.012 227.204 229.426 226.723 232.1 226.723Z" fill="#90DAE9" stroke="#193049" stroke-width="0.305043"/>
<path d="M220.494 231.404V228.875L229.79 230.66L239.83 228.801V231.404C239.285 232.643 236.588 235.122 230.162 235.122C223.737 235.122 221.04 232.643 220.494 231.404Z" fill="#315780" stroke="#193049" stroke-width="0.305043"/>
<path d="M230.166 224.641C232.84 224.641 235.254 225.121 236.993 225.892C237.863 226.277 238.557 226.731 239.032 227.229C239.506 227.725 239.756 228.256 239.756 228.802C239.756 229.347 239.506 229.879 239.032 230.375C238.557 230.872 237.863 231.327 236.993 231.712C235.254 232.482 232.84 232.963 230.166 232.963C227.492 232.963 225.078 232.482 223.339 231.712C222.469 231.327 221.775 230.872 221.3 230.375C220.826 229.879 220.576 229.347 220.576 228.802C220.576 228.256 220.826 227.725 221.3 227.229C221.775 226.731 222.469 226.277 223.339 225.892C225.078 225.122 227.492 224.641 230.166 224.641Z" fill="#90DAE9" stroke="#193049" stroke-width="0.305043"/>
<path d="M222.428 229.318V226.789L231.724 228.574L241.764 226.715V229.318C241.218 230.557 238.521 233.036 232.096 233.036C225.67 233.036 222.973 230.557 222.428 229.318Z" fill="#315780" stroke="#193049" stroke-width="0.305043"/>
<path d="M232.1 222.559C234.774 222.559 237.187 223.039 238.927 223.81C239.797 224.195 240.491 224.649 240.966 225.146C241.44 225.643 241.689 226.174 241.689 226.72C241.689 227.265 241.44 227.797 240.966 228.293C240.491 228.79 239.797 229.245 238.927 229.63C237.187 230.4 234.774 230.881 232.1 230.881C229.426 230.881 227.012 230.4 225.272 229.63C224.403 229.245 223.708 228.79 223.233 228.293C222.759 227.797 222.51 227.265 222.51 226.72C222.51 226.174 222.759 225.643 223.233 225.146C223.708 224.649 224.403 224.195 225.272 223.81C227.012 223.039 229.426 222.559 232.1 222.559Z" fill="#90DAE9" stroke="#193049" stroke-width="0.305043"/>
<ellipse cx="231.665" cy="225.438" rx="4.09304" ry="8.60663" transform="rotate(85.0747 231.665 225.438)" fill="#193049"/>
<path d="M237.831 213.175C240.687 216.561 239.613 222.235 235.335 225.845C231.056 229.454 225.282 229.557 222.426 226.171C219.569 222.785 220.643 217.111 224.922 213.502C229.201 209.892 234.974 209.789 237.831 213.175Z" fill="#315780" stroke="#193049" stroke-width="0.305043"/>
<path d="M236.823 212.062C239.679 215.448 238.606 221.122 234.327 224.731C230.048 228.341 224.274 228.443 221.418 225.058C218.562 221.672 219.635 215.998 223.914 212.388C228.193 208.779 233.967 208.676 236.823 212.062Z" fill="#90DAE9" stroke="#193049" stroke-width="0.305043"/>
<path d="M234.893 213.53C235.918 214.745 236.201 216.404 235.813 218.115C235.424 219.827 234.364 221.583 232.72 222.97C231.076 224.357 229.166 225.106 227.414 225.201C225.661 225.295 224.074 224.736 223.049 223.521C222.025 222.307 221.741 220.648 222.129 218.937C222.518 217.225 223.577 215.469 225.222 214.082C226.866 212.695 228.775 211.946 230.528 211.851C232.281 211.757 233.868 212.315 234.893 213.53Z" fill="white" stroke="#193049" stroke-width="0.305043"/>
<path d="M225.864 218.744L225.726 218.227L228.717 214.306L230.738 214.538L228.76 217.132L230.319 218.321L230.054 218.668L228.159 217.222L229.943 214.883L228.9 214.763L225.864 218.744Z" fill="#01A8AB"/>
<path d="M228.642 214.131L231.046 214.407L228.992 217.101L230.551 218.29L230.086 218.9L227.927 217.254L229.635 215.014L228.975 214.938L225.791 219.112L225.545 218.191L228.642 214.131ZM225.726 218.227L225.864 218.744L228.9 214.763L229.943 214.883L228.159 217.222L230.054 218.668L230.319 218.321L228.759 217.132L230.737 214.538L228.717 214.306L225.726 218.227Z" fill="#01A8AB"/>
<path d="M225.596 221.39L224.223 217.976L227.08 214.229L227.615 214.225L224.712 218.032L225.717 220.533L226.606 219.367L226.943 219.623L225.596 221.39Z" fill="#01A8AB"/>
<path d="M226.998 214.063L227.951 214.057L224.901 218.057L225.763 220.2L226.575 219.135L227.175 219.592L225.551 221.721L224.034 217.949L226.998 214.063ZM224.223 217.975L225.596 221.389L226.943 219.623L226.607 219.367L225.718 220.532L224.712 218.031L227.615 214.225L227.08 214.228L224.223 217.975Z" fill="#01A8AB"/>
<path d="M231.625 218.063L231.762 218.579L228.772 222.501L226.751 222.268L228.729 219.675L227.17 218.485L227.434 218.139L229.33 219.584L227.545 221.924L228.588 222.044L231.625 218.063Z" fill="#01A8AB"/>
<path d="M231.625 218.064L228.589 222.045L227.546 221.925L229.33 219.586L227.435 218.14L227.17 218.487L228.729 219.676L226.752 222.27L228.772 222.502L231.763 218.581L231.625 218.064ZM228.847 222.678L228.753 222.667L226.443 222.401L228.497 219.707L226.938 218.518L227.403 217.908L229.562 219.555L227.854 221.794L228.514 221.87L231.698 217.696L231.923 218.538L231.944 218.617L228.847 222.678Z" fill="#01A8AB"/>
<path d="M231.894 215.42L233.266 218.834L230.409 222.581L229.875 222.584L232.778 218.778L231.772 216.277L230.883 217.443L230.547 217.186L231.894 215.42Z" fill="#01A8AB"/>
<path d="M232.777 218.778L229.874 222.584L230.409 222.581L233.266 218.834L231.893 215.42L230.546 217.186L230.883 217.443L231.772 216.277L232.777 218.778ZM230.491 222.746L229.538 222.752L232.589 218.752L231.727 216.609L230.914 217.675L230.314 217.217L231.938 215.088L233.455 218.86L230.491 222.746Z" fill="#01A8AB"/>
<path d="M180.423 234.959L192.954 243.061L204.873 236.824V204.824L212.002 199.923L198.988 174.676L186.472 182.77L172.998 191.483L180.423 196.284V234.959Z" fill="#E6F6F7"/>
<path d="M192.954 243.061L180.423 234.959V196.284L172.998 191.483L186.472 182.77M192.954 243.061V203.942L199.601 208.24M192.954 243.061L204.873 236.824V204.824M186.472 182.77L199.601 208.24M186.472 182.77L198.988 174.676L212.002 199.923L204.873 204.824M199.601 208.24L204.873 204.824" stroke="black" stroke-width="1.03961"/>
<path d="M205.021 211.062L192.955 213.661V203.785L199.452 208.463L205.021 204.825V211.062Z" fill="black"/>
<path d="M206.722 225.844C187.997 225.844 187.997 243.682 187.997 244.076C187.997 244.076 188.983 254.425 207.708 254.425C217.726 254.425 222.321 250.497 224.372 247.481C225.782 245.408 225.96 242.796 225.381 240.356C224.117 235.024 220.01 225.844 206.722 225.844Z" fill="#01A8AB" stroke="black" stroke-width="1.16387"/>
<path d="M206.486 226.34C188.49 226.34 188.49 242.333 188.49 242.686C188.49 242.686 189.437 251.964 207.433 251.964C216.496 251.964 220.94 248.844 223.075 246.223C224.769 244.142 224.992 241.3 224.247 238.722C222.85 233.883 218.711 226.34 206.486 226.34Z" fill="white"/>
<circle cx="206.723" cy="215.006" r="10.7518" fill="#01A8AB" stroke="black" stroke-width="1.16387"/>
<circle cx="206.231" cy="214.512" r="9.85545" fill="white"/>
<ellipse cx="236.372" cy="250.411" rx="4.64129" ry="11.981" transform="rotate(97.6691 236.372 250.411)" fill="#193049"/>
<path d="M224.24 250.16V247.345L234.59 249.332L245.767 247.262V250.16C245.16 251.54 242.158 254.299 235.004 254.299C227.85 254.299 224.847 251.54 224.24 250.16Z" fill="#315780" stroke="#193049" stroke-width="0.339612"/>
<path d="M235.009 242.631C237.986 242.631 240.673 243.165 242.609 244.022C243.578 244.451 244.351 244.957 244.88 245.511C245.408 246.063 245.685 246.655 245.686 247.263C245.686 247.87 245.408 248.462 244.88 249.015C244.351 249.568 243.578 250.075 242.609 250.504C240.673 251.361 237.986 251.895 235.009 251.896C232.032 251.896 229.344 251.361 227.407 250.504C226.439 250.075 225.666 249.568 225.138 249.015C224.61 248.462 224.332 247.87 224.332 247.263C224.332 246.655 224.61 246.063 225.138 245.511C225.666 244.957 226.439 244.451 227.407 244.022C229.344 243.165 232.032 242.631 235.009 242.631Z" fill="white" stroke="#193049" stroke-width="0.339612"/>
<path d="M224.24 248.003V245.188L234.59 247.175L245.767 245.105V248.003C245.16 249.383 242.158 252.143 235.004 252.143C227.85 252.143 224.847 249.383 224.24 248.003Z" fill="#315780" stroke="#193049" stroke-width="0.339612"/>
<path d="M235.009 240.475C237.986 240.475 240.673 241.009 242.609 241.866C243.578 242.295 244.351 242.801 244.88 243.354C245.408 243.907 245.685 244.499 245.686 245.106C245.686 245.714 245.408 246.306 244.88 246.858C244.351 247.412 243.578 247.919 242.609 248.348C240.673 249.205 237.986 249.739 235.009 249.739C232.032 249.739 229.344 249.205 227.407 248.348C226.439 247.919 225.666 247.412 225.138 246.858C224.61 246.306 224.332 245.714 224.332 245.106C224.332 244.499 224.61 243.907 225.138 243.354C225.666 242.801 226.439 242.295 227.407 241.866C229.344 241.009 232.032 240.475 235.009 240.475Z" fill="#90DAE9" stroke="#193049" stroke-width="0.339612"/>
<path d="M222.08 245.691V242.876L232.43 244.863L243.607 242.793V245.691C243 247.071 239.997 249.831 232.844 249.831C225.69 249.831 222.687 247.071 222.08 245.691Z" fill="#315780" stroke="#193049" stroke-width="0.339612"/>
<path d="M232.845 238.158C235.822 238.158 238.509 238.692 240.445 239.55C241.414 239.979 242.187 240.485 242.716 241.038C243.244 241.591 243.521 242.183 243.521 242.79C243.521 243.398 243.244 243.989 242.716 244.542C242.187 245.095 241.414 245.602 240.445 246.031C238.509 246.889 235.822 247.423 232.845 247.423C229.868 247.423 227.18 246.889 225.243 246.031C224.275 245.602 223.502 245.095 222.974 244.542C222.446 243.989 222.168 243.398 222.168 242.79C222.168 242.183 222.446 241.591 222.974 241.038C223.502 240.485 224.275 239.978 225.243 239.55C227.18 238.692 229.868 238.158 232.845 238.158Z" fill="#90DAE9" stroke="#193049" stroke-width="0.339612"/>
<path d="M224.24 243.371V240.555L234.59 242.543L245.767 240.473V243.371C245.16 244.751 242.158 247.51 235.004 247.51C227.85 247.51 224.847 244.751 224.24 243.371Z" fill="#315780" stroke="#193049" stroke-width="0.339612"/>
<path d="M235.009 235.842C237.986 235.842 240.673 236.376 242.609 237.233C243.578 237.662 244.351 238.168 244.88 238.722C245.408 239.274 245.685 239.866 245.686 240.474C245.686 241.081 245.408 241.673 244.88 242.226C244.351 242.779 243.578 243.286 242.609 243.715C240.673 244.572 237.986 245.106 235.009 245.106C232.032 245.106 229.344 244.572 227.407 243.715C226.439 243.286 225.666 242.779 225.138 242.226C224.61 241.673 224.332 241.081 224.332 240.474C224.332 239.866 224.61 239.274 225.138 238.722C225.666 238.168 226.439 237.662 227.407 237.233C229.344 236.376 232.032 235.842 235.009 235.842Z" fill="#90DAE9" stroke="#193049" stroke-width="0.339612"/>
<path d="M235.286 237.248C237.331 237.248 239.174 237.625 240.499 238.228C241.84 238.837 242.588 239.644 242.588 240.475C242.588 241.305 241.839 242.111 240.499 242.721C239.174 243.323 237.331 243.7 235.286 243.7C233.241 243.7 231.399 243.323 230.073 242.721C228.733 242.111 227.985 241.305 227.984 240.475C227.984 239.644 228.733 238.837 230.073 238.228C231.399 237.625 233.242 237.248 235.286 237.248Z" fill="white" stroke="#193049" stroke-width="0.339612"/>
<g clip-path="url(#clip0_1973_7456)">
<path d="M232.664 238.873L236.875 238.873L237.951 239.561L236.797 240.271L235.225 240.271L235.225 240.005L236.38 240.005L237.118 239.572L236.38 239.099L232.282 239.099L232.664 238.873Z" fill="#01A8AB"/>
<path d="M235.922 239.414L231.781 239.414L230.626 240.09L231.026 240.36L232.171 239.662L235.479 239.662L235.922 239.414Z" fill="#01A8AB"/>
<path d="M236.806 241.371L232.595 241.371L231.519 240.683L232.673 239.973L234.245 239.973L234.245 240.239L233.09 240.239L232.352 240.672L233.09 241.145L237.187 241.145L236.806 241.371Z" fill="#01A8AB"/>
<path d="M233.556 240.83L237.697 240.83L238.852 240.155L238.452 239.885L237.306 240.582L233.999 240.582L233.556 240.83Z" fill="#01A8AB"/>
</g>
<ellipse cx="4.98511" cy="12.8686" rx="4.98511" ry="12.8686" transform="matrix(0.133451 0.991055 0.991055 -0.133451 164.999 245.281)" fill="#193049"/>
<path d="M191.444 248.238V245.214L180.328 247.348L168.322 245.125V248.238C168.975 249.72 172.2 252.684 179.883 252.684C187.567 252.684 190.792 249.72 191.444 248.238Z" fill="#315780" stroke="#193049" stroke-width="0.36477"/>
<path d="M179.88 240.147C176.682 240.148 173.797 240.722 171.717 241.643C170.677 242.103 169.845 242.647 169.277 243.241C168.71 243.835 168.413 244.471 168.413 245.123C168.413 245.776 168.71 246.411 169.277 247.005C169.845 247.599 170.677 248.143 171.717 248.604C173.797 249.524 176.683 250.099 179.88 250.099C183.077 250.099 185.964 249.524 188.044 248.604C189.084 248.143 189.914 247.599 190.482 247.005C191.049 246.411 191.348 245.776 191.348 245.123C191.348 244.47 191.049 243.835 190.482 243.241C189.914 242.647 189.084 242.103 188.044 241.643C185.964 240.722 183.078 240.147 179.88 240.147Z" fill="white" stroke="#193049" stroke-width="0.36477"/>
<path d="M191.444 245.925V242.901L180.328 245.036L168.322 242.812V245.925C168.975 247.407 172.2 250.372 179.883 250.372C187.567 250.372 190.792 247.407 191.444 245.925Z" fill="#315780" stroke="#193049" stroke-width="0.36477"/>
<path d="M179.88 237.835C176.682 237.835 173.797 238.409 171.717 239.33C170.677 239.791 169.845 240.334 169.277 240.929C168.71 241.522 168.413 242.158 168.413 242.811C168.413 243.463 168.71 244.099 169.277 244.692C169.845 245.287 170.677 245.83 171.717 246.291C173.797 247.212 176.683 247.786 179.88 247.786C183.077 247.786 185.964 247.212 188.044 246.291C189.084 245.831 189.914 245.287 190.482 244.692C191.049 244.099 191.348 243.463 191.348 242.811C191.348 242.158 191.049 241.522 190.482 240.929C189.914 240.334 189.084 239.791 188.044 239.33C185.964 238.409 183.078 237.835 179.88 237.835Z" fill="#90DAE9" stroke="#193049" stroke-width="0.36477"/>
<path d="M188.21 243.433V240.409L177.094 242.544L165.088 240.32V243.433C165.74 244.915 168.965 247.879 176.649 247.879C184.333 247.879 187.558 244.915 188.21 243.433Z" fill="#315780" stroke="#193049" stroke-width="0.36477"/>
<path d="M176.649 235.347C173.452 235.347 170.566 235.921 168.486 236.842C167.446 237.302 166.615 237.846 166.047 238.44C165.48 239.034 165.183 239.67 165.183 240.322C165.183 240.975 165.48 241.611 166.047 242.204C166.615 242.799 167.446 243.342 168.486 243.803C170.566 244.723 173.452 245.298 176.649 245.298C179.847 245.298 182.734 244.724 184.813 243.803C185.853 243.342 186.684 242.798 187.252 242.204C187.819 241.611 188.117 240.975 188.117 240.322C188.117 239.67 187.819 239.034 187.252 238.44C186.684 237.846 185.854 237.302 184.813 236.842C182.734 235.921 179.847 235.347 176.649 235.347Z" fill="#90DAE9" stroke="#193049" stroke-width="0.36477"/>
<path d="M191.125 240.945V237.921L180.009 240.055L168.003 237.832V240.945C168.655 242.427 171.88 245.391 179.564 245.391C187.248 245.391 190.473 242.427 191.125 240.945Z" fill="#315780" stroke="#193049" stroke-width="0.36477"/>
<path d="M179.564 232.858C176.367 232.858 173.481 233.433 171.401 234.354C170.361 234.814 169.53 235.358 168.962 235.952C168.395 236.546 168.098 237.182 168.098 237.834C168.098 238.486 168.395 239.122 168.962 239.716C169.53 240.31 170.361 240.854 171.401 241.314C173.481 242.235 176.367 242.81 179.564 242.81C182.762 242.81 185.649 242.235 187.729 241.314C188.769 240.854 189.599 240.31 190.167 239.716C190.734 239.122 191.032 238.486 191.032 237.834C191.032 237.181 190.734 236.546 190.167 235.952C189.599 235.358 188.769 234.814 187.729 234.354C185.649 233.433 182.762 232.858 179.564 232.858Z" fill="#90DAE9" stroke="#193049" stroke-width="0.36477"/>
<path d="M179.268 234.374C177.072 234.374 175.092 234.779 173.669 235.426C172.229 236.08 171.426 236.947 171.426 237.839C171.426 238.731 172.229 239.597 173.669 240.252C175.092 240.899 177.072 241.305 179.268 241.305C181.464 241.305 183.444 240.899 184.867 240.252C186.307 239.597 187.11 238.731 187.11 237.839C187.11 236.947 186.307 236.08 184.867 235.426C183.444 234.779 181.464 234.374 179.268 234.374Z" fill="white" stroke="#193049" stroke-width="0.36477"/>
<path d="M180.134 238.898L179.929 239.089L177.384 238.675L176.993 237.686L178.677 237.959L178.842 236.947L179.067 236.984L178.867 238.214L177.348 237.967L177.549 238.478L180.134 238.898Z" fill="#01A8AB"/>
<path d="M177.322 238.752L176.857 237.575L178.606 237.859L178.77 236.847L179.166 236.912L178.939 238.313L177.484 238.077L177.612 238.4L180.322 238.841L179.958 239.181L177.322 238.752ZM179.93 239.089L180.134 238.898L177.549 238.478L177.348 237.967L178.867 238.214L179.067 236.983L178.842 236.947L178.677 237.959L176.994 237.685L177.384 238.675L179.93 239.089Z" fill="#01A8AB"/>
<path d="M181.42 238.371L180.183 239.845L177.751 239.449L177.618 239.204L180.089 239.605L180.995 238.525L180.238 238.402L180.274 238.184L181.42 238.371Z" fill="#01A8AB"/>
<path d="M177.696 239.527L177.458 239.089L180.054 239.511L180.831 238.586L180.139 238.473L180.202 238.084L181.585 238.309L180.218 239.938L177.696 239.527ZM180.184 239.844L181.421 238.37L180.274 238.184L180.239 238.402L180.995 238.525L180.089 239.605L177.618 239.203L177.751 239.449L180.184 239.844Z" fill="#01A8AB"/>
<path d="M178.401 236.407L178.605 236.217L181.151 236.63L181.541 237.62L179.857 237.346L179.693 238.358L179.468 238.322L179.668 237.091L181.187 237.338L180.985 236.828L178.401 236.407Z" fill="#01A8AB"/>
<path d="M178.401 236.409L180.986 236.829L181.187 237.34L179.668 237.093L179.468 238.323L179.693 238.36L179.858 237.348L181.542 237.621L181.151 236.632L178.606 236.218L178.401 236.409ZM181.214 236.554L181.232 236.6L181.678 237.731L179.93 237.447L179.765 238.459L179.369 238.395L179.597 236.993L181.051 237.23L180.923 236.907L178.213 236.466L178.546 236.155L178.578 236.126L181.214 236.554Z" fill="#01A8AB"/>
<path d="M177.115 236.936L178.352 235.461L180.784 235.857L180.918 236.103L178.447 235.701L177.541 236.781L178.297 236.904L178.262 237.122L177.115 236.936Z" fill="#01A8AB"/>
<path d="M178.447 235.7L180.918 236.102L180.785 235.856L178.352 235.461L177.115 236.935L178.262 237.122L178.298 236.903L177.541 236.78L178.447 235.7ZM180.841 235.778L181.078 236.216L178.482 235.794L177.705 236.719L178.397 236.832L178.334 237.221L176.951 236.996L178.318 235.367L180.841 235.778Z" fill="#01A8AB"/>
<defs>
<clipPath id="clip0_1973_7456">
<rect width="2.7169" height="8.15069" fill="white" transform="translate(238.818 238.777) rotate(90)"/>
</clipPath>
</defs>
</svg>
