<svg width="415" height="414" viewBox="0 0 415 414" fill="none" xmlns="http://www.w3.org/2000/svg">
<path d="M10.0195 207.534V248.609C10.0195 248.988 10.2335 249.334 10.5723 249.504L206.138 347.294C206.803 347.626 207.586 347.143 207.586 346.399V311.316C207.586 310.946 207.381 310.606 207.054 310.433L11.4883 206.651C10.8223 206.297 10.0195 206.78 10.0195 207.534Z" fill="#4FC9EE" stroke="#193049"/>
<path d="M403.029 205.363L207.142 309.932C206.817 310.106 206.613 310.445 206.613 310.815V346.472C206.613 347.216 207.397 347.699 208.062 347.365L403.949 248.943C404.287 248.774 404.5 248.428 404.5 248.05V206.246C404.5 205.49 403.696 205.008 403.029 205.363Z" fill="#2A7D8F" stroke="#193049"/>
<path d="M14.2061 214.267C8.83175 211.536 8.73541 203.94 13.9329 201.04L14.1843 200.906L202.779 104.31C204.778 103.286 207.122 103.215 209.17 104.099L209.575 104.289L399.753 200.174C405.157 202.899 405.252 210.533 400.024 213.425L399.771 213.559L209.566 310.09C207.565 311.105 205.222 311.168 203.179 310.278L202.774 310.088L14.2061 214.267Z" fill="white" stroke="#193049"/>
<path d="M52.5955 206.28L45.6005 202.829L48.6761 201.279C49.1619 201.034 49.6517 200.863 50.1452 200.764C50.6317 200.662 51.1113 200.639 51.584 200.694C52.0639 200.745 52.5263 200.881 52.9711 201.1C53.2724 201.249 53.4807 201.401 53.5959 201.558C53.7183 201.711 53.769 201.868 53.7482 202.029C53.7203 202.186 53.6278 202.343 53.471 202.501C53.3213 202.655 53.1215 202.806 52.8715 202.953L52.7855 202.943C53.1785 202.759 53.5502 202.618 53.9007 202.521C54.2511 202.423 54.6053 202.387 54.9634 202.414C55.3215 202.441 55.7086 202.558 56.1247 202.763L57.8681 203.623L57.0108 204.055L55.2674 203.195C54.9804 203.053 54.708 202.969 54.4501 202.941C54.1922 202.907 53.9167 202.931 53.6235 203.014C53.3303 203.091 52.9872 203.228 52.5943 203.426L50.5903 204.435L53.4529 205.848L52.5955 206.28ZM49.7831 204.037L52.0015 202.919C52.4873 202.675 52.7261 202.433 52.718 202.194C52.7098 201.947 52.5084 201.727 52.1138 201.532C51.7335 201.345 51.3215 201.262 50.8777 201.286C50.4339 201.302 49.9691 201.432 49.4832 201.677L47.2649 202.795L49.7831 204.037ZM61.5528 201.766L52.0501 199.579L52.9717 199.115L61.1953 201.024L60.9381 201.153L56.9369 197.117L57.8585 196.652L65.9964 198.605L65.7392 198.734L61.8236 194.655L62.7238 194.201L67.2326 198.905L66.3324 199.358L57.9901 197.294L58.2258 197.176L62.453 201.313L61.5528 201.766ZM69.4695 195.953L68.6624 195.555L72.006 193.87L72.8131 194.269L69.4695 195.953ZM69.8844 197.569L65.5363 192.784L66.4365 192.33L76.1 194.437L75.1784 194.901L66.5251 192.951L66.7822 192.822L70.7846 197.115L69.8844 197.569ZM74.7522 192.852L75.5238 192.463C75.8466 192.601 76.2049 192.688 76.5988 192.726C76.9928 192.764 77.3936 192.748 77.8014 192.678C78.2164 192.605 78.6096 192.475 78.9811 192.288C79.3026 192.126 79.5239 191.968 79.645 191.814C79.766 191.653 79.794 191.503 79.729 191.364C79.6711 191.221 79.5274 191.093 79.2978 190.98C79.061 190.863 78.8138 190.798 78.556 190.785C78.2982 190.772 78.0119 190.794 77.6971 190.853C77.3823 190.911 77.0318 190.991 76.6457 191.093C76.2809 191.191 75.8983 191.283 75.4977 191.371C75.0972 191.458 74.6893 191.524 74.2743 191.569C73.8664 191.61 73.4726 191.611 73.093 191.574C72.7062 191.532 72.3478 191.43 72.0178 191.268C71.6949 191.108 71.4793 190.916 71.371 190.692C71.2626 190.46 71.2902 190.218 71.4538 189.963C71.6174 189.702 71.9385 189.451 72.4172 189.21C73.1673 188.832 73.9327 188.65 74.7131 188.665C75.4936 188.679 76.2138 188.856 76.8739 189.196L76.1023 189.585C75.5787 189.341 75.0699 189.233 74.576 189.26C74.0821 189.287 73.6173 189.41 73.1814 189.63C72.8171 189.813 72.5852 190.016 72.4859 190.238C72.3795 190.456 72.5056 190.653 72.8643 190.83C73.0222 190.908 73.1906 190.963 73.3698 190.994C73.5488 191.018 73.7565 191.021 73.9927 191.002C74.236 190.98 74.5258 190.934 74.862 190.865C75.1981 190.788 75.5987 190.69 76.0635 190.57C76.3639 190.491 76.6822 190.416 77.0184 190.347C77.3617 190.274 77.7088 190.224 78.0595 190.198C78.4173 190.168 78.7754 190.181 79.1336 190.236C79.4918 190.285 79.8466 190.396 80.1982 190.569C80.5354 190.736 80.7689 190.933 80.8987 191.161C81.0285 191.381 81.0116 191.622 80.8481 191.884C80.6916 192.141 80.3455 192.405 79.8097 192.675C79.3524 192.905 78.8985 193.073 78.4479 193.179C77.9973 193.277 77.5679 193.329 77.1598 193.334C76.7518 193.339 76.383 193.318 76.0534 193.269C75.7238 193.213 75.4443 193.147 75.2149 193.069C74.9855 192.992 74.8312 192.919 74.7522 192.852ZM83.4431 188.473L84.2147 188.084C84.5375 188.222 84.8958 188.31 85.2897 188.347C85.6837 188.385 86.0845 188.369 86.4923 188.299C86.9073 188.226 87.3005 188.096 87.672 187.909C87.9935 187.747 88.2148 187.589 88.3359 187.435C88.4569 187.274 88.4849 187.124 88.4199 186.985C88.362 186.842 88.2183 186.714 87.9887 186.601C87.7519 186.484 87.5047 186.419 87.2469 186.406C86.9891 186.393 86.7028 186.415 86.388 186.474C86.0732 186.532 85.7227 186.612 85.3366 186.714C84.9718 186.812 84.5892 186.904 84.1886 186.992C83.7881 187.079 83.3802 187.145 82.9652 187.19C82.5573 187.231 82.1635 187.232 81.7839 187.195C81.3971 187.153 81.0387 187.051 80.7087 186.889C80.3858 186.729 80.1702 186.538 80.0619 186.313C79.9535 186.082 79.9811 185.839 80.1447 185.585C80.3083 185.323 80.6294 185.072 81.1081 184.831C81.8582 184.453 82.6236 184.271 83.404 184.286C84.1845 184.3 84.9047 184.478 85.5648 184.817L84.7932 185.206C84.2696 184.962 83.7608 184.854 83.2669 184.881C82.773 184.908 82.3081 185.031 81.8723 185.251C81.508 185.434 81.2761 185.637 81.1768 185.859C81.0704 186.077 81.1965 186.274 81.5552 186.451C81.7131 186.529 81.8815 186.584 82.0607 186.615C82.2397 186.639 82.4474 186.642 82.6836 186.623C82.9269 186.601 83.2167 186.555 83.5529 186.486C83.889 186.409 84.2896 186.311 84.7544 186.192C85.0548 186.112 85.3731 186.037 85.7093 185.968C86.0526 185.895 86.3997 185.846 86.7504 185.819C87.1082 185.789 87.4663 185.802 87.8245 185.857C88.1827 185.906 88.5375 186.017 88.8891 186.19C89.2263 186.357 89.4598 186.554 89.5896 186.782C89.7194 187.002 89.7025 187.243 89.539 187.505C89.3825 187.762 89.0364 188.026 88.5006 188.296C88.0433 188.527 87.5894 188.694 87.1388 188.8C86.6882 188.898 86.2588 188.95 85.8507 188.955C85.4427 188.961 85.0739 188.939 84.7443 188.89C84.4147 188.835 84.1352 188.768 83.9058 188.69C83.6764 188.613 83.5221 188.54 83.4431 188.473ZM90.0842 184.322L92.3549 185.442L96.4379 183.385L97.245 183.783L92.3047 186.272L85.3096 182.821L90.2392 180.337L91.0464 180.736L86.9741 182.787L89.277 183.924L92.6099 182.244L93.417 182.643L90.0842 184.322ZM102.718 178.697C103.148 178.981 103.411 179.281 103.505 179.599C103.6 179.916 103.537 180.23 103.316 180.542C103.095 180.846 102.728 181.128 102.214 181.387C101.735 181.628 101.209 181.811 100.637 181.934C100.058 182.055 99.4566 182.114 98.8337 182.113C98.218 182.109 97.602 182.04 96.9857 181.907C96.3694 181.774 95.7886 181.573 95.2434 181.304C94.6909 181.031 94.2816 180.744 94.0155 180.442C93.7421 180.136 93.5976 179.829 93.582 179.522C93.5736 179.212 93.6904 178.913 93.9327 178.627C94.1677 178.337 94.5246 178.071 95.0032 177.83C95.5248 177.567 96.0932 177.381 96.7084 177.271C97.3237 177.154 97.9535 177.12 98.5981 177.167C99.2355 177.211 99.8446 177.34 100.425 177.555L99.6324 177.955C99.1737 177.828 98.7152 177.759 98.2569 177.747C97.8058 177.731 97.3692 177.765 96.9471 177.848C96.5251 177.932 96.1461 178.059 95.8104 178.228C95.3745 178.448 95.0714 178.708 94.9008 179.008C94.7374 179.305 94.7458 179.616 94.9262 179.94C95.1065 180.264 95.498 180.575 96.1007 180.872C96.7034 181.169 97.3306 181.361 97.9825 181.448C98.6344 181.534 99.2573 181.535 99.8512 181.45C100.452 181.362 100.971 181.208 101.406 180.989C101.742 180.82 101.992 180.633 102.156 180.429C102.32 180.217 102.383 179.999 102.346 179.775C102.317 179.546 102.176 179.32 101.925 179.096L102.718 178.697ZM108.969 175.193L104.664 173.07L105.521 172.638L109.826 174.761C110.221 174.956 110.526 175.153 110.741 175.352C110.95 175.547 111.079 175.743 111.13 175.939C111.188 176.132 111.171 176.323 111.079 176.512C110.98 176.698 110.816 176.881 110.587 177.061C110.373 177.24 110.102 177.412 109.773 177.578C109.438 177.747 109.087 177.888 108.723 178C108.365 178.116 107.997 178.201 107.618 178.256C107.238 178.304 106.852 178.317 106.458 178.293C106.071 178.266 105.681 178.202 105.286 178.1C104.885 177.995 104.487 177.845 104.093 177.65L99.7879 175.526L100.645 175.094L104.95 177.218C105.488 177.484 105.993 177.64 106.466 177.688C106.939 177.736 107.383 177.709 107.797 177.608C108.212 177.506 108.602 177.363 108.966 177.18C109.323 177 109.598 176.808 109.791 176.603C109.983 176.399 110.029 176.179 109.928 175.944C109.826 175.709 109.507 175.459 108.969 175.193ZM114.556 175.061L107.561 171.61L110.636 170.06C111.122 169.816 111.612 169.644 112.106 169.546C112.592 169.444 113.072 169.42 113.544 169.475C114.024 169.527 114.487 169.662 114.931 169.882C115.233 170.03 115.441 170.183 115.556 170.34C115.679 170.493 115.729 170.649 115.709 170.81C115.681 170.967 115.588 171.125 115.431 171.282C115.282 171.437 115.082 171.587 114.832 171.735L114.746 171.724C115.139 171.541 115.511 171.4 115.861 171.302C116.211 171.204 116.566 171.169 116.924 171.196C117.282 171.223 117.669 171.339 118.085 171.544L119.828 172.404L118.971 172.836L117.228 171.976C116.941 171.835 116.668 171.75 116.41 171.723C116.153 171.688 115.877 171.713 115.584 171.796C115.291 171.872 114.947 172.009 114.555 172.207L112.551 173.217L115.413 174.629L114.556 175.061ZM111.743 172.819L113.962 171.701C114.448 171.456 114.686 171.214 114.678 170.975C114.67 170.729 114.469 170.508 114.074 170.314C113.694 170.126 113.282 170.044 112.838 170.067C112.394 170.083 111.929 170.214 111.444 170.459L109.225 171.576L111.743 172.819ZM119.533 169.484L121.803 170.605L125.886 168.547L126.693 168.946L121.753 171.435L114.758 167.984L119.688 165.5L120.495 165.898L116.422 167.95L118.725 169.086L122.058 167.407L122.865 167.805L119.533 169.484ZM123.777 163.44C124.477 163.087 125.156 162.838 125.814 162.692C126.472 162.539 127.106 162.471 127.714 162.486C128.323 162.501 128.9 162.579 129.444 162.72C129.989 162.86 130.495 163.045 130.961 163.276C131.427 163.506 131.804 163.759 132.092 164.036C132.379 164.314 132.538 164.609 132.568 164.923C132.605 165.234 132.485 165.555 132.207 165.889C131.922 166.218 131.444 166.552 130.772 166.891L128.511 168.03L121.516 164.579L123.777 163.44ZM128.561 167.2L129.965 166.492C130.529 166.208 130.915 165.935 131.121 165.674C131.335 165.409 131.42 165.158 131.376 164.923C131.325 164.684 131.181 164.463 130.944 164.261C130.714 164.055 130.434 163.87 130.104 163.707C129.774 163.545 129.404 163.409 128.996 163.3C128.594 163.187 128.161 163.123 127.695 163.107C127.223 163.088 126.725 163.134 126.203 163.247C125.688 163.357 125.148 163.553 124.584 163.838L123.18 164.545L128.561 167.2ZM70.1598 211.846C69.524 212.166 68.7982 212.385 67.9825 212.503C67.1668 212.613 66.3363 212.613 65.491 212.502C64.6457 212.392 63.8572 212.156 63.1254 211.795C62.3936 211.434 61.9122 211.043 61.6814 210.623C61.4433 210.199 61.4344 209.785 61.6547 209.381C61.8821 208.973 62.3137 208.609 62.9495 208.288C63.5854 207.968 64.3076 207.751 65.1161 207.637C65.9318 207.519 66.7659 207.517 67.6184 207.632C68.4637 207.742 69.2522 207.978 69.984 208.339C70.7158 208.7 71.1971 209.091 71.428 209.511C71.6589 209.931 71.6642 210.347 71.444 210.759C71.2237 211.163 70.7957 211.525 70.1598 211.846ZM69.3527 211.447C69.8385 211.203 70.1703 210.932 70.348 210.635C70.5186 210.334 70.5101 210.024 70.3226 209.703C70.1351 209.383 69.7365 209.072 69.1267 208.771C68.5168 208.47 67.8931 208.277 67.2556 208.19C66.6108 208.1 65.988 208.099 65.3869 208.187C64.7859 208.275 64.2425 208.442 63.7566 208.687C63.278 208.928 62.9498 209.201 62.7721 209.505C62.6015 209.805 62.61 210.116 62.7975 210.436C62.9778 210.753 63.3729 211.062 63.9827 211.363C64.5925 211.664 65.2198 211.859 65.8645 211.949C66.5093 212.039 67.1322 212.04 67.7332 211.952C68.3342 211.857 68.874 211.689 69.3527 211.447ZM73.1332 203.265L73.9404 203.663L69.8681 205.715L72.1711 206.851L75.5039 205.172L76.311 205.57L72.9782 207.249L76.056 208.768L75.1987 209.199L68.2036 205.749L73.1332 203.265ZM79.5142 200.05L80.3213 200.448L76.249 202.5L78.552 203.636L81.8849 201.957L82.692 202.355L79.3592 204.034L82.437 205.552L81.5797 205.984L74.5846 202.534L79.5142 200.05ZM84.4475 201.245L87.5553 199.679L88.3517 200.072L85.2439 201.638L84.4475 201.245ZM96.5527 196.112C96.9834 196.395 97.246 196.696 97.3404 197.013C97.4348 197.331 97.3717 197.645 97.1511 197.956C96.9304 198.261 96.5629 198.542 96.0485 198.802C95.5698 199.043 95.0444 199.225 94.4721 199.349C93.8927 199.469 93.2916 199.529 92.6687 199.528C92.0529 199.523 91.4369 199.455 90.8207 199.322C90.2044 199.189 89.6236 198.988 89.0783 198.719C88.5259 198.446 88.1166 198.159 87.8504 197.856C87.5771 197.55 87.4326 197.244 87.417 196.937C87.4085 196.627 87.5254 196.328 87.7676 196.042C88.0027 195.751 88.3595 195.486 88.8382 195.245C89.3597 194.982 89.9281 194.796 90.5434 194.686C91.1586 194.569 91.7885 194.534 92.4331 194.582C93.0705 194.625 93.6796 194.755 94.2604 194.97L93.4674 195.37C93.0086 195.243 92.5501 195.174 92.0919 195.161C91.6407 195.145 91.2042 195.179 90.7821 195.263C90.36 195.347 89.9811 195.474 89.6453 195.643C89.2095 195.862 88.9063 196.122 88.7358 196.423C88.5723 196.72 88.5808 197.03 88.7612 197.355C88.9415 197.679 89.333 197.989 89.9357 198.287C90.5383 198.584 91.1656 198.776 91.8175 198.862C92.4694 198.949 93.0922 198.95 93.6861 198.865C94.2872 198.777 94.8056 198.623 95.2414 198.403C95.5772 198.234 95.827 198.048 95.9908 197.843C96.1546 197.632 96.2181 197.414 96.1813 197.189C96.1517 196.961 96.0112 196.735 95.7596 196.511L96.5527 196.112ZM97.5045 194.076L101.92 191.851L102.727 192.25L98.3116 194.474L97.5045 194.076ZM98.7668 190.349L99.6241 189.917L106.619 193.368L105.762 193.8L98.7668 190.349ZM93.6229 192.941L94.4802 192.509L101.475 195.96L100.618 196.392L93.6229 192.941ZM107.595 191.053L106.787 190.654L110.131 188.97L110.938 189.368L107.595 191.053ZM108.009 192.668L103.661 187.883L104.562 187.43L114.225 189.536L113.303 190.001L104.65 188.05L104.907 187.921L108.91 192.214L108.009 192.668ZM108.839 185.275L109.696 184.843L116.691 188.294L115.834 188.726L108.839 185.275ZM123.302 183.943L123.141 184.099L117.093 181.116L117.951 180.684L124.946 184.135L124.089 184.566L113.604 183.904L113.765 183.748L119.802 186.726L118.945 187.158L111.949 183.707L112.807 183.275L123.302 183.943Z" fill="#193049"/>
<path d="M307.947 232.886L207.604 283.817L107.262 232.886L207.604 182.715L307.947 232.886Z" fill="#2A7D8F" stroke="black"/>
<path d="M292.736 240.927L207.597 283.817L122.458 240.927L207.597 198.678L292.736 240.927Z" fill="#60CEF3"/>
<path d="M307.947 232.886L207.604 283.817L107.262 232.886L207.604 182.715L307.947 232.886Z" stroke="black"/>
<path d="M167.501 239.215V190.715L249.501 188.715V239.715C249.501 239.715 241.501 258.715 211.001 258.715C173.001 258.715 167.501 239.215 167.501 239.215Z" fill="#60CEF3" stroke="black"/>
<path d="M249.501 240.215V234.215C246.668 240.882 234.501 254.215 208.501 254.215C182.501 254.215 170.334 241.215 167.501 234.715V239.215C170.668 245.715 180.001 257.715 208.501 258.715C233.685 259.599 246.334 246.382 249.501 240.215Z" fill="#2A7D8F"/>
<path d="M167.501 211.215C167.501 211.215 176.001 233.215 209.001 233.215C241.001 233.215 249.501 211.215 249.501 211.215" stroke="black"/>
<path d="M167.501 223.215C167.501 223.215 176.001 243.215 209.001 243.215C241.001 243.215 249.501 223.215 249.501 223.215" stroke="black"/>
<path d="M167.501 234.215C167.501 234.215 176.001 254.215 209.001 254.215C241.001 254.215 249.501 234.215 249.501 234.215" stroke="black"/>
<path d="M167.501 239.215V190.715L249.501 188.715V239.715C249.501 239.715 241.501 258.715 211.001 258.715C173.001 258.715 167.501 239.215 167.501 239.215Z" stroke="black"/>
<path d="M208.501 162.215C219.871 162.215 230.143 165.436 237.56 170.618C244.977 175.802 249.501 182.915 249.501 190.715C249.501 198.515 244.977 205.628 237.56 210.812C230.143 215.994 219.871 219.215 208.501 219.215C197.131 219.215 186.859 215.994 179.442 210.812C172.024 205.628 167.501 198.515 167.501 190.715C167.501 182.915 172.024 175.802 179.442 170.618C186.859 165.436 197.131 162.215 208.501 162.215Z" fill="white" stroke="black"/>
<path d="M208.501 162.215C219.871 162.215 230.143 165.436 237.56 170.618C244.977 175.802 249.501 182.915 249.501 190.715C249.501 198.515 244.977 205.628 237.56 210.812C230.143 215.994 219.871 219.215 208.501 219.215C197.131 219.215 186.859 215.994 179.442 210.812C172.024 205.628 167.501 198.515 167.501 190.715C167.501 182.915 172.024 175.802 179.442 170.618C186.859 165.436 197.131 162.215 208.501 162.215Z" fill="white" stroke="black"/>
<path d="M209.001 169.215C217.752 169.215 225.652 171.599 231.35 175.427C237.051 179.257 240.501 184.495 240.501 190.215C240.501 195.935 237.051 201.173 231.35 205.003C225.652 208.831 217.752 211.215 209.001 211.215C200.25 211.215 192.35 208.831 186.652 205.003C180.951 201.173 177.501 195.935 177.501 190.215C177.501 184.495 180.951 179.257 186.652 175.427C192.35 171.599 200.25 169.215 209.001 169.215Z" fill="#60CEF3" stroke="black"/>
<rect x="196.001" y="183.029" width="4" height="29" rx="2" transform="rotate(-55.9465 196.001 183.029)" fill="black"/>
<line x1="170.501" y1="201.715" x2="170.501" y2="215.715" stroke="black"/>
<line x1="176.501" y1="208.715" x2="176.501" y2="222.715" stroke="black"/>
<line x1="183.501" y1="213.715" x2="183.501" y2="227.715" stroke="black"/>
<line x1="191.501" y1="216.715" x2="191.501" y2="230.715" stroke="black"/>
<line x1="199.501" y1="218.715" x2="199.501" y2="232.715" stroke="black"/>
<line x1="208.501" y1="218.715" x2="208.501" y2="232.715" stroke="black"/>
<line x1="218.501" y1="218.715" x2="218.501" y2="232.715" stroke="black"/>
<line x1="226.501" y1="216.715" x2="226.501" y2="230.715" stroke="black"/>
<line x1="234.501" y1="212.715" x2="234.501" y2="226.715" stroke="black"/>
<line x1="241.501" y1="207.715" x2="241.501" y2="221.715" stroke="black"/>
<line x1="246.501" y1="201.715" x2="246.501" y2="215.715" stroke="black"/>
<line x1="173.501" y1="230.715" x2="173.501" y2="242.715" stroke="black"/>
<line x1="181.501" y1="236.715" x2="181.501" y2="247.715" stroke="black"/>
<line x1="189.501" y1="240.715" x2="189.501" y2="251.715" stroke="black"/>
<line x1="199.501" y1="242.715" x2="199.501" y2="253.715" stroke="black"/>
<line x1="208.501" y1="243.715" x2="208.501" y2="254.715" stroke="black"/>
<line x1="219.501" y1="242.715" x2="219.501" y2="253.715" stroke="black"/>
<line x1="227.501" y1="240.715" x2="227.501" y2="251.715" stroke="black"/>
<line x1="236.501" y1="236.715" x2="236.501" y2="247.715" stroke="black"/>
<path d="M229.388 170.041C226.988 175.641 220.721 179.041 217.888 180.041L194.388 141.041L202.388 136.041C205.054 134.874 212.188 134.141 219.388 140.541C228.388 148.541 232.388 163.041 229.388 170.041Z" fill="#2A7D8F" stroke="black"/>
<path d="M206.888 140.541L211.888 136.041" stroke="black"/>
<path d="M210.888 142.541L216.388 138.041" stroke="black"/>
<path d="M213.888 145.541L220.388 141.041" stroke="black"/>
<path d="M217.388 149.041L223.888 145.041" stroke="black"/>
<path d="M219.388 153.041L225.888 149.041" stroke="black"/>
<path d="M221.388 157.541L228.001 154.215" stroke="black"/>
<path d="M222.388 162.041L229.501 159.215" stroke="black"/>
<path d="M222.388 167.041L230.501 164.215" stroke="black"/>
<path d="M222.501 171.215L229.501 169.715" stroke="black"/>
<path d="M220.388 175.541L227.001 174.215" stroke="black"/>
<path d="M201.888 139.541L206.888 135.041" stroke="black"/>
<path d="M195.785 140.286C199.619 138.412 204.231 138.929 208.626 141.383C213.019 143.835 217.147 148.202 219.941 153.916C222.735 159.63 223.647 165.57 222.885 170.543C222.123 175.519 219.699 179.476 215.865 181.351C212.032 183.225 207.42 182.708 203.025 180.255C198.632 177.802 194.504 173.435 191.71 167.721C188.916 162.007 188.004 156.067 188.766 151.094C189.528 146.119 191.952 142.161 195.785 140.286Z" fill="#60CEF3" stroke="black"/>
<path d="M197.813 144.847C200.726 143.423 204.241 143.811 207.607 145.69C210.971 147.568 214.139 150.916 216.284 155.303C218.429 159.69 219.126 164.247 218.543 168.055C217.959 171.865 216.106 174.877 213.194 176.301C210.282 177.725 206.767 177.338 203.401 175.459C200.037 173.581 196.869 170.232 194.723 165.845C192.578 161.459 191.881 156.903 192.465 153.094C193.049 149.284 194.901 146.271 197.813 144.847Z" fill="#60CEF3" stroke="black"/>
<path d="M201.634 164.54L200.842 163.918L200.916 154.625L204.225 152.69L204.176 158.837L207.871 158.866L207.865 159.688L203.373 159.652L203.417 154.107L201.709 155.106L201.634 164.54Z" fill="black"/>
<path d="M200.605 154.448L204.542 152.147L204.491 158.53L208.186 158.559L208.175 160.006L203.058 159.965L203.1 154.656L202.02 155.288L201.94 165.181L200.528 164.071L200.605 154.448ZM200.842 163.921L201.634 164.543L201.709 155.108L203.417 154.11L203.372 159.655L207.865 159.691L207.871 158.869L204.176 158.84L204.225 152.693L200.916 154.627L200.842 163.921Z" fill="black"/>
<path d="M204.219 168.832L198.289 165.238L198.36 156.358L199.162 155.749L199.09 164.77L203.434 167.403L203.456 164.64L204.253 164.647L204.219 168.832Z" fill="black"/>
<path d="M198.051 156.204L199.48 155.117L199.405 164.596L203.128 166.852L203.148 164.327L204.569 164.339L204.528 169.385L197.977 165.414L198.051 156.204ZM198.29 165.239L204.221 168.834L204.254 164.648L203.457 164.642L203.435 167.404L199.091 164.771L199.163 155.75L198.361 156.36L198.29 165.239Z" fill="black"/>
<path d="M209.545 157.007L210.337 157.629L210.263 166.922L206.954 168.857L207.003 162.71L203.308 162.681L203.314 161.859L207.806 161.895L207.762 167.44L209.47 166.441L209.545 157.007Z" fill="black"/>
<path d="M209.545 157.006L209.47 166.441L207.762 167.439L207.807 161.894L203.314 161.858L203.308 162.68L207.003 162.71L206.954 168.856L210.263 166.922L210.337 157.629L209.545 157.006ZM210.574 167.102L210.421 167.191L206.638 169.403L206.689 163.019L202.993 162.99L203.005 161.544L208.121 161.585L208.079 166.892L209.159 166.261L209.239 156.368L210.53 157.383L210.651 157.478L210.574 167.102Z" fill="black"/>
<path d="M206.963 152.715L212.893 156.309L212.822 165.189L212.02 165.798L212.092 156.777L207.748 154.144L207.726 156.907L206.929 156.9L206.963 152.715Z" fill="black"/>
<path d="M212.092 156.778L212.02 165.799L212.822 165.189L212.893 156.31L206.963 152.716L206.929 156.901L207.726 156.908L207.748 154.145L212.092 156.778ZM213.133 165.345L211.703 166.432L211.779 156.953L208.056 154.696L208.036 157.222L206.615 157.211L206.655 152.164L213.206 156.135L213.133 165.345Z" fill="black"/>
<line x1="258.76" y1="208.277" x2="278.76" y2="197.277" stroke="black"/>
<path d="M326.786 211.296L255.154 172.438C254.443 172.053 254.441 170.992 255.089 170.508C259.437 167.262 264.314 159.557 265.296 149.889C266.279 140.216 276.622 131.383 280.266 128.731C280.785 128.353 281.482 128.613 281.68 129.223L290.739 157.252C290.882 157.696 291.313 157.981 291.778 157.941L298.775 157.326C299.216 157.287 299.63 157.543 299.793 157.955L305.877 173.339C306.04 173.75 306.454 174.006 306.894 173.967L311.383 173.573C311.823 173.534 312.237 173.79 312.4 174.202L319.69 192.635C319.8 192.913 320.029 193.128 320.314 193.219L326.311 195.142C326.694 195.265 326.967 195.606 327.002 196.007L328.259 210.33C328.329 211.124 327.487 211.676 326.786 211.296Z" fill="black" stroke="black"/>
<path d="M326.119 210.554L249.919 174.148C249.153 173.781 249.15 172.666 249.892 172.253C255.357 169.212 263.817 162.387 264.989 152.945C266.133 143.732 269.674 138.819 271.962 136.939C272.435 136.55 273.102 136.802 273.307 137.38L282.653 163.79C282.806 164.22 283.229 164.493 283.684 164.453L291.515 163.765C291.943 163.727 292.348 163.968 292.519 164.363L299.011 179.327C299.183 179.722 299.587 179.963 300.016 179.925L305.105 179.478C305.533 179.441 305.938 179.682 306.11 180.077L313.876 197.978C313.996 198.255 314.235 198.463 314.526 198.544L321.406 200.457C321.64 200.522 321.841 200.669 321.974 200.871L327.385 209.103C327.942 209.949 327.032 210.991 326.119 210.554Z" fill="#60CEF3" stroke="black"/>
<ellipse cx="278.501" cy="196.715" rx="2.5" ry="2" fill="black"/>
</svg>
