<svg width="484" height="145" viewBox="0 0 484 145" fill="none" xmlns="http://www.w3.org/2000/svg">
<line x1="4.37114e-08" y1="72.5" x2="484" y2="72.5" stroke="url(#paint0_linear_2411_6399)"/>
<path d="M40 1H-21V144H40C47.732 144 54 137.732 54 130V108.25V90.375V85.4375C54 80.2086 56.8285 75.3888 61.3935 72.8388L62 72.5L61.3935 72.1612C56.8285 69.6112 54 64.7914 54 59.5625V54.625V36.75V15C54 7.26801 47.732 1 40 1Z" stroke="url(#paint1_linear_2411_6399)"/>
<path d="M88 39H-21V106H88C93.5229 106 98 101.523 98 96V89.25V84.875C98 80.9067 99.5449 77.0943 102.307 74.2455L104 72.5L102.307 70.7545C99.5449 67.9057 98 64.0933 98 60.125V55.75V49C98 43.4772 93.5229 39 88 39Z" stroke="url(#paint2_linear_2411_6399)"/>
<path d="M444 1H505V144H444C436.268 144 430 137.732 430 130V108.25V90.375V85.4375C430 80.2086 427.172 75.3888 422.607 72.8388L422 72.5L422.607 72.1612C427.172 69.6112 430 64.7914 430 59.5625V54.625V36.75V15C430 7.26801 436.268 1 444 1Z" stroke="url(#paint3_linear_2411_6399)"/>
<path d="M396 39H505V106H396C390.477 106 386 101.523 386 96V89.25V84.875C386 80.9067 384.455 77.0943 381.693 74.2455L380 72.5L381.693 70.7545C384.455 67.9057 386 64.0933 386 60.125V55.75V49C386 43.4772 390.477 39 396 39Z" stroke="url(#paint4_linear_2411_6399)"/>
<defs>
<linearGradient id="paint0_linear_2411_6399" x1="-4.37114e-08" y1="73.5" x2="484" y2="73.5" gradientUnits="userSpaceOnUse">
<stop stop-color="#388E8F" stop-opacity="0"/>
<stop offset="0.183349" stop-color="#388E8F"/>
<stop offset="0.834274" stop-color="#388E8F"/>
<stop offset="1" stop-color="#388E8F" stop-opacity="0"/>
</linearGradient>
<linearGradient id="paint1_linear_2411_6399" x1="103.5" y1="73" x2="-1.5" y2="73" gradientUnits="userSpaceOnUse">
<stop stop-color="#388E8F"/>
<stop offset="1" stop-color="#388E8F" stop-opacity="0"/>
</linearGradient>
<linearGradient id="paint2_linear_2411_6399" x1="104" y1="73" x2="-3.50001" y2="73" gradientUnits="userSpaceOnUse">
<stop stop-color="#388E8F"/>
<stop offset="0.664908" stop-color="#388E8F" stop-opacity="0.175952"/>
<stop offset="1" stop-color="#388E8F" stop-opacity="0"/>
</linearGradient>
<linearGradient id="paint3_linear_2411_6399" x1="380.5" y1="73" x2="485.5" y2="73" gradientUnits="userSpaceOnUse">
<stop stop-color="#388E8F"/>
<stop offset="1" stop-color="#388E8F" stop-opacity="0.752941"/>
</linearGradient>
<linearGradient id="paint4_linear_2411_6399" x1="380" y1="73" x2="487.5" y2="73" gradientUnits="userSpaceOnUse">
<stop stop-color="#388E8F"/>
<stop offset="0.664908" stop-color="#388E8F" stop-opacity="0.175952"/>
<stop offset="1" stop-color="#388E8F" stop-opacity="0"/>
</linearGradient>
</defs>
</svg>
