<svg width="415" height="414" viewBox="0 0 415 414" fill="none" xmlns="http://www.w3.org/2000/svg">
<path d="M10.0195 207.586V248.652C10.0195 249.031 10.2335 249.377 10.5723 249.547L206.138 347.337C206.803 347.669 207.586 347.186 207.586 346.442V312.544C207.586 312.175 207.383 311.837 207.059 311.663L11.4924 206.705C10.8262 206.347 10.0195 206.83 10.0195 207.586Z" fill="#62BEC0" stroke="#193049"/>
<path d="M403.022 205.426L207.135 312.045C206.814 312.22 206.613 312.557 206.613 312.923V346.515C206.613 347.259 207.397 347.742 208.062 347.408L403.949 248.986C404.287 248.817 404.5 248.471 404.5 248.093V206.304C404.5 205.545 403.689 205.063 403.022 205.426Z" fill="#137172" stroke="#193049"/>
<path d="M14.2061 214.31C8.83175 211.579 8.73541 203.983 13.9329 201.083L14.1843 200.949L202.779 104.353C204.778 103.329 207.122 103.258 209.17 104.142L209.575 104.332L399.753 200.217C405.157 202.942 405.252 210.576 400.024 213.468L399.771 213.602L209.566 310.133C207.565 311.148 205.222 311.211 203.179 310.321L202.774 310.131L14.2061 214.31Z" fill="white" stroke="#193049"/>
<path d="M44.9039 203.224L50.4765 200.417L51.2836 200.815L45.711 203.623L44.9039 203.224ZM47.9826 202.392L48.8399 201.96L55.1139 205.056L54.2566 205.488L47.9826 202.392ZM55.6957 200.878L60.1109 198.653L60.918 199.051L56.5028 201.276L55.6957 200.878ZM56.958 197.151L57.8153 196.719L64.8104 200.17L63.953 200.602L56.958 197.151ZM51.814 199.743L52.6713 199.311L59.6664 202.762L58.8091 203.194L51.814 199.743ZM64.6231 197.195L66.8938 198.315L70.9768 196.258L71.7839 196.656L66.8436 199.146L59.8485 195.695L64.7781 193.211L65.5853 193.609L61.513 195.661L63.8159 196.797L67.1488 195.118L67.9559 195.516L64.6231 197.195ZM79.8282 190.275C80.2589 190.558 80.5215 190.859 80.6159 191.176C80.7103 191.494 80.6472 191.808 80.4266 192.119C80.2059 192.424 79.8384 192.706 79.324 192.965C78.8453 193.206 78.3199 193.388 77.7476 193.512C77.1682 193.632 76.5671 193.692 75.9442 193.691C75.3284 193.687 74.7124 193.618 74.0961 193.485C73.4799 193.352 72.8991 193.151 72.3538 192.882C71.8014 192.609 71.3921 192.322 71.1259 192.019C70.8526 191.714 70.7081 191.407 70.6925 191.1C70.684 190.79 70.8009 190.491 71.0431 190.205C71.2782 189.914 71.635 189.649 72.1137 189.408C72.6352 189.145 73.2036 188.959 73.8189 188.849C74.4341 188.732 75.064 188.697 75.7086 188.745C76.3459 188.788 76.9551 188.918 77.5359 189.133L76.7429 189.533C76.2841 189.406 75.8256 189.337 75.3673 189.324C74.9162 189.308 74.4796 189.342 74.0576 189.426C73.6355 189.51 73.2566 189.637 72.9208 189.806C72.485 190.025 72.1818 190.285 72.0113 190.586C71.8478 190.883 71.8563 191.193 72.0367 191.518C72.217 191.842 72.6085 192.152 73.2112 192.45C73.8138 192.747 74.4411 192.939 75.093 193.025C75.7448 193.112 76.3677 193.113 76.9616 193.028C77.5626 192.94 78.0811 192.786 78.5169 192.567C78.8527 192.397 79.1025 192.211 79.2663 192.007C79.43 191.795 79.4936 191.577 79.4568 191.352C79.4272 191.124 79.2867 190.898 79.0351 190.674L79.8282 190.275ZM87.1088 189.042C86.473 189.363 85.7472 189.582 84.9315 189.699C84.1158 189.81 83.2853 189.81 82.44 189.699C81.5947 189.588 80.8062 189.353 80.0744 188.992C79.3426 188.631 78.8613 188.24 78.6304 187.82C78.3923 187.396 78.3834 186.982 78.6037 186.578C78.8311 186.17 79.2627 185.806 79.8985 185.485C80.5344 185.165 81.2566 184.948 82.0651 184.834C82.8808 184.716 83.7149 184.714 84.5674 184.828C85.4127 184.939 86.2012 185.175 86.933 185.536C87.6648 185.897 88.1461 186.288 88.377 186.708C88.6079 187.128 88.6132 187.544 88.393 187.955C88.1727 188.36 87.7447 188.722 87.1088 189.042ZM86.3017 188.644C86.7875 188.399 87.1193 188.128 87.2971 187.831C87.4676 187.531 87.4591 187.22 87.2717 186.9C87.0842 186.579 86.6855 186.269 86.0757 185.968C85.4658 185.667 84.8421 185.473 84.2046 185.387C83.5598 185.297 82.937 185.296 82.3359 185.384C81.7349 185.472 81.1915 185.639 80.7057 185.883C80.227 186.125 79.8988 186.397 79.7211 186.701C79.5505 187.002 79.559 187.313 79.7465 187.633C79.9268 187.95 80.3219 188.259 80.9317 188.56C81.5415 188.861 82.1688 189.056 82.8136 189.146C83.4583 189.236 84.0812 189.237 84.6822 189.149C85.2832 189.054 85.823 188.885 86.3017 188.644ZM96.5051 183.181L96.3446 183.337L90.2966 180.354L91.1539 179.922L98.149 183.372L97.2917 183.804L86.8073 183.142L86.9677 182.986L93.005 185.964L92.1477 186.396L85.1526 182.945L86.01 182.513L96.5051 183.181ZM98.1168 176.413L98.9239 176.812L94.8516 178.863L97.1546 179.999L100.487 178.32L101.295 178.718L97.9617 180.398L101.04 181.916L100.182 182.348L93.1871 178.897L98.1168 176.413ZM99.7824 175.574L100.64 175.142L107.635 178.593L106.778 179.025L99.7824 175.574ZM105.154 172.867C105.855 172.515 106.534 172.266 107.192 172.12C107.85 171.967 108.483 171.899 109.092 171.914C109.7 171.929 110.277 172.007 110.822 172.148C111.366 172.288 111.872 172.473 112.338 172.703C112.805 172.933 113.182 173.187 113.469 173.464C113.757 173.742 113.915 174.037 113.945 174.351C113.982 174.662 113.862 174.983 113.584 175.316C113.299 175.646 112.821 175.98 112.149 176.318L109.888 177.458L102.893 174.007L105.154 172.867ZM109.938 176.628L111.342 175.92C111.907 175.636 112.292 175.363 112.499 175.101C112.712 174.836 112.797 174.586 112.753 174.351C112.702 174.112 112.558 173.891 112.321 173.689C112.091 173.483 111.811 173.298 111.481 173.135C111.151 172.973 110.782 172.837 110.373 172.728C109.972 172.615 109.538 172.551 109.073 172.535C108.6 172.516 108.103 172.562 107.581 172.675C107.066 172.784 106.526 172.981 105.962 173.266L104.558 173.973L109.938 176.628ZM115.367 171.628L117.638 172.748L121.721 170.691L122.528 171.089L117.588 173.578L110.593 170.127L115.522 167.644L116.33 168.042L112.257 170.094L114.56 171.23L117.893 169.55L118.7 169.949L115.367 171.628ZM128.703 166.958L128.543 167.114L122.494 164.131L123.352 163.699L130.347 167.15L129.49 167.582L119.005 166.919L119.166 166.763L125.203 169.741L124.346 170.173L117.351 166.722L118.208 166.291L128.703 166.958ZM136.035 161.955C136.466 162.239 136.729 162.539 136.823 162.856C136.918 163.174 136.854 163.488 136.634 163.8C136.413 164.104 136.046 164.386 135.531 164.645C135.053 164.886 134.527 165.069 133.955 165.192C133.375 165.313 132.774 165.372 132.151 165.371C131.536 165.367 130.92 165.298 130.303 165.165C129.687 165.032 129.106 164.831 128.561 164.562C128.009 164.289 127.599 164.002 127.333 163.7C127.06 163.394 126.915 163.087 126.9 162.78C126.891 162.47 127.008 162.171 127.25 161.885C127.485 161.595 127.842 161.329 128.321 161.088C128.842 160.825 129.411 160.639 130.026 160.529C130.641 160.412 131.271 160.377 131.916 160.425C132.553 160.468 133.162 160.598 133.743 160.813L132.95 161.213C132.491 161.086 132.033 161.017 131.575 161.004C131.123 160.989 130.687 161.022 130.265 161.106C129.843 161.19 129.464 161.317 129.128 161.486C128.692 161.706 128.389 161.966 128.218 162.266C128.055 162.563 128.064 162.874 128.244 163.198C128.424 163.522 128.816 163.832 129.418 164.13C130.021 164.427 130.648 164.619 131.3 164.706C131.952 164.792 132.575 164.793 133.169 164.708C133.77 164.62 134.288 164.466 134.724 164.247C135.06 164.078 135.31 163.891 135.474 163.687C135.637 163.475 135.701 163.257 135.664 163.033C135.634 162.804 135.494 162.578 135.242 162.354L136.035 161.955ZM137.88 160.285L140.151 161.405L144.234 159.348L145.041 159.746L140.101 162.235L133.106 158.784L138.035 156.301L138.842 156.699L134.77 158.751L137.073 159.887L140.406 158.207L141.213 158.606L137.88 160.285ZM70.1598 211.891C69.524 212.211 68.7982 212.43 67.9825 212.548C67.1668 212.658 66.3363 212.658 65.491 212.547C64.6457 212.437 63.8572 212.201 63.1254 211.84C62.3936 211.479 61.9122 211.088 61.6814 210.668C61.4433 210.244 61.4344 209.83 61.6547 209.426C61.8821 209.018 62.3137 208.654 62.9495 208.333C63.5854 208.013 64.3076 207.796 65.1161 207.682C65.9318 207.564 66.7659 207.562 67.6184 207.677C68.4637 207.787 69.2522 208.023 69.984 208.384C70.7158 208.745 71.1971 209.136 71.428 209.556C71.6589 209.976 71.6642 210.392 71.444 210.804C71.2237 211.208 70.7957 211.57 70.1598 211.891ZM69.3527 211.492C69.8385 211.248 70.1703 210.977 70.348 210.68C70.5186 210.379 70.5101 210.069 70.3226 209.748C70.1351 209.428 69.7365 209.117 69.1267 208.816C68.5168 208.515 67.8931 208.322 67.2556 208.235C66.6108 208.145 65.988 208.144 65.3869 208.232C64.7859 208.32 64.2425 208.487 63.7566 208.732C63.278 208.973 62.9498 209.245 62.7721 209.55C62.6015 209.85 62.61 210.161 62.7975 210.481C62.9778 210.798 63.3729 211.107 63.9827 211.408C64.5925 211.709 65.2198 211.904 65.8645 211.994C66.5093 212.084 67.1322 212.085 67.7332 211.997C68.3342 211.902 68.874 211.734 69.3527 211.492ZM73.1332 203.31L73.9404 203.708L69.8681 205.76L72.1711 206.896L75.5039 205.217L76.311 205.615L72.9782 207.294L76.056 208.812L75.1987 209.244L68.2036 205.793L73.1332 203.31ZM76.0305 201.85L81.6031 199.042L82.4102 199.44L76.8376 202.248L76.0305 201.85ZM79.1092 201.018L79.9665 200.586L86.2405 203.681L85.3832 204.113L79.1092 201.018ZM89.9357 201.819L82.9406 198.368L86.0163 196.819C86.5021 196.574 86.9918 196.402 87.4854 196.304C87.9718 196.202 88.4514 196.178 88.9241 196.233C89.4041 196.285 89.8664 196.42 90.3112 196.64C90.6126 196.789 90.8208 196.941 90.936 197.098C91.0584 197.251 91.1092 197.408 91.0884 197.568C91.0604 197.725 90.968 197.883 90.8111 198.041C90.6614 198.195 90.4616 198.346 90.2116 198.493L90.1257 198.483C90.5187 198.299 90.8904 198.158 91.2408 198.06C91.5912 197.962 91.9454 197.927 92.3035 197.954C92.6616 197.981 93.0487 198.097 93.4648 198.303L95.2082 199.163L94.3509 199.595L92.6075 198.735C92.3205 198.593 92.0481 198.508 91.7903 198.481C91.5324 198.446 91.2568 198.471 90.9636 198.554C90.6704 198.63 90.3273 198.767 89.9344 198.965L87.9304 199.975L90.793 201.387L89.9357 201.819ZM87.1233 199.577L89.3416 198.459C89.8274 198.214 90.0663 197.972 90.0581 197.733C90.0499 197.487 89.8485 197.267 89.4539 197.072C89.0737 196.884 88.6616 196.802 88.2178 196.825C87.774 196.842 87.3092 196.972 86.8234 197.217L84.605 198.335L87.1233 199.577ZM96.0751 196.902L95.2679 196.503L98.6115 194.819L99.4186 195.217L96.0751 196.902ZM96.4899 198.517L92.1419 193.732L93.0421 193.279L102.706 195.385L101.784 195.85L93.1306 193.899L93.3878 193.77L97.3901 198.063L96.4899 198.517ZM99.3661 190.092C100.066 189.74 100.745 189.49 101.403 189.345C102.061 189.192 102.695 189.123 103.303 189.139C103.912 189.154 104.489 189.232 105.033 189.372C105.578 189.513 106.084 189.698 106.55 189.928C107.016 190.158 107.393 190.412 107.681 190.689C107.968 190.966 108.127 191.262 108.157 191.576C108.194 191.886 108.074 192.208 107.796 192.541C107.511 192.871 107.033 193.205 106.361 193.543L104.1 194.683L97.1049 191.232L99.3661 190.092ZM104.15 193.852L105.554 193.145C106.118 192.861 106.504 192.588 106.71 192.326C106.924 192.061 107.009 191.811 106.965 191.576C106.914 191.337 106.77 191.116 106.533 190.914C106.303 190.707 106.023 190.523 105.693 190.36C105.363 190.197 104.993 190.062 104.585 189.953C104.183 189.84 103.75 189.776 103.285 189.76C102.812 189.741 102.315 189.787 101.792 189.9C101.277 190.009 100.738 190.206 100.173 190.491L98.7694 191.198L104.15 193.852ZM109.734 184.868L110.541 185.267L106.469 187.318L108.772 188.455L112.105 186.775L112.912 187.174L109.579 188.853L112.657 190.371L111.8 190.803L104.805 187.352L109.734 184.868ZM111.4 184.029L112.257 183.597L119.252 187.048L118.395 187.48L111.4 184.029ZM124.077 184.617L117.082 181.166L120.158 179.617C120.644 179.372 121.133 179.2 121.627 179.102C122.113 179 122.593 178.976 123.066 179.031C123.546 179.083 124.008 179.218 124.453 179.438C124.754 179.586 124.962 179.739 125.078 179.896C125.2 180.049 125.251 180.205 125.23 180.366C125.202 180.523 125.11 180.681 124.953 180.839C124.803 180.993 124.603 181.143 124.353 181.291L124.267 181.281C124.66 181.097 125.032 180.956 125.382 180.858C125.733 180.76 126.087 180.725 126.445 180.752C126.803 180.779 127.19 180.895 127.606 181.1L129.35 181.961L128.492 182.393L126.749 181.532C126.462 181.391 126.19 181.306 125.932 181.279C125.674 181.244 125.398 181.269 125.105 181.352C124.812 181.428 124.469 181.565 124.076 181.763L122.072 182.773L124.935 184.185L124.077 184.617ZM121.265 182.375L123.483 181.257C123.969 181.012 124.208 180.77 124.2 180.531C124.191 180.285 123.99 180.064 123.595 179.87C123.215 179.682 122.803 179.6 122.359 179.623C121.916 179.639 121.451 179.77 120.965 180.015L118.747 181.132L121.265 182.375ZM133.035 180.104L123.532 177.917L124.453 177.452L132.677 179.361L132.42 179.491L128.419 175.454L129.34 174.99L137.478 176.942L137.221 177.072L133.305 172.992L134.205 172.539L138.714 177.242L137.814 177.696L129.472 175.632L129.707 175.513L133.935 179.65L133.035 180.104ZM140.951 174.291L140.144 173.893L143.488 172.208L144.295 172.606L140.951 174.291ZM141.366 175.906L137.018 171.122L137.918 170.668L147.582 172.774L146.66 173.239L138.007 171.289L138.264 171.159L142.266 175.453L141.366 175.906ZM146.234 171.189L147.005 170.8C147.328 170.938 147.687 171.026 148.081 171.064C148.474 171.101 148.875 171.085 149.283 171.016C149.698 170.943 150.091 170.812 150.463 170.625C150.784 170.463 151.006 170.305 151.127 170.151C151.248 169.99 151.276 169.84 151.211 169.701C151.153 169.559 151.009 169.431 150.779 169.317C150.543 169.201 150.295 169.136 150.038 169.122C149.78 169.109 149.494 169.132 149.179 169.19C148.864 169.249 148.514 169.329 148.127 169.43C147.763 169.528 147.38 169.621 146.979 169.708C146.579 169.796 146.171 169.862 145.756 169.906C145.348 169.947 144.954 169.949 144.575 169.911C144.188 169.87 143.829 169.768 143.499 169.605C143.177 169.446 142.961 169.254 142.853 169.03C142.744 168.798 142.772 168.555 142.935 168.301C143.099 168.04 143.42 167.789 143.899 167.547C144.649 167.169 145.414 166.988 146.195 167.002C146.975 167.017 147.696 167.194 148.356 167.534L147.584 167.923C147.06 167.679 146.552 167.57 146.058 167.597C145.564 167.624 145.099 167.748 144.663 167.967C144.299 168.151 144.067 168.353 143.968 168.575C143.861 168.793 143.987 168.991 144.346 169.168C144.504 169.246 144.672 169.3 144.851 169.332C145.031 169.356 145.238 169.359 145.474 169.34C145.718 169.317 146.007 169.272 146.344 169.202C146.68 169.126 147.08 169.028 147.545 168.908C147.846 168.828 148.164 168.754 148.5 168.685C148.843 168.612 149.19 168.562 149.541 168.536C149.899 168.506 150.257 168.518 150.615 168.574C150.973 168.622 151.328 168.733 151.68 168.907C152.017 169.073 152.251 169.27 152.38 169.498C152.51 169.719 152.493 169.96 152.33 170.221C152.173 170.479 151.827 170.743 151.291 171.013C150.834 171.243 150.38 171.411 149.93 171.516C149.479 171.615 149.05 171.666 148.642 171.672C148.233 171.677 147.865 171.655 147.535 171.607C147.206 171.551 146.926 171.484 146.697 171.407C146.467 171.329 146.313 171.257 146.234 171.189Z" fill="#193049"/>
<path d="M125 233.201L133.5 237.701L243.5 183.201L298.883 211.224L309 206.201L242.5 172.701L125 233.201Z" fill="#0C345F"/>
<path d="M300.03 228.8L206.303 275.636L123.899 233.196L241.764 172.778L309.771 206.002L282.237 219.716L300.03 228.8Z" stroke="black"/>
<path d="M218.334 263.963L156.224 231.975" stroke="#0C345F"/>
<path d="M225.128 238.802L183.711 217.471" stroke="#0C345F"/>
<path d="M243.493 239.14L195.927 214.643" stroke="#0C345F"/>
<path d="M169.135 248.541L146.45 236.857" stroke="#0C345F"/>
<path d="M175.256 221.717L164.281 227.339L227.081 259.921L239.276 253.759L175.256 221.717Z" fill="#62BEC0"/>
<path d="M230.215 182.096L223.989 185.775L230.215 189.454L236.158 185.775L230.215 182.096Z" fill="white"/>
<path d="M223.709 208.412V185.771L230.081 189.45L230.218 211.525L223.709 208.412Z" fill="#4A7BB0"/>
<path d="M236.442 208.699V186.059L230.07 189.738L229.933 211.812L236.442 208.699Z" fill="white"/>
<path d="M223.709 185.775V208.549L230.232 211.811M223.709 185.775L230.081 189.454M223.709 185.775L230.081 182.096L236.453 185.775M230.232 211.811L230.081 189.454M230.232 211.811L236.453 208.415V185.775M230.081 189.454L236.453 185.775" stroke="black"/>
<path d="M247.74 163.705L235.585 170.888L247.74 178.071L259.343 170.888L247.74 163.705Z" fill="white"/>
<path d="M235.025 215.086V170.885L247.466 178.068L247.733 221.164L235.025 215.086Z" fill="#62BEC0"/>
<path d="M259.891 215.641V171.439L247.45 178.622L247.183 221.719L259.891 215.641Z" fill="white"/>
<path d="M235.025 170.888V215.352L247.76 221.72M235.025 170.888L247.466 178.071M235.025 170.888L247.466 163.705L259.907 170.888M247.76 221.72L247.466 178.071M247.76 221.72L259.907 215.089V170.888M247.466 178.071L259.907 170.888" stroke="black"/>
<path d="M266.484 184.928L256.7 190.709L266.484 196.49L275.823 190.709L266.484 184.928Z" fill="white"/>
<path d="M256.25 226.286V190.709L266.263 196.49L266.478 231.178L256.25 226.286Z" fill="#62BEC0"/>
<path d="M276.272 226.731V191.154L266.259 196.936L266.044 231.623L276.272 226.731Z" fill="white"/>
<path d="M256.25 190.709V226.497L266.5 231.622M256.25 190.709L266.263 196.49M256.25 190.709L266.263 184.928L276.277 190.709M266.5 231.622L266.263 196.49M266.5 231.622L276.277 226.286V190.709M266.263 196.49L276.277 190.709" stroke="black"/>
<path d="M156.115 205.902V214.19H120.585C120.574 214.179 120.56 214.167 120.547 214.152C120.446 214.041 120.297 213.846 120.144 213.538C119.836 212.923 119.5 211.841 119.5 210.046C119.5 208.251 119.836 207.17 120.144 206.555C120.297 206.247 120.446 206.052 120.547 205.94C120.56 205.926 120.574 205.914 120.585 205.902H156.115Z" fill="white" stroke="black"/>
<path d="M156.613 205.902C157.138 205.902 157.699 206.259 158.155 207.02C158.605 207.77 158.899 208.839 158.899 210.046C158.899 211.253 158.605 212.322 158.155 213.072C157.699 213.833 157.138 214.19 156.613 214.19C156.089 214.19 155.528 213.832 155.072 213.072C154.622 212.322 154.327 211.253 154.327 210.046C154.327 208.839 154.622 207.77 155.072 207.02C155.528 206.26 156.089 205.902 156.613 205.902Z" fill="white" stroke="black"/>
<path d="M162.615 207.76V212.332H156.679C156.658 212.318 156.617 212.284 156.565 212.207C156.413 211.979 156.185 211.399 156.185 210.046C156.185 208.693 156.413 208.114 156.565 207.886C156.617 207.808 156.66 207.774 156.68 207.76H162.615Z" fill="#62BEC0" stroke="black"/>
<path d="M220.88 212.663V204.736H161.45V211.99C161.45 214.061 161.728 216.156 162.9 217.863C165.64 221.857 173.07 228.791 191.622 228.791C210.992 228.791 217.732 221.233 219.915 217.353C220.713 215.935 220.88 214.291 220.88 212.663Z" fill="#62BEC0" stroke="black"/>
<path d="M190.935 188.256C199.327 188.256 206.901 190.215 212.358 193.357C217.829 196.507 221.085 200.784 221.085 205.402C221.085 210.02 217.829 214.297 212.358 217.447C206.901 220.59 199.327 222.55 190.935 222.55C182.543 222.55 174.969 220.59 169.512 217.447C164.041 214.297 160.785 210.02 160.785 205.402C160.785 200.784 164.041 196.507 169.512 193.357C174.969 190.215 182.543 188.256 190.935 188.256Z" fill="white" stroke="black"/>
<path d="M190.938 191.971C197.535 191.971 203.482 193.514 207.764 195.984C212.058 198.462 214.587 201.81 214.587 205.402C214.587 208.995 212.058 212.343 207.764 214.82C203.482 217.29 197.535 218.834 190.938 218.834C184.342 218.834 178.394 217.29 174.112 214.82C169.818 212.343 167.29 208.995 167.29 205.402C167.29 201.81 169.818 198.462 174.112 195.984C178.394 193.514 184.342 191.971 190.938 191.971Z" fill="black" stroke="black"/>
<path d="M190.938 194.756C197.543 194.756 203.498 196.147 207.783 198.372C212.093 200.61 214.587 203.613 214.587 206.794C214.587 209.975 212.093 212.979 207.783 215.217C203.498 217.442 197.543 218.833 190.938 218.833C184.334 218.833 178.379 217.442 174.094 215.217C169.784 212.979 167.29 209.975 167.29 206.794C167.29 203.613 169.784 200.61 174.094 198.372C178.379 196.147 184.334 194.756 190.938 194.756Z" fill="white" stroke="black"/>
</svg>
