<svg width="320" height="273" viewBox="0 0 320 273" fill="none" xmlns="http://www.w3.org/2000/svg">
<circle cx="61.3455" cy="200.321" r="6.9881" fill="#90DAE9" stroke="#193049"/>
<circle cx="98.3455" cy="168.607" r="6.9881" fill="#90DAE9" stroke="#193049"/>
<circle cx="216.393" cy="168.607" r="6.9881" fill="#90DAE9" stroke="#193049"/>
<path d="M156.929 151.929C220.241 151.929 271.591 203.133 271.831 266.389C271.785 266.394 271.736 266.4 271.683 266.406C271.29 266.451 270.706 266.517 269.94 266.602C268.408 266.77 266.147 267.011 263.234 267.3C257.409 267.878 248.975 268.647 238.546 269.418C217.687 270.959 188.848 272.5 156.929 272.5C125.01 272.5 96.1712 270.959 75.3125 269.418C64.8835 268.647 56.4497 267.878 50.624 267.3C47.7112 267.011 45.4502 266.77 43.918 266.602C43.152 266.517 42.568 266.451 42.1758 266.406C42.1224 266.4 42.0726 266.394 42.0264 266.389C42.2661 203.133 93.6171 151.929 156.929 151.929Z" fill="url(#paint0_linear_1973_7019)" stroke="#193049"/>
<path d="M154.286 151.869L154.286 272.56" stroke="#193049"/>
<circle cx="236.226" cy="73.3852" r="31.8452" fill="#315780" stroke="#193049"/>
<circle cx="230.345" cy="68.3452" r="31.8452" fill="#90DAE9" stroke="#193049"/>
<circle cx="230.765" cy="67.9248" r="22.1836" fill="white" stroke="#193049"/>
<path d="M229.037 63.9775L234.723 66.1437L234.059 67.8877L226.666 65.0714L229.847 56.7203L227.228 57.1781L221.562 72.0505L221.289 71.6038L220.424 70.1884L220.358 70.0808L225.903 55.5259L226.046 55.5002L232.265 54.4143L232.71 54.3361L229.037 63.9775Z" fill="#01A8AB" stroke="#01A8AB" stroke-width="0.513947"/>
<path d="M217.743 70.3177L222.565 76.406L224.115 72.3376L225.822 72.9877L223.116 80.0913L222.835 79.7367L215.744 70.7853L215.654 70.6715L220.956 56.7527L221.077 56.7161L222.665 56.2351L223.166 56.0832L217.743 70.3177Z" fill="#01A8AB" stroke="#01A8AB" stroke-width="0.513947"/>
<path d="M233.648 80.3208L233.504 80.3466L227.286 81.4328L226.841 81.5107L230.513 71.8701L224.827 69.7039L225.491 67.9591L232.884 70.7754L229.703 79.1255L232.323 78.6678L237.988 63.7963L238.261 64.243L239.127 65.6584L239.192 65.766L233.648 80.3208Z" fill="#01A8AB" stroke="#01A8AB" stroke-width="0.513947"/>
<path d="M238.598 79.0981L238.477 79.1347L236.89 79.6157L236.389 79.7676L241.812 65.5322L236.989 59.4439L235.439 63.5132L233.732 62.8631L236.439 55.7595L236.719 56.1141L243.809 65.0651L243.9 65.1793L238.598 79.0981Z" fill="#01A8AB" stroke="#01A8AB" stroke-width="0.513947"/>
<path d="M80.4868 33.4842L90.1497 16.7461C90.1497 16.7461 88.564 39.2104 113.935 53.3057C139.307 67.401 157.5 54 157.5 54L146.971 72.2463C146.971 72.2463 134.802 83.2431 107.328 67.401C76.7725 49.7819 80.4868 33.4842 80.4868 33.4842Z" fill="#315780" stroke="#193049"/>
<path d="M132.894 19.9374C142.17 25.2927 149.452 32.0235 153.736 38.554C158.039 45.1114 159.238 51.3255 156.67 55.7731C154.102 60.2207 148.121 62.289 140.291 61.8419C132.493 61.3967 123.023 58.4554 113.747 53.1001C104.472 47.7448 97.1895 41.0141 92.905 34.4835C88.6027 27.926 87.4032 21.712 89.9711 17.2644C92.539 12.8167 98.5201 10.7485 106.35 11.1956C114.148 11.6408 123.618 14.5821 132.894 19.9374Z" fill="#90DAE9" stroke="#193049"/>
<path d="M129.383 25.0634C136.724 29.3022 142.611 34.4108 146.198 39.2236C147.992 41.6306 149.196 43.944 149.733 46.0209C150.268 48.0947 150.132 49.8986 149.297 51.3434C148.463 52.7881 146.969 53.8087 144.906 54.3817C142.839 54.9555 140.233 55.0693 137.252 54.719C131.29 54.0187 123.923 51.4746 116.581 47.2358C109.24 42.9971 103.354 37.8896 99.7664 33.0769C97.9723 30.6699 96.768 28.3565 96.2315 26.2797C95.6958 24.2059 95.8329 22.4019 96.6669 20.9572C97.5011 19.5124 98.9947 18.4919 101.059 17.9188C103.126 17.345 105.731 17.2312 108.713 17.5815C114.674 18.2819 122.041 20.8247 129.383 25.0634Z" fill="white" stroke="#193049"/>
<path d="M120.822 40.4327L119.492 40.3116L113.521 33.232L116.122 30.2987L120.071 34.9812L124.402 33.3662L124.93 33.9921L119.665 35.9554L116.103 31.7312L114.76 33.2451L120.822 40.4327Z" fill="#01A8AB"/>
<path d="M113.042 33.2319L116.136 29.7426L120.237 34.6055L124.568 32.9905L125.497 34.0924L119.5 36.3286L116.09 32.2844L115.24 33.2425L121.596 40.7793L119.225 40.5632L113.042 33.2319ZM119.492 40.3103L120.822 40.4314L114.761 33.2437L116.103 31.7302L119.665 35.9542L124.93 33.9909L124.402 33.3652L120.072 34.9802L116.123 30.2976L113.522 33.2306L119.492 40.3103Z" fill="#01A8AB"/>
<path d="M126.636 42.5415L117.374 42.4437L111.669 35.6794L112.207 34.8617L118.003 41.734L124.788 41.8057L123.013 39.7012L123.947 39.3529L126.636 42.5415Z" fill="#01A8AB"/>
<path d="M111.207 35.7004L112.166 34.2423L118.256 41.4634L124.071 41.5248L122.449 39.6012L124.114 38.9802L127.356 42.8247L117.124 42.7164L111.207 35.7004ZM117.375 42.445L126.638 42.5427L123.949 39.3541L123.015 39.7025L124.79 41.8068L118.005 41.7352L112.209 34.8629L111.671 35.6806L117.375 42.445Z" fill="#01A8AB"/>
<path d="M125.141 31.2127L126.471 31.3338L132.441 38.4134L129.841 41.3467L125.892 36.6642L121.561 38.2792L121.033 37.6533L126.298 35.69L129.86 39.9142L131.203 38.4003L125.141 31.2127Z" fill="#01A8AB"/>
<path d="M125.141 31.2121L131.203 38.3998L129.861 39.9133L126.299 35.6893L121.034 37.6526L121.562 38.2788L125.893 36.6638L129.841 41.3459L132.442 38.4129L126.471 31.3332L125.141 31.2121ZM132.922 38.4113L132.801 38.5473L129.828 41.9006L125.727 37.0377L121.397 38.6527L120.468 37.5513L126.464 35.3153L129.874 39.3587L130.723 38.4006L124.367 30.8642L126.537 31.0618L126.739 31.08L132.922 38.4113Z" fill="#01A8AB"/>
<path d="M119.332 29.1045L128.594 29.2023L134.299 35.9666L133.761 36.7844L127.965 29.912L121.18 29.8403L122.955 31.9448L122.021 32.2931L119.332 29.1045Z" fill="#01A8AB"/>
<path d="M127.963 29.9118L133.759 36.7841L134.297 35.9664L128.592 29.202L119.33 29.1043L122.019 32.2929L122.953 31.9445L121.178 29.8402L127.963 29.9118ZM134.761 35.9466L133.801 37.4047L127.711 30.1832L121.896 30.1217L123.519 32.0458L121.854 32.6668L118.611 28.8223L128.844 28.9306L134.761 35.9466Z" fill="#01A8AB"/>
<path d="M65.7321 108.199L69.9339 101.122L74.818 113.332L96.7961 124.147L109.459 134.656C107.133 138.145 101.963 145.358 94.7063 146.474C88.7789 147.386 80.7537 146.125 74.8181 142.288C65.5393 136.289 62.4294 126.493 62.8239 117.011C62.9544 113.873 64.1288 110.899 65.7321 108.199Z" fill="#315780" stroke="#193049"/>
<path d="M74.9812 95.6663C85.0325 87.9879 100.314 90.9337 109.094 102.427C117.874 113.921 116.697 129.438 106.646 137.117C96.5945 144.795 81.3137 141.85 72.5335 130.356C63.7533 118.863 64.9298 103.345 74.9812 95.6663Z" fill="#90DAE9" stroke="#193049"/>
<path d="M78.9452 100.571C86.5707 94.7464 98.1867 96.9703 104.871 105.72C111.555 114.471 110.646 126.262 103.021 132.087C95.3951 137.912 83.7797 135.689 77.0952 126.939C70.4108 118.189 71.3197 106.397 78.9452 100.571Z" fill="white" stroke="#193049"/>
<path d="M90.1016 123.292L88.8079 123.315L81.3378 114.005L83.0615 109.393L88.0023 115.551L91.7041 112.581L92.3646 113.404L87.8644 117.015L83.4072 111.46L82.5175 113.84L90.1016 123.292Z" fill="#01A8AB"/>
<path d="M80.8826 114.079L82.933 108.593L88.0641 114.988L91.766 112.017L92.9286 113.466L87.8027 117.579L83.5354 112.261L82.9725 113.767L90.9251 123.679L88.6184 123.72L80.8826 114.079ZM88.8079 123.316L90.1016 123.292L82.5175 113.84L83.4069 111.461L87.864 117.015L92.3643 113.404L91.7041 112.582L88.0022 115.552L83.0614 109.394L81.3377 114.006L88.8079 123.316Z" fill="#01A8AB"/>
<path d="M96.1593 125.464L87.3388 126.7L80.2014 117.805L80.5044 116.547L87.7559 125.584L94.2171 124.679L91.9965 121.911L92.7948 121.271L96.1593 125.464Z" fill="#01A8AB"/>
<path d="M79.7661 117.902L80.3063 115.659L87.9257 125.155L93.4632 124.379L91.4335 121.849L92.857 120.707L96.9136 125.763L87.1691 127.128L79.7661 117.902ZM87.3391 126.7L96.1597 125.463L92.7952 121.27L91.9967 121.911L94.2172 124.678L87.7562 125.584L80.5048 116.546L80.2016 117.804L87.3391 126.7Z" fill="#01A8AB"/>
<path d="M91.8575 109.368L93.1513 109.345L100.621 118.655L98.8977 123.267L93.9569 117.109L90.2551 120.08L89.5946 119.257L94.0948 115.646L98.552 121.201L99.4416 118.82L91.8575 109.368Z" fill="#01A8AB"/>
<path d="M91.8576 109.368L99.4417 118.82L98.5522 121.2L94.0952 115.645L89.5949 119.256L90.2556 120.079L93.9574 117.109L98.8978 123.266L100.622 118.655L93.1513 109.345L91.8576 109.368ZM101.077 118.581L100.997 118.795L99.0268 124.067L93.8957 117.672L90.1938 120.643L89.0317 119.194L94.1569 115.082L98.4233 120.399L98.9862 118.893L91.034 108.982L93.1443 108.944L93.3414 108.94L101.077 118.581Z" fill="#01A8AB"/>
<path d="M85.8047 107.195L94.6252 105.959L101.763 114.854L101.46 116.112L94.2081 107.075L87.7469 107.98L89.9676 110.748L89.1692 111.388L85.8047 107.195Z" fill="#01A8AB"/>
<path d="M94.2072 107.075L101.459 116.113L101.762 114.855L94.6243 105.959L85.8037 107.196L89.1682 111.389L89.9667 110.748L87.7462 107.981L94.2072 107.075ZM102.197 114.757L101.657 117L94.0372 107.504L88.4997 108.28L90.5299 110.81L89.1064 111.952L85.0498 106.896L94.7943 105.531L102.197 114.757Z" fill="#01A8AB"/>
<path d="M154.299 151.869C168.964 151.869 203.318 161.344 223.371 199.265C241.866 234.238 239.754 264.191 239.749 269.476" stroke="#193049"/>
<path d="M154.358 151.429C139.693 151.429 105.339 160.903 85.2858 198.825C66.7913 233.798 68.9031 263.75 68.9085 269.036" stroke="#193049"/>
<path d="M154.32 151.869C167.852 151.869 182.388 172.891 190.115 196.195C203.211 235.694 200.08 269.036 199.657 271.679" stroke="#193049"/>
<path d="M154.286 151.869C140.645 151.869 125.549 172.748 118.204 196.195C107.205 231.305 108.477 268.607 108.476 271.679" stroke="#193049"/>
<path d="M46.3691 234.679C46.3691 234.679 110.233 237.322 154.286 237.322C198.339 237.322 267.048 234.679 267.048 234.679" stroke="#193049"/>
<path d="M62.667 201.202C62.667 201.202 120.62 202.083 156.929 202.083C193.238 202.083 251.191 201.643 251.191 201.643" stroke="#193049"/>
<path d="M98.3457 167.727C98.3457 167.727 131.93 167.727 155.161 167.727C178.391 167.727 215.072 167.727 215.072 167.727" stroke="#193049"/>
<path d="M42.4053 256.261C42.4053 253.795 42.9926 250.535 43.2862 249.214C92.1791 265.952 157.37 267.714 219.036 270.797C158.691 275.202 76.4688 269.476 42.4053 265.952V256.261Z" fill="#193049" stroke="#193049"/>
<circle cx="71.9168" cy="236.44" r="6.9881" fill="#90DAE9" stroke="#193049"/>
<circle cx="83.369" cy="200.321" r="6.9881" fill="#90DAE9" stroke="#193049"/>
<circle cx="109.798" cy="166.846" r="6.9881" fill="#90DAE9" stroke="#193049"/>
<circle cx="130.94" cy="166.846" r="6.9881" fill="#90DAE9" stroke="#193049"/>
<circle cx="154.726" cy="167.726" r="6.9881" fill="#90DAE9" stroke="#193049"/>
<circle cx="176.75" cy="166.846" r="6.9881" fill="#90DAE9" stroke="#193049"/>
<circle cx="197.013" cy="166.846" r="6.9881" fill="#90DAE9" stroke="#193049"/>
<circle cx="115.965" cy="201.202" r="6.9881" fill="#90DAE9" stroke="#193049"/>
<circle cx="154.726" cy="201.202" r="6.9881" fill="#90DAE9" stroke="#193049"/>
<circle cx="192.607" cy="201.202" r="7.04762" fill="white" stroke="#193049" stroke-width="0.880952"/>
<circle cx="225.203" cy="201.202" r="6.9881" fill="#90DAE9" stroke="#193049"/>
<circle cx="45.4881" cy="233.798" r="6.9881" fill="#90DAE9" stroke="#193049"/>
<circle cx="266.607" cy="233.798" r="6.9881" fill="#90DAE9" stroke="#193049"/>
<circle cx="110.679" cy="237.321" r="6.9881" fill="#90DAE9" stroke="#193049"/>
<circle cx="153.846" cy="238.202" r="6.9881" fill="#90DAE9" stroke="#193049"/>
<circle cx="198.774" cy="237.321" r="6.9881" fill="#90DAE9" stroke="#193049"/>
<circle cx="237.536" cy="236.44" r="6.9881" fill="#90DAE9" stroke="#193049"/>
<path d="M146.639 110.695C152.63 105.44 163.798 105.284 178.583 111.926C193.017 118.41 209.448 130.816 224.274 147.717C239.1 164.618 249.26 182.526 253.808 197.682C258.467 213.206 256.858 224.258 250.867 229.513C244.876 234.768 233.709 234.924 218.923 228.282C204.49 221.799 188.058 209.392 173.232 192.491C158.407 175.59 148.247 157.683 143.699 142.527C139.039 127.002 140.648 115.95 146.639 110.695Z" stroke="#193049" stroke-width="7.92857"/>
<mask id="path-61-inside-1_1973_7019" fill="white">
<path d="M141.023 95.0091C158.198 79.6006 199.934 98.1117 234.245 136.355C268.555 174.598 282.447 218.092 265.272 233.5C248.097 248.909 206.36 230.398 172.049 192.155C137.739 153.911 123.848 110.418 141.023 95.0091ZM223.721 146.029C195.931 115.053 164.4 98.0206 153.294 107.985C142.188 117.949 155.713 151.136 183.503 182.112C211.293 213.087 242.824 230.121 253.93 220.157C265.036 210.192 251.511 177.004 223.721 146.029Z"/>
</mask>
<path d="M141.023 95.0091C158.198 79.6006 199.934 98.1117 234.245 136.355C268.555 174.598 282.447 218.092 265.272 233.5C248.097 248.909 206.36 230.398 172.049 192.155C137.739 153.911 123.848 110.418 141.023 95.0091ZM223.721 146.029C195.931 115.053 164.4 98.0206 153.294 107.985C142.188 117.949 155.713 151.136 183.503 182.112C211.293 213.087 242.824 230.121 253.93 220.157C265.036 210.192 251.511 177.004 223.721 146.029Z" fill="white"/>
<path d="M141.023 95.0091L140.435 94.3533L140.435 94.3533L141.023 95.0091ZM234.245 136.355L234.9 135.766V135.766L234.245 136.355ZM265.272 233.5L265.86 234.156L265.272 233.5ZM172.049 192.155L171.394 192.743L172.049 192.155ZM223.721 146.029L224.377 145.44V145.44L223.721 146.029ZM153.294 107.985L152.705 107.329L152.705 107.329L153.294 107.985ZM183.503 182.112L182.847 182.7L183.503 182.112ZM253.93 220.157L254.519 220.812H254.519L253.93 220.157ZM141.023 95.0091L141.611 95.6648C149.779 88.3369 164.036 88.91 180.851 96.3679C197.583 103.789 216.497 117.892 233.589 136.943L234.245 136.355L234.9 135.766C217.682 116.574 198.573 102.301 181.565 94.7573C164.641 87.2511 149.442 86.2728 140.435 94.3533L141.023 95.0091ZM234.245 136.355L233.589 136.943C250.681 155.994 262.657 176.322 268.226 193.759C273.823 211.282 272.852 225.517 264.684 232.845L265.272 233.5L265.86 234.156C274.867 226.075 275.537 210.859 269.904 193.222C264.244 175.499 252.119 154.959 234.9 135.766L234.245 136.355ZM265.272 233.5L264.684 232.845C256.516 240.172 242.259 239.599 225.444 232.142C208.712 224.721 189.797 210.617 172.705 191.566L172.049 192.155L171.394 192.743C188.612 211.935 207.721 226.209 224.729 233.752C241.654 241.258 256.854 242.237 265.86 234.156L265.272 233.5ZM172.049 192.155L172.705 191.566C155.613 172.515 143.637 152.187 138.069 134.751C132.472 117.228 133.443 102.993 141.611 95.6648L141.023 95.0091L140.435 94.3533C131.428 102.434 130.757 117.65 136.39 135.287C142.051 153.01 154.175 173.551 171.394 192.743L172.049 192.155ZM223.721 146.029L224.377 145.44C210.433 129.898 195.525 117.823 182.67 110.879C176.246 107.409 170.29 105.196 165.195 104.497C160.105 103.798 155.749 104.599 152.705 107.329L153.294 107.985L153.882 108.64C156.392 106.389 160.141 105.582 164.956 106.242C169.765 106.902 175.512 109.015 181.832 112.429C194.467 119.254 209.22 131.184 223.066 146.617L223.721 146.029ZM153.294 107.985L152.705 107.329C149.662 110.059 148.396 114.304 148.54 119.44C148.685 124.58 150.241 130.74 152.997 137.502C158.511 151.032 168.903 167.157 182.847 182.7L183.503 182.112L184.158 181.523C170.313 166.091 160.048 150.135 154.628 136.837C151.917 130.184 150.438 124.243 150.301 119.39C150.165 114.533 151.372 110.892 153.882 108.64L153.294 107.985ZM183.503 182.112L182.847 182.7C196.791 198.243 211.699 210.317 224.554 217.261C230.978 220.732 236.934 222.945 242.029 223.644C247.119 224.343 251.475 223.543 254.519 220.812L253.93 220.157L253.342 219.501C250.832 221.752 247.082 222.56 242.268 221.899C237.459 221.239 231.712 219.126 225.392 215.711C212.757 208.886 198.004 196.956 184.158 181.523L183.503 182.112ZM253.93 220.157L254.519 220.812C257.562 218.082 258.828 213.837 258.684 208.702C258.54 203.561 256.983 197.401 254.228 190.639C248.713 177.109 238.321 160.983 224.377 145.44L223.721 146.029L223.066 146.617C236.911 162.05 247.177 178.006 252.596 191.304C255.307 197.957 256.786 203.899 256.923 208.751C257.059 213.609 255.852 217.249 253.342 219.501L253.93 220.157Z" fill="#193049" mask="url(#path-61-inside-1_1973_7019)"/>
<defs>
<linearGradient id="paint0_linear_1973_7019" x1="156.929" y1="151.429" x2="156.929" y2="273" gradientUnits="userSpaceOnUse">
<stop stop-color="#90DAE9"/>
<stop offset="1" stop-color="#E5F6FA"/>
</linearGradient>
</defs>
</svg>
