<svg width="320" height="273" viewBox="0 0 320 273" fill="none" xmlns="http://www.w3.org/2000/svg">
<path d="M126.033 0.5C177.69 0.5 219.566 42.3762 219.566 94.0332C219.566 145.69 177.69 187.566 126.033 187.566C74.3762 187.566 32.5 145.69 32.5 94.0332C32.5001 42.3763 74.3763 0.500074 126.033 0.5Z" fill="#E6F6F7" stroke="#193049"/>
<mask id="mask0_1973_7133" style="mask-type:alpha" maskUnits="userSpaceOnUse" x="32" y="0" width="189" height="189">
<ellipse cx="126.033" cy="94.0333" rx="94.0333" ry="94.0333" fill="#D9D9D9"/>
</mask>
<g mask="url(#mask0_1973_7133)">
<line x1="48.1006" y1="19.0664" x2="48.1006" y2="169" stroke="#193049"/>
<line x1="79.3008" y1="0.866211" x2="79.3008" y2="187.2" stroke="#193049"/>
<line x1="110.5" y1="-6.93359" x2="110.5" y2="195" stroke="#193049"/>
<line x1="141.7" y1="-6.93359" x2="141.7" y2="195" stroke="#193049"/>
<line x1="172.9" y1="-6.93359" x2="172.9" y2="195" stroke="#193049"/>
<line x1="204.101" y1="-6.93359" x2="204.101" y2="195" stroke="#193049"/>
<line x1="201" y1="16.0996" x2="51.0667" y2="16.0996" stroke="#193049"/>
<line x1="219.2" y1="47.2998" x2="32.8669" y2="47.2998" stroke="#193049"/>
<line x1="227" y1="78.5" x2="25.0667" y2="78.5" stroke="#193049"/>
<line x1="227" y1="109.699" x2="25.0667" y2="109.699" stroke="#193049"/>
<line x1="227" y1="140.899" x2="25.0667" y2="140.899" stroke="#193049"/>
<line x1="227" y1="172.1" x2="25.0667" y2="172.1" stroke="#193049"/>
<path d="M134.268 47.1055H172.401V85.2388" stroke="#193049" stroke-width="10.4"/>
<path d="M50.7598 168.133L172.093 46.7995" stroke="#193049" stroke-width="10.4"/>
<path d="M100.775 138.413H138.909V176.546" stroke="#193049" stroke-width="10.4"/>
<path d="M17.2676 259.44L138.601 138.107" stroke="#193049" stroke-width="10.4"/>
<path d="M54.8418 63.8799H92.9751V102.013" stroke="#193049" stroke-width="10.4"/>
<path d="M-28.666 184.907L92.6673 63.5739" stroke="#193049" stroke-width="10.4"/>
</g>
<path d="M280.23 109.699C280.043 135.95 265.077 158.611 243.398 169.466L242.354 169.977C239.743 171.226 237.092 172.823 235.089 174.856C233.08 176.896 231.701 179.398 231.701 182.433C231.701 183.559 231.798 184.654 231.977 185.714L232.058 186.166C232.983 190.994 237.184 194.035 241.411 196.162L242.256 196.575C264.549 207.197 280.039 230.19 280.23 256.899H148.64C148.828 230.633 163.811 207.961 185.51 197.114L186.555 196.604C191 194.48 195.643 191.396 196.767 186.413L196.864 185.926C197.061 184.8 197.168 183.634 197.168 182.433C197.168 179.415 195.807 176.919 193.817 174.883C191.957 172.98 189.53 171.46 187.091 170.256L186.604 170.02C164.316 159.395 148.831 136.404 148.64 109.699H280.23Z" fill="white" stroke="#193049"/>
<path d="M271.564 109.699C271.301 142.952 244.785 166.766 214.867 166.766C183.48 166.765 157.577 141.027 157.304 109.699H271.564Z" fill="white" stroke="#193049"/>
<path d="M157.305 256.9C157.573 225.577 183.048 200.267 214.435 200.267C245.822 200.267 271.297 225.577 271.565 256.9H157.305Z" fill="#90DAE9" stroke="#193049"/>
<rect x="141.701" y="101.9" width="146.333" height="7.66667" fill="#90DAE9" stroke="#193049"/>
<rect x="0.5" y="-0.5" width="146.333" height="7.66667" transform="matrix(1 0 0 -1 140.334 264.199)" fill="#90DAE9" stroke="#193049"/>
<rect x="148.635" y="94.0996" width="131.6" height="7.66667" fill="#315780" stroke="#193049"/>
<rect x="0.5" y="-0.5" width="131.6" height="7.66667" transform="matrix(1 0 0 -1 148.135 272)" fill="#315780" stroke="#193049"/>
<path d="M269.36 116.527C270.069 116.542 270.628 116.568 271.01 116.59C271.034 116.591 271.057 116.592 271.079 116.594C268.265 142.183 246.437 166.765 214.506 166.765L213.769 166.761C198.342 166.564 185.696 160.195 176.551 151.944C168.857 145.004 163.669 136.755 161.381 129.773C162.219 130.939 163.38 132.253 164.98 133.563C169.677 137.409 178.093 141.187 193.013 141.187C203.86 141.187 212.596 138.214 220.996 134.163C225.19 132.14 229.309 129.844 233.557 127.52C237.277 125.483 241.101 123.422 245.185 121.485L246.951 120.663C252.658 118.061 258.816 117.049 263.562 116.691C265.932 116.513 267.943 116.498 269.36 116.527Z" fill="url(#paint0_linear_1973_7133)" stroke="#193049"/>
<path d="M223.965 180.267L220.933 175.5C220.933 175.5 219.01 182.732 214.867 185.033C210.724 187.335 203.597 186.333 203.597 186.333L205.767 190.667C205.767 190.667 209.668 193.397 216.716 189.488C223.968 185.467 223.965 180.267 223.965 180.267Z" fill="#01A8AB" stroke="#193049" stroke-width="0.866667"/>
<path d="M209.749 176.535C207.199 178.007 205.21 179.851 204.048 181.622C202.871 183.416 202.612 185.014 203.241 186.105C203.87 187.195 205.384 187.769 207.527 187.647C209.642 187.526 212.233 186.725 214.782 185.253C217.332 183.781 219.321 181.938 220.483 180.166C221.661 178.372 221.92 176.774 221.291 175.684C220.661 174.594 219.148 174.019 217.005 174.141C214.89 174.262 212.299 175.063 209.749 176.535Z" fill="#90DAE9" stroke="#193049" stroke-width="0.866667"/>
<path d="M210.726 177.963C208.709 179.127 207.105 180.524 206.136 181.824C205.651 182.474 205.338 183.084 205.201 183.613C205.065 184.14 205.11 184.557 205.293 184.873C205.475 185.189 205.814 185.436 206.338 185.582C206.865 185.728 207.549 185.761 208.355 185.667C209.965 185.478 211.977 184.787 213.993 183.623C216.01 182.458 217.615 181.061 218.584 179.761C219.069 179.11 219.382 178.501 219.519 177.972C219.655 177.445 219.61 177.028 219.427 176.712C219.245 176.396 218.906 176.149 218.382 176.003C217.855 175.857 217.171 175.823 216.365 175.918C214.755 176.107 212.742 176.799 210.726 177.963Z" fill="white" stroke="#193049" stroke-width="0.866667"/>
<path d="M212.29 234.806L217.402 232.401C217.402 232.401 210.471 229.579 208.712 225.178C206.952 220.777 208.847 213.834 208.847 213.834L204.274 215.439C204.274 215.439 201.073 218.964 204.059 226.449C207.131 234.152 212.29 234.806 212.29 234.806Z" fill="#01A8AB" stroke="#193049" stroke-width="0.866667"/>
<path d="M217.787 221.175C216.649 218.46 215.072 216.254 213.462 214.877C211.831 213.482 210.278 213.023 209.118 213.51C207.957 213.996 207.195 215.425 207.046 217.566C206.898 219.679 207.365 222.351 208.503 225.066C209.641 227.781 211.218 229.988 212.829 231.364C214.46 232.759 216.012 233.218 217.173 232.732C218.334 232.245 219.095 230.816 219.245 228.675C219.392 226.562 218.925 223.891 217.787 221.175Z" fill="#90DAE9" stroke="#193049" stroke-width="0.866667"/>
<path d="M216.249 221.963C215.349 219.816 214.166 218.048 212.999 216.923C212.415 216.359 211.85 215.972 211.342 215.769C210.837 215.568 210.418 215.559 210.081 215.7C209.744 215.842 209.456 216.146 209.246 216.648C209.034 217.152 208.914 217.826 208.906 218.638C208.89 220.259 209.322 222.342 210.222 224.489C211.122 226.637 212.305 228.406 213.472 229.531C214.056 230.095 214.621 230.482 215.128 230.685C215.633 230.886 216.053 230.894 216.39 230.753C216.726 230.612 217.014 230.307 217.225 229.806C217.437 229.302 217.556 228.628 217.564 227.816C217.58 226.195 217.149 224.111 216.249 221.963Z" fill="white" stroke="#193049" stroke-width="0.866667"/>
<rect x="184.455" y="222.398" width="17.1479" height="4.33333" transform="rotate(15 184.455 222.398)" fill="#01A8AB" stroke="#193049" stroke-width="0.866667"/>
<rect x="159.834" y="252.633" width="18.2" height="4.33333" fill="#01A8AB" stroke="#193049" stroke-width="0.866667"/>
<rect x="178.035" y="252.633" width="18.2" height="4.33333" fill="#01A8AB" stroke="#193049" stroke-width="0.866667"/>
<rect x="196.234" y="252.633" width="18.2" height="4.33333" fill="#01A8AB" stroke="#193049" stroke-width="0.866667"/>
<rect x="214.433" y="252.633" width="18.2" height="4.33333" fill="#01A8AB" stroke="#193049" stroke-width="0.866667"/>
<rect x="232.635" y="252.633" width="18.2" height="4.33333" fill="#01A8AB" stroke="#193049" stroke-width="0.866667"/>
<rect x="250.834" y="252.633" width="18.2" height="4.33333" fill="#01A8AB" stroke="#193049" stroke-width="0.866667"/>
<rect x="242.168" y="248.301" width="18.2" height="4.33333" fill="#01A8AB" stroke="#193049" stroke-width="0.866667"/>
<rect x="214.433" y="248.301" width="18.2" height="4.33333" fill="#01A8AB" stroke="#193049" stroke-width="0.866667"/>
<rect x="196.234" y="248.301" width="18.2" height="4.33333" fill="#01A8AB" stroke="#193049" stroke-width="0.866667"/>
<rect x="178.035" y="248.301" width="18.2" height="4.33333" fill="#01A8AB" stroke="#193049" stroke-width="0.866667"/>
<rect x="182.367" y="243.967" width="18.2" height="4.33333" fill="#01A8AB" stroke="#193049" stroke-width="0.866667"/>
<rect x="175.433" y="239.633" width="18.2" height="4.33333" fill="#01A8AB" stroke="#193049" stroke-width="0.866667"/>
<rect x="216.168" y="243.967" width="18.2" height="4.33333" fill="#01A8AB" stroke="#193049" stroke-width="0.866667"/>
<rect x="213.568" y="239.633" width="18.2" height="4.33333" fill="#01A8AB" stroke="#193049" stroke-width="0.866667"/>
<rect x="218.767" y="235.301" width="18.2" height="4.33333" fill="#01A8AB" stroke="#193049" stroke-width="0.866667"/>
<path d="M230.466 237.9L233.067 233.566C233.067 233.566 234.991 240.798 239.134 243.1C243.277 245.401 250.404 244.4 250.404 244.4L248.234 248.3C248.234 248.3 244.447 250.474 237.399 246.566C230.147 242.545 230.466 237.9 230.466 237.9Z" fill="#01A8AB" stroke="#193049" stroke-width="0.866667"/>
<path d="M244.252 234.604C246.802 236.076 248.791 237.919 249.953 239.69C251.13 241.485 251.389 243.083 250.76 244.173C250.131 245.263 248.617 245.837 246.474 245.715C244.359 245.594 241.768 244.793 239.219 243.321C236.669 241.849 234.68 240.006 233.518 238.235C232.34 236.44 232.081 234.842 232.71 233.752C233.34 232.662 234.853 232.087 236.996 232.21C239.111 232.33 241.702 233.131 244.252 234.604Z" fill="#90DAE9" stroke="#193049" stroke-width="0.866667"/>
<path d="M243.275 236.029C245.292 237.194 246.896 238.59 247.865 239.89C248.35 240.541 248.663 241.15 248.8 241.679C248.936 242.206 248.891 242.623 248.708 242.939C248.526 243.255 248.187 243.503 247.663 243.648C247.136 243.794 246.452 243.828 245.646 243.733C244.036 243.544 242.024 242.853 240.008 241.689C237.991 240.525 236.386 239.128 235.417 237.827C234.932 237.177 234.619 236.568 234.482 236.038C234.346 235.512 234.391 235.095 234.574 234.779C234.756 234.462 235.095 234.215 235.619 234.07C236.146 233.923 236.83 233.89 237.636 233.984C239.246 234.174 241.259 234.865 243.275 236.029Z" fill="white" stroke="#193049" stroke-width="0.866667"/>
<path d="M180.107 242.225L177.838 237.709C177.838 237.709 175.378 244.777 171.074 246.762C166.771 248.747 159.739 247.215 159.739 247.215L161.611 251.266C161.611 251.266 165.225 253.719 172.545 250.349C180.078 246.881 180.107 242.225 180.107 242.225Z" fill="#01A8AB" stroke="#193049" stroke-width="0.866667"/>
<path d="M166.606 237.906C163.953 239.183 161.832 240.872 160.541 242.552C159.232 244.253 158.854 245.827 159.4 246.961C159.946 248.095 161.413 248.782 163.559 248.82C165.677 248.858 168.32 248.253 170.973 246.976C173.626 245.699 175.747 244.009 177.039 242.33C178.347 240.629 178.725 239.054 178.179 237.92C177.633 236.786 176.167 236.1 174.021 236.062C171.903 236.024 169.259 236.629 166.606 237.906Z" fill="#90DAE9" stroke="#193049" stroke-width="0.866667"/>
<path d="M167.472 239.401C165.374 240.411 163.67 241.684 162.607 242.908C162.074 243.52 161.717 244.104 161.541 244.622C161.366 245.137 161.379 245.556 161.537 245.885C161.696 246.214 162.015 246.486 162.527 246.67C163.041 246.856 163.721 246.94 164.532 246.906C166.152 246.838 168.209 246.3 170.307 245.289C172.406 244.279 174.11 243.006 175.174 241.782C175.706 241.17 176.064 240.586 176.24 240.068C176.415 239.553 176.402 239.134 176.243 238.805C176.085 238.476 175.765 238.204 175.254 238.02C174.74 237.835 174.06 237.75 173.249 237.784C171.629 237.852 169.571 238.391 167.472 239.401Z" fill="white" stroke="#193049" stroke-width="0.866667"/>
<path d="M211.171 183.327L214.483 181.225L214.88 179.979L213.508 179.824L212.272 180.608L212.446 180.883L213.354 180.307L214.218 180.384L213.946 181.239L210.722 183.284L211.171 183.327Z" fill="#01A8AB"/>
<path d="M213.38 181.146L210.122 183.214L208.772 183.094L208.91 182.617L210.267 182.763L212.869 181.112L213.38 181.146Z" fill="#01A8AB"/>
<path d="M212.804 178.684L209.491 180.786L209.094 182.032L210.466 182.187L211.702 181.403L211.528 181.128L210.62 181.705L209.757 181.628L210.028 180.772L213.252 178.727L212.804 178.684Z" fill="#01A8AB"/>
<path d="M210.595 180.865L213.853 178.798L215.203 178.918L215.065 179.395L213.707 179.248L211.105 180.9L210.595 180.865Z" fill="#01A8AB"/>
<path d="M239.175 239.533L242.573 241.495L243.934 241.143L243.511 239.725L242.243 238.993L242.052 239.323L242.983 239.861L243.269 240.741L242.335 240.983L239.029 239.075L239.175 239.533Z" fill="#01A8AB"/>
<path d="M242.189 240.381L238.848 238.452L238.4 237.076L238.915 236.927L239.341 238.326L242.01 239.867L242.189 240.381Z" fill="#01A8AB"/>
<path d="M244.313 238.369L240.915 236.407L239.554 236.759L239.977 238.177L241.245 238.909L241.436 238.579L240.504 238.041L240.219 237.161L241.153 236.918L244.459 238.827L244.313 238.369Z" fill="#01A8AB"/>
<path d="M241.299 237.522L244.641 239.451L245.089 240.827L244.573 240.975L244.148 239.576L241.479 238.035L241.299 237.522Z" fill="#01A8AB"/>
<path d="M211.212 221.967L212.611 225.046L213.702 225.5L214.074 224.312L213.552 223.163L213.268 223.292L213.652 224.136L213.436 224.885L212.688 224.574L211.326 221.578L211.212 221.967Z" fill="#01A8AB"/>
<path d="M212.869 224.088L211.493 221.06L211.829 219.889L212.249 220.05L211.887 221.226L212.986 223.644L212.869 224.088Z" fill="#01A8AB"/>
<path d="M215.251 223.794L213.852 220.715L212.761 220.261L212.389 221.449L212.911 222.598L213.195 222.469L212.811 221.625L213.026 220.876L213.775 221.187L215.137 224.183L215.251 223.794Z" fill="#01A8AB"/>
<path d="M213.595 221.673L214.971 224.701L214.635 225.872L214.215 225.711L214.577 224.535L213.478 222.117L213.595 221.673Z" fill="#01A8AB"/>
<path d="M169.594 240.151L166.197 242.113L165.775 243.387L167.167 243.647L168.435 242.915L168.262 242.615L167.33 243.153L166.454 243.011L166.743 242.136L170.049 240.228L169.594 240.151Z" fill="#01A8AB"/>
<path d="M167.315 242.274L170.657 240.345L172.027 240.567L171.88 241.056L170.502 240.806L167.834 242.347L167.315 242.274Z" fill="#01A8AB"/>
<path d="M167.864 244.89L171.262 242.928L171.684 241.654L170.292 241.394L169.024 242.126L169.197 242.426L170.129 241.888L171.005 242.03L170.716 242.905L167.41 244.814L167.864 244.89Z" fill="#01A8AB"/>
<path d="M170.143 242.767L166.802 244.696L165.432 244.475L165.579 243.986L166.956 244.236L169.625 242.695L170.143 242.767Z" fill="#01A8AB"/>
<defs>
<linearGradient id="paint0_linear_1973_7133" x1="215.734" y1="116.016" x2="215.734" y2="167.265" gradientUnits="userSpaceOnUse">
<stop stop-color="#90DAE9"/>
<stop offset="1" stop-color="#E2F5FA"/>
</linearGradient>
</defs>
</svg>
