<svg width="161" height="89" viewBox="0 0 161 89" fill="none" xmlns="http://www.w3.org/2000/svg">
<g clip-path="url(#clip0_1973_7808)">
<path d="M32.2621 44.9911C33.4929 43.6783 34.7286 42.3401 35.8268 40.9076C34.6461 39.4244 33.2427 38.109 31.8393 36.8496C30.456 38.0149 29.1301 39.2513 27.8193 40.5006C29.3578 41.9381 30.8037 43.4697 32.2621 44.9911Z" fill="white"/>
<path d="M35.8262 49.095C36.2364 49.6166 36.6967 50.161 37.0644 50.7462C38.0751 49.0747 38.6579 47.1054 38.6579 44.9988C38.6579 42.8922 38.0751 40.928 37.0669 39.2539C36.6992 39.8391 36.2389 40.3836 35.8287 40.9051C36.8768 42.1849 37.7824 43.5155 38.6404 44.9301C37.945 46.4617 36.8843 47.8025 35.8262 49.0925V49.095Z" fill="white"/>
<path d="M27.8191 40.5008C26.4933 39.2795 25.205 38.0227 23.8291 36.8574C22.4033 38.1118 21.0875 39.4678 19.8467 40.9104C20.9849 42.3174 22.1656 43.6862 23.4214 44.9863C24.8823 43.4877 26.2957 41.9306 27.8191 40.5008Z" fill="white"/>
<path d="M27.8411 34C27.7885 34 27.7385 34.0025 27.6885 34.0051C29.2344 34.6462 30.5728 35.7682 31.8386 36.8495C32.3238 36.4374 32.8492 35.9489 33.4145 35.5723C31.7885 34.575 29.8798 34 27.8411 34Z" fill="white"/>
<path d="M27.6694 55.9923C26.2961 55.1756 25.0328 54.1885 23.8271 53.1377C23.3343 53.5524 22.8089 54.0333 22.2461 54.4098C23.8321 55.3868 25.6882 55.9593 27.6694 55.9923Z" fill="white"/>
<path d="M22.2486 35.5849C22.8139 35.9614 23.3368 36.4448 23.8296 36.8595C25.0353 35.8062 26.3011 34.8216 27.6719 34.0049C25.6882 34.0354 23.8346 34.6079 22.2461 35.5849H22.2486Z" fill="white"/>
<path d="M17.0323 44.9248C17.7703 43.5025 18.7884 42.1032 19.8466 40.91C19.4338 40.4037 18.9735 39.8541 18.6058 39.2715C17.6052 40.9405 17.0273 42.9021 17.0273 44.9986C17.0273 47.095 17.6052 49.0541 18.6058 50.7205C18.9735 50.1379 19.4338 49.5884 19.8466 49.0846C19.779 49.0057 19.7115 48.9294 19.644 48.8505C18.6834 47.6878 17.5902 46.347 17.0323 44.9248Z" fill="white"/>
<path d="M23.4214 44.9863C22.1931 46.3221 20.9899 47.6731 19.8467 49.0851C21.085 50.5277 22.4033 51.8837 23.8267 53.1381C25.2025 51.9728 26.4933 50.7185 27.8191 49.4973C26.2932 48.0674 24.8298 46.5358 23.4214 44.9863Z" fill="white"/>
<path d="M31.8362 53.1504C30.5679 54.2317 29.2296 55.3511 27.6836 55.9948C27.7361 55.9948 27.7887 55.9999 27.8412 55.9999C29.8799 55.9999 31.7861 55.4249 33.4121 54.4301C32.8468 54.0536 32.3214 53.5651 31.8362 53.1529V53.1504Z" fill="white"/>
<path d="M35.8263 49.0951C34.7231 47.655 33.4698 46.3371 32.2641 44.9912C30.8532 46.5559 29.3572 48.0621 27.8213 49.4971C29.1321 50.7463 30.4554 51.9853 31.8388 53.1506C33.2422 51.8912 34.6455 50.5784 35.8263 49.0951Z" fill="white"/>
<path d="M61.3622 53.5376L50.5232 40.3534H50.3028V51.9271L52.3867 53.0084H47.7188L49.8026 51.9271V39.4986L48.3193 38.0509L50.6432 37.8066L60.6194 49.9121H60.8595V39.1093L58.7757 38.0305H63.4436L61.3597 39.1093V53.5376H61.3622Z" fill="white"/>
<path d="M63.8867 48.0341C63.8867 44.775 65.8906 42.4902 68.5747 42.4902C70.8386 42.4902 72.382 44.06 72.382 46.3829V46.5254H65.5504C65.5304 46.8307 65.5104 47.136 65.5104 47.4617C65.5104 50.1713 66.9337 52.0871 69.1776 52.0871C70.8411 52.0871 72.0418 51.0897 72.6248 49.1739C72.1243 51.7614 70.641 53.2498 68.5971 53.2498C65.833 53.2498 63.8894 51.1915 63.8894 48.0341H63.8867ZM70.078 46.1997C70.5185 46.1997 70.7186 45.9555 70.7186 45.4873C70.7186 44.1618 69.7755 42.7981 68.5747 42.7981C67.0913 42.7981 65.9506 44.1643 65.5904 46.2023H70.078V46.1997Z" fill="white"/>
<path d="M73.9854 47.7903C73.9854 44.8568 76.2893 42.4932 79.0535 42.4932C81.8179 42.4932 84.1019 44.8568 84.1019 47.7903C84.1019 50.7238 81.8179 53.2502 79.0535 53.2502C76.2893 53.2502 73.9854 50.7848 73.9854 47.7903ZM82.3606 47.7903C82.3606 44.7143 81.0998 42.8188 79.0562 42.8188C77.0123 42.8188 75.7315 44.6939 75.7315 47.7903C75.7315 50.8866 76.9923 52.9245 79.0562 52.9245C81.1198 52.9245 82.3606 50.9884 82.3606 47.7903Z" fill="white"/>
<path d="M85.8271 48.0138C85.8271 44.7546 87.851 42.4902 90.6152 42.4902C92.579 42.4902 94.1223 43.5283 94.1223 44.5892C94.1223 45.0777 93.8222 45.4237 93.402 45.4237C92.0785 45.4237 92.4413 42.7955 90.6176 42.7955C88.7941 42.7955 87.4533 44.7521 87.4533 47.421C87.4533 50.0899 88.8766 52.026 91.1205 52.026C92.7839 52.026 93.9847 51.0897 94.5677 49.1739C94.0674 51.7614 92.5838 53.2498 90.5403 53.2498C87.7758 53.2498 85.8323 51.2119 85.8323 48.0138H85.8271Z" fill="white"/>
<path d="M96.7065 52.191V38.3961L95.1631 38.0094L98.2874 36.46V52.191L99.7507 53.0051H95.2631L96.7065 52.191Z" fill="white"/>
<path d="M100.694 51.1124C100.694 49.0949 104.322 47.7693 107.126 46.6295V45.6525C107.126 44.2252 106.143 43.1261 104.742 43.1261C104.242 43.1261 103.799 43.2482 103.318 43.5332C102.158 44.2455 102.698 46.5684 101.435 46.5684C100.954 46.5684 100.654 46.2021 100.654 45.6932C100.654 44.2048 104.242 42.4951 105.682 42.4951C107.446 42.4951 108.667 43.7392 108.667 45.5711V51.7663L110.15 51.9699L107.126 53.2547V50.7079C105.923 52.0538 104.562 53.2547 103.038 53.2547C101.675 53.2547 100.694 52.4202 100.694 51.115V51.1124ZM107.126 50.2779V46.9348C104.562 47.9957 102.278 49.0541 102.278 50.685C102.278 51.662 103.018 52.2955 104.001 52.2955C105.125 52.2955 106.145 51.3592 107.128 50.2779H107.126Z" fill="white"/>
<path d="M111.673 52.6826V52.3366L111.133 49.0774C111.753 50.7694 113.197 52.9091 115.341 52.9091C116.584 52.9091 117.484 52.0542 117.484 50.8304C117.484 47.9987 111.553 49.0978 111.553 45.4316C111.553 43.76 112.977 42.498 115.06 42.498C116.061 42.498 117.224 42.7627 117.945 43.129V43.4954L118.345 46.1846C117.444 44.3503 116.361 42.8212 114.678 42.8212C113.474 42.8212 112.594 43.615 112.594 44.6963C112.594 47.5484 118.545 46.3271 118.545 50.2198C118.545 51.9728 117.202 53.2551 114.998 53.2551C113.957 53.2551 112.614 53.0515 111.673 52.6852V52.6826Z" fill="white"/>
<path d="M120.669 52.6826V52.3366L120.129 49.0774C120.749 50.7694 122.192 52.9091 124.336 52.9091C125.577 52.9091 126.48 52.0542 126.48 50.8304C126.48 47.9987 120.549 49.0978 120.549 45.4316C120.549 43.76 121.972 42.498 124.056 42.498C125.057 42.498 126.22 42.7627 126.94 43.129V43.4954L127.341 46.1846C126.438 44.3503 125.357 42.8212 123.673 42.8212C122.473 42.8212 121.59 43.615 121.59 44.6963C121.59 47.5484 127.541 46.3271 127.541 50.2198C127.541 51.9728 126.197 53.2551 123.994 53.2551C122.951 53.2551 121.61 53.0515 120.667 52.6852L120.669 52.6826Z" fill="white"/>
<path d="M130.327 52.1916V44.4266L128.764 44.0195L131.888 42.4904V52.1891L133.412 53.0032H128.884L130.327 52.1891V52.1916ZM130.875 40.5314L129.662 39.2974L130.875 38.0635L132.088 39.2974L130.875 40.5314Z" fill="white"/>
<path d="M134.232 48.0138C134.232 44.7546 136.256 42.4902 139.02 42.4902C140.984 42.4902 142.528 43.5283 142.528 44.5892C142.528 45.0777 142.227 45.4237 141.807 45.4237C140.484 45.4237 140.846 42.7955 139.023 42.7955C137.199 42.7955 135.858 44.7521 135.858 47.421C135.858 50.0899 137.282 52.026 139.525 52.026C141.189 52.026 142.39 51.0897 142.973 49.1739C142.472 51.7614 140.989 53.2498 138.945 53.2498C136.181 53.2498 134.237 51.2119 134.237 48.0138H134.232Z" fill="white"/>
</g>
<defs>
<clipPath id="clip0_1973_7808">
<rect width="126" height="22" fill="white" transform="translate(17 34)"/>
</clipPath>
</defs>
</svg>
