<svg width="160" height="89" viewBox="0 0 160 89" fill="none" xmlns="http://www.w3.org/2000/svg">
<g clip-path="url(#clip0_2033_5734)">
<path d="M53.6905 35.9209V53.9022H50.0215V35.9209H53.6905Z" fill="white"/>
<path d="M68.6318 41.7689V53.9229C68.6318 57.6898 65.6914 59.9999 62.1005 59.9999C58.6346 59.9999 56.0481 57.8407 55.7983 54.8022L59.4412 54.8282C59.5921 56.1081 60.7214 56.6857 62.2306 56.6857C63.6358 56.6857 64.968 55.9313 64.968 53.9489V52.4193C64.0365 53.0228 62.8343 53.3714 61.5021 53.3714C58.161 53.3714 55.4756 50.6607 55.4756 47.5442C55.4756 43.9281 58.161 41.4932 61.5021 41.4932C62.8343 41.4932 64.0365 41.847 64.968 42.4453V41.7949L68.6318 41.7689ZM64.968 48.9281V45.9625C64.2134 44.8803 63.183 44.5057 62.1526 44.5057C60.3415 44.5057 59.1134 45.7127 59.1134 47.5442C59.1134 48.9021 60.3676 50.3589 62.1526 50.3589C63.183 50.3849 64.2395 50.0051 64.968 48.9281Z" fill="white"/>
<path d="M83.25 47.6954C83.25 51.4363 80.4866 54.1002 76.7708 54.1002C73.029 54.1002 70.2656 51.4363 70.2656 47.6954C70.2656 43.9806 73.029 41.2646 76.7708 41.2646C80.4918 41.2699 83.25 43.9806 83.25 47.6954ZM79.7112 47.6954C79.7112 45.9369 78.5558 44.5061 76.7708 44.5061C74.9598 44.5061 73.8044 45.9369 73.8044 47.6954C73.8044 49.5009 74.9598 50.8588 76.7708 50.8588C78.5558 50.838 79.7112 49.5061 79.7112 47.6954Z" fill="white"/>
<path d="M106.007 41.7953V53.8712L102.416 53.8973V53.2209C101.485 53.8244 100.283 54.199 98.9502 54.199C95.6092 54.199 92.9238 51.3634 92.9238 47.8723C92.9238 44.3551 95.6092 41.5195 98.9502 41.5195C100.283 41.5195 101.485 41.8941 102.416 42.4977V41.8213L106.007 41.7953ZM102.39 49.7037V46.0149C101.636 44.9326 100.579 44.6361 99.5279 44.6361C97.696 44.6361 96.4158 46.1189 96.4158 47.8775C96.4158 49.6101 97.696 51.0929 99.5279 51.0929C100.584 51.0877 101.636 50.7859 102.39 49.7037Z" fill="white"/>
<path d="M120.778 47.3468V53.9025H117.234V47.7734C117.234 45.7911 116.255 44.7609 114.496 44.7609C113.591 44.7609 112.56 45.2864 111.707 46.2906V53.8973H108.09V41.8213H111.707V42.7266C112.685 41.9462 113.84 41.5195 115.199 41.5195C118.415 41.5195 120.778 43.7776 120.778 47.3468Z" fill="white"/>
<path d="M48.3403 53.8762H44.6245L42.1838 44.8595L36.9588 53.8762H32.7902L40.8515 39.9168L39.5452 35.0468L28.6685 53.8814H24.5L38.291 30H41.96L43.542 35.9521H47.3099L44.7494 40.4214L48.3403 53.8762Z" fill="white"/>
<path d="M135.37 35.9209V53.9022H131.701V53.2258C130.769 53.8293 129.567 54.2039 128.235 54.2039C124.894 54.2039 122.208 51.3683 122.208 47.8512C122.208 44.36 124.894 41.5244 128.235 41.5244C129.567 41.5244 130.769 41.899 131.701 42.5026V35.9209H135.37ZM131.706 49.7034V45.9885C130.951 44.9063 129.874 44.6098 128.818 44.6098C126.96 44.6098 125.679 46.0926 125.679 47.8512C125.679 49.6358 126.96 51.1134 128.818 51.1134C129.869 51.1134 130.925 50.8116 131.706 49.7034Z" fill="white"/>
<path d="M92.2431 44.8591C91.4417 44.9579 89.5786 45.062 88.4753 46.5656V53.8965H84.8584V41.8466H88.4753V42.7519C89.3028 42.0495 90.5362 41.6229 92.2431 41.7998V44.8591Z" fill="white"/>
</g>
<defs>
<clipPath id="clip0_2033_5734">
<rect width="111" height="31" fill="white" transform="translate(24.5 29.5)"/>
</clipPath>
</defs>
</svg>
