<svg width="160" height="89" viewBox="0 0 160 89" fill="none" xmlns="http://www.w3.org/2000/svg">
<g clip-path="url(#clip0_2033_5732)">
<path d="M85.3026 37.9751V42.6105H85.3431C86.0909 41.6039 87.1586 41.1003 88.5463 41.1003C89.1654 41.1003 89.7514 41.2039 90.3028 41.4107C90.8546 41.6174 91.3451 41.9291 91.7734 42.3463C92.2008 42.7631 92.5359 43.2839 92.7775 43.9092C93.02 44.5341 93.1403 45.256 93.1403 46.0745C93.1403 46.9971 92.9753 47.8544 92.6433 48.6463C92.3114 49.4387 91.7951 50.0729 91.0948 50.5503C90.394 51.0273 89.5246 51.2667 88.4859 51.2667C86.9862 51.2667 85.9185 50.7771 85.2818 49.799H85.2417V51.0133H82.3936V37.9751H85.3026ZM74.3745 40.8281C79.909 40.8281 79.4355 46.9181 79.4355 46.9181H71.8592C72.1658 48.1301 73.1841 48.9267 74.5875 48.9267C76.278 48.9267 77.189 47.8804 77.189 47.8804L78.7975 49.5641C77.9695 50.4065 76.8575 51.176 74.563 51.176C71.0151 51.176 69.123 48.7703 69.123 46.2205C69.123 43.6706 70.5425 40.8281 74.3745 40.8281ZM143.289 40.8237C145.67 40.8237 147.184 41.7538 147.184 41.7538L146.206 43.9028C143.037 42.219 141.602 43.4058 141.602 43.9989C141.602 44.5925 142.169 44.6406 144.377 45.0578C146.585 45.475 147.61 46.4204 147.61 47.9441C147.61 49.4678 146.332 51.152 143.21 51.152C140.087 51.152 138.669 50.1253 138.669 50.1253L139.615 47.9922C142.059 49.5802 144.834 49.0664 144.834 48.121C144.834 47.4112 143.912 47.2607 142.918 47.1419L142.491 47.0914C142.301 47.0684 142.113 47.0438 141.933 47.014C140.672 46.8054 138.795 46.1162 138.795 44.1272C138.795 42.1388 140.909 40.8237 143.289 40.8237ZM129.348 37.2958V45.1703L133.488 41.0963H136.87L132.768 45.1339L137.272 51.1521H133.913L130.833 47.0379L129.348 48.4991V51.1521H126.581V37.2958H129.348ZM119.43 40.7599C121.393 40.7599 123.111 41.7609 124.062 43.2613L121.722 44.6706C121.284 43.8175 120.421 43.2375 119.43 43.2375C117.993 43.2375 116.828 44.4545 116.828 45.9558C116.828 47.4566 117.993 48.6741 119.43 48.6741C120.375 48.6741 121.201 48.1454 121.656 47.3567L124.006 48.7334C123.046 50.1866 121.356 51.1521 119.43 51.1521C116.438 51.1521 114.013 48.8253 114.013 45.9558C114.013 43.0858 116.438 40.7599 119.43 40.7599ZM106.569 40.7595C109.559 40.7595 111.985 43.0863 111.985 45.9553C111.985 48.8253 109.559 51.1517 106.569 51.1517C103.576 51.1517 101.152 48.8253 101.152 45.9553C101.152 43.0863 103.576 40.7595 106.569 40.7595ZM57.3892 41.0483V51.056H54.3852V41.0483H57.3892ZM51.6877 38.0172V40.519H44.9703V43.8388H50.9068V46.3168H44.9703V51.0558H41.9658V38.0172H51.6877ZM63.8002 42.2989C63.8002 42.2989 64.8647 40.5909 67.0642 40.856V43.6462C67.0642 43.6462 64.6752 43.0209 63.8002 45.5469V51.0555H60.9382V41.0483H63.6743L63.8002 42.2271V42.2989ZM98.2888 37.2473V50.9832H95.2613V37.2473H98.2888ZM87.6713 43.2993C86.0112 43.2993 85.1809 44.3343 85.1809 46.4054C85.1809 47.1903 85.3948 47.8488 85.8221 48.3808C86.25 48.9123 86.8945 49.1783 87.757 49.1783C88.3319 49.1783 88.7985 49.0248 89.1571 48.7177C89.5153 48.4102 89.7694 48.0345 89.9197 47.5898C90.0704 47.1455 90.1455 46.7017 90.1455 46.2589C90.1455 45.4077 89.9487 44.7025 89.555 44.1411C89.1613 43.5797 88.5329 43.2993 87.6713 43.2993ZM106.569 43.2375C105.131 43.2375 103.966 44.4541 103.966 45.9553C103.966 47.4571 105.131 48.6741 106.569 48.6741C108.005 48.6741 109.17 47.4571 109.17 45.9553C109.17 44.4541 108.005 43.2375 106.569 43.2375ZM74.4215 43.0089C72.9578 43.0089 72.1441 43.9333 71.8693 45.1378H76.775C76.751 44.8247 76.2665 43.0089 74.4215 43.0089ZM55.8872 36.333C56.8618 36.333 57.6529 37.0764 57.6529 37.9929C57.6529 38.9095 56.8618 39.6529 55.8872 39.6529C54.9122 39.6529 54.1211 38.9095 54.1211 37.9929C54.1211 37.0764 54.9122 36.333 55.8872 36.333Z" fill="white"/>
<path d="M31.9265 34C32.379 34 32.7458 34.3761 32.7458 34.84V54.16C32.7458 54.6239 32.379 55 31.9265 55H12.8193C12.3668 55 12 54.6239 12 54.16V34.84C12 34.3761 12.3668 34 12.8193 34H31.9265ZM22.3728 39.8333L16.6101 49.1667H28.1355L22.3728 39.8333Z" fill="white"/>
</g>
<defs>
<clipPath id="clip0_2033_5732">
<rect width="136" height="21" fill="white" transform="translate(12 34)"/>
</clipPath>
</defs>
</svg>
