<svg width="160" height="89" viewBox="0 0 160 89" fill="none" xmlns="http://www.w3.org/2000/svg">
<path d="M79.5096 36.8066L81.702 39.4398L83.8944 36.8066H85.0544V43.4766H83.7697V38.796H83.732L81.8006 41.145H81.6208L79.6894 38.796H79.6517V43.4824H78.3467V36.8124L79.5096 36.8066Z" fill="white"/>
<path d="M88.2885 36.8066V43.4766H86.998V36.8066H88.2885Z" fill="white"/>
<path d="M91.812 36.8066V42.4703H95.0513V43.4795H90.5215V36.8095L91.812 36.8066Z" fill="white"/>
<path d="M97.9567 36.8066V39.8893H97.9857L100.433 36.8066H101.901L99.4299 39.9502L102.649 43.4824H100.996L97.9712 40.2054V43.4824H96.6836V36.8124L97.9567 36.8066Z" fill="white"/>
<path d="M108.371 36.8066V37.8303H105.346V39.5703H108.246V40.5766H105.346V42.4703H108.438V43.4795H104.07V36.8095L108.371 36.8066Z" fill="white"/>
<path d="M111.509 36.8066L115.473 41.4669V36.8066H116.735V43.4766H115.627L111.637 38.7467V43.4824H110.375V36.8124L111.509 36.8066Z" fill="white"/>
<path d="M79.6665 46.2168V52.8868H78.376V46.2168H79.6665Z" fill="white"/>
<path d="M83.0333 46.2168L86.9976 50.88V46.2168H88.2591V52.8868H87.1513L83.1609 48.154V52.8897H81.8994V46.2197L83.0333 46.2168Z" fill="white"/>
<path d="M92.3946 46.1298C93.052 46.1317 93.6983 46.2993 94.2738 46.617V47.777C93.7272 47.4075 93.091 47.1921 92.4323 47.1535C92.1658 47.1373 91.9006 47.2031 91.6725 47.342C91.5871 47.3947 91.5169 47.4686 91.4686 47.5565C91.4203 47.6444 91.3956 47.7434 91.397 47.8437C91.397 48.096 91.5681 48.328 91.9074 48.5426C92.0031 48.6064 92.3714 48.7833 93.0123 49.0762C93.4699 49.2686 93.8754 49.5668 94.1955 49.9462C94.442 50.2729 94.5699 50.6739 94.558 51.083C94.5669 51.3462 94.5159 51.608 94.4089 51.8486C94.3019 52.0892 94.1417 52.3024 93.9403 52.4721C93.4879 52.8375 92.9176 53.0252 92.3366 52.9999C91.9652 53.0077 91.5947 52.9598 91.2375 52.8578C90.8742 52.7387 90.5265 52.5761 90.2022 52.3735V51.1033C90.9156 51.6949 91.5875 51.9907 92.2177 51.9907C92.4883 52.0045 92.7562 51.9324 92.9833 51.7848C93.0741 51.7261 93.1483 51.6452 93.1991 51.5498C93.2498 51.4544 93.2754 51.3476 93.2733 51.2396C93.2667 51.0797 93.2161 50.9247 93.1271 50.7916C93.0381 50.6586 92.9141 50.5527 92.7687 50.4856C92.4787 50.3319 92.1249 50.1492 91.6841 49.9375C91.2327 49.7519 90.8299 49.4652 90.5067 49.0994C90.248 48.7888 90.1091 48.3958 90.1152 47.9916C90.1064 47.7347 90.1585 47.4793 90.2674 47.2464C90.3763 47.0135 90.5388 46.8098 90.7416 46.6518C91.2155 46.2916 91.7998 46.1071 92.3946 46.1298Z" fill="white"/>
<path d="M101.713 46.2168V47.2231H99.3434V52.8897H98.0529V47.2231H95.6836V46.2168H101.713Z" fill="white"/>
<path d="M104.569 46.2168V52.8868H103.278V46.2168H104.569Z" fill="white"/>
<path d="M112.164 46.2168V47.2231H109.795V52.8897H108.504V47.2231H106.135V46.2168H112.164Z" fill="white"/>
<path d="M114.669 46.2168V50.0999C114.656 50.4248 114.712 50.7489 114.832 51.0511C114.949 51.2926 115.135 51.4943 115.365 51.6311C115.627 51.7895 115.929 51.8691 116.235 51.8602C116.555 51.8699 116.871 51.7948 117.152 51.6427C117.391 51.5109 117.583 51.3083 117.703 51.0627C117.833 50.7317 117.892 50.377 117.877 50.0216V46.2168H119.051V50.1811C119.051 51.0801 118.806 51.7703 118.315 52.2517C117.824 52.7331 117.131 52.9748 116.235 52.9767C115.727 52.9892 115.224 52.8756 114.771 52.6461C114.365 52.4331 114.035 52.0999 113.825 51.692C113.602 51.242 113.49 50.7445 113.501 50.242V46.2168H114.669Z" fill="white"/>
<path d="M126.4 46.2168V47.2231H124.031V52.8897H122.74V47.2231H120.371V46.2168H126.4Z" fill="white"/>
<path d="M132.263 46.2167V47.223H129.239V48.963H132.139V49.9693H129.239V51.8659H132.33V52.8751H127.948V46.2051L132.263 46.2167Z" fill="white"/>
<path d="M49.8716 67.4336C62.3851 67.4336 72.5293 57.2894 72.5293 44.7759C72.5293 32.2624 62.3851 22.1182 49.8716 22.1182C37.3581 22.1182 27.2139 32.2624 27.2139 44.7759C27.2139 57.2894 37.3581 67.4336 49.8716 67.4336Z" fill="white"/>
<path d="M53.0849 36.8789V38.5725H56.1444V36.876H53.082V36.8789H53.0849Z" fill="#1E3854"/>
<path d="M43.5764 38.5725H46.6359V36.876H41.8828V36.8789H43.5764V38.5725Z" fill="#1E3854"/>
<path d="M48.3349 38.5725H51.3857V36.876H48.332V36.8789H48.3349V38.5725Z" fill="#1E3854"/>
<path d="M65.9463 36.876H57.8379V38.5696H65.9463V36.876Z" fill="#1E3854"/>
<path d="M51.3858 43.3252H48.335V43.3281H51.3858V43.3252Z" fill="#1E3854"/>
<path d="M46.6357 43.3252H43.5762V43.3281H46.6357V43.3252Z" fill="#1E3854"/>
<path d="M68.9391 41.6348H57.8379V43.3284H68.9391V41.6348Z" fill="#1E3854"/>
<path d="M56.1445 43.3252H53.085V43.3281H56.1445V43.3252Z" fill="#1E3854"/>
<path d="M56.1445 48.0762H53.085V48.0791H56.1445V48.0762Z" fill="#1E3854"/>
<path d="M57.8379 48.0784H72.2944C72.3756 47.5216 72.4346 46.957 72.4713 46.3848H57.8379V48.0784Z" fill="#1E3854"/>
<path d="M51.3858 48.0762H48.335V48.0791H51.3858V48.0762Z" fill="#1E3854"/>
<path d="M46.6357 48.0762H43.5762V48.0791H46.6357V48.0762Z" fill="#1E3854"/>
<path d="M43.5764 52.835H41.8828V60.9463H43.5764V52.835Z" fill="#1E3854"/>
<path d="M43.5764 48.0791V48.0762H41.8828V48.0791V51.1386H43.5764V48.0791Z" fill="#1E3854"/>
<path d="M43.5764 43.3281V43.3252H41.8828V43.3281V46.3818H43.5764V43.3281Z" fill="#1E3854"/>
<path d="M43.5764 36.8789H41.8828V38.5725V41.632H43.5764V38.5725V36.8789Z" fill="#1E3854"/>
<path d="M46.6387 52.835V63.9391H48.3352V52.835H48.3323H46.6387Z" fill="#1E3854"/>
<path d="M48.332 46.3818H48.3349V43.3281V43.3252H48.332V46.3818Z" fill="#1E3854"/>
<path d="M48.3349 36.8789H48.332V41.632H48.3349V38.5725V36.8789Z" fill="#1E3854"/>
<path d="M48.3349 48.0762H48.332V51.1386H48.3349V48.0791V48.0762Z" fill="#1E3854"/>
<path d="M53.0823 52.835H51.3887V67.3843C51.9687 67.3475 52.5342 67.2895 53.0852 67.2103V52.835H53.0823Z" fill="#1E3854"/>
<path d="M53.082 46.3818H53.0849V43.3281V43.3252H53.082V46.3818Z" fill="#1E3854"/>
<path d="M53.0849 36.8789H53.082V41.632H53.0849V38.5725V36.8789Z" fill="#1E3854"/>
<path d="M53.0849 48.0762H53.082V51.1386H53.0849V48.0791V48.0762Z" fill="#1E3854"/>
<path d="M57.8381 43.3285V41.6349V38.5725V36.876V28.7676H56.1445V36.876V38.5725V41.632H57.8381V43.3256H56.1445V43.3285V46.3822H57.8381V48.0758H56.1445V48.0787V51.1382H57.8381V52.8347V48.0787V46.3851V43.3285Z" fill="#1E3854"/>
<path d="M51.3857 46.3818H53.0822V43.3252H51.3857V43.3281V46.3818Z" fill="#1E3854"/>
<path d="M53.0822 36.8785V36.8756V25.7744H51.3857V36.8756V38.5721V41.6316H53.0822V36.8785Z" fill="#1E3854"/>
<path d="M53.0822 48.0762H51.3857V48.0791V51.1386H53.0822V48.0762Z" fill="#1E3854"/>
<path d="M46.6357 46.3818H48.3322V43.3252H46.6357V43.3281V46.3818Z" fill="#1E3854"/>
<path d="M46.6502 38.5723V41.6318H48.3322V36.8787V22.1699C47.7522 22.2086 47.1867 22.2676 46.6357 22.3468V38.5868L46.6502 38.5723Z" fill="#1E3854"/>
<path d="M48.3322 48.0762H46.6357V48.0791V51.1386H48.3322V48.0762Z" fill="#1E3854"/>
<path d="M56.145 51.1377H53.0855H53.0826H51.3861H48.3353H48.3324H46.6359H43.5764H41.8828H33.7715V52.8342H41.8828H43.5764H46.6359H46.6388H48.3324H48.3353H51.3861H51.389H53.0826H53.0855H56.145H57.8386V51.1377H56.145Z" fill="#1E3854"/>
<path d="M46.6355 48.0754H48.332H48.3349H51.3857H53.0822H53.0851H56.1446H57.8382V46.3818H56.1446H53.0851H53.0822H51.3857H48.3349H48.332H46.6355H43.576H41.8824H30.7783V48.0754H41.8824H43.576H46.6355Z" fill="#1E3854"/>
<path d="M43.5761 43.3399H57.8383V41.6318H27.4289C27.3496 42.1906 27.2926 42.7599 27.2578 43.3399H43.5761Z" fill="#1E3854"/>
</svg>
