<svg width="140" height="87" viewBox="0 0 140 87" fill="none" xmlns="http://www.w3.org/2000/svg">
<path d="M46.4822 49.1222V37.1909L44.3842 36.4665L44.574 35.5664H49.6404C50.5257 35.5664 51.266 35.5847 51.861 35.6213C52.4562 35.6579 53.0478 35.753 53.6354 35.9067C54.2306 36.053 54.7588 36.2835 55.22 36.5982C55.7335 36.9494 56.1352 37.4214 56.4253 38.0141C56.7229 38.5996 56.8718 39.2801 56.8718 40.0557C56.8718 40.7509 56.7229 41.3802 56.4253 41.9437C56.1278 42.4998 55.7112 42.9644 55.1755 43.3377C54.6101 43.7328 53.9256 44.0219 53.1221 44.2049C52.3261 44.3805 51.5412 44.4683 50.7675 44.4683L50.9013 43.7438C51.69 43.3779 52.2889 43.045 52.698 42.745C53.1146 42.4377 53.4197 42.0717 53.6131 41.6473C53.8066 41.2229 53.9033 40.6668 53.9033 39.9789C53.9033 38.7569 53.483 37.8678 52.6422 37.3117C51.8089 36.7555 50.7229 36.4701 49.3837 36.4555V49.1332L52.0731 49.8577L51.8945 50.7577H44.2949L44.4958 49.8248L46.4822 49.1222ZM81.7498 49.8027L81.5265 50.7577H74.418L74.5854 49.8248L76.5941 49.1222V37.1909L74.5073 36.4555L74.697 35.5664H81.6828L81.4819 36.5543L79.4509 37.2568V42.3498H86.0796V37.2238L83.9259 36.4994L84.1378 35.5664H91.1236L90.9563 36.4774L88.9365 37.2019V49.1332L91.0456 49.8686L90.8335 50.7577H83.725L83.9147 49.7918L86.0796 49.0894V43.8097C83.7361 43.9267 81.5265 44.0109 79.4509 44.0622V49.0784L81.7498 49.8027ZM111.002 49.1222V37.1909L108.915 36.4665L109.105 35.5664H114.216C115.57 35.5664 116.783 35.6506 117.854 35.8189C118.933 35.9799 119.867 36.3055 120.655 36.7958C121.727 37.469 122.504 38.3398 122.988 39.4081C123.479 40.4765 123.724 41.6912 123.724 43.0523C123.724 44.1792 123.572 45.2146 123.267 46.1586C122.962 47.1026 122.489 47.9075 121.849 48.5735C121.254 49.1954 120.536 49.6674 119.696 49.9894C118.855 50.3041 117.962 50.5125 117.017 50.615C116.08 50.7101 115.001 50.7577 113.781 50.7577H108.86L109.049 49.8248L111.002 49.1222ZM113.893 49.715C115.47 49.5101 116.746 49.1771 117.72 48.7162C118.695 48.2551 119.428 47.5783 119.919 46.6855C120.417 45.7854 120.666 44.5927 120.666 43.1071C120.666 40.7655 119.837 39.0313 118.178 37.9044C117.709 37.5824 117.092 37.308 116.325 37.0811C115.559 36.847 114.748 36.675 113.893 36.5653V49.715ZM49.7974 58.6957C49.4529 58.6957 49.15 58.6201 48.8883 58.4687C48.6285 58.3173 48.4265 58.1006 48.2822 57.8187C48.1378 57.5366 48.0657 57.2045 48.0657 56.8223C48.0657 56.4154 48.1331 56.0435 48.2677 55.7066C48.4024 55.3679 48.5977 55.1011 48.8536 54.9061C49.0095 54.7887 49.1768 54.7036 49.3558 54.6507C49.5347 54.5958 49.7348 54.5684 49.956 54.5684C50.0523 54.5684 50.1504 54.5749 50.2505 54.5881C50.3505 54.6014 50.4631 54.6203 50.5881 54.645L50.9575 54.5939L51.0672 55.6328L50.7902 55.6981L50.5189 55.1076C50.3938 55.0546 50.2754 55.0159 50.1638 54.9912C50.0542 54.9667 49.9243 54.9543 49.7742 54.9543C49.6339 54.9543 49.4991 54.9761 49.3703 55.0197C49.2432 55.0613 49.1432 55.1133 49.0701 55.1757C48.943 55.2875 48.8391 55.4634 48.7584 55.7038C48.6795 55.9442 48.6401 56.2412 48.6401 56.5951C48.6401 56.8109 48.6699 57.0238 48.7295 57.2338C48.791 57.442 48.8777 57.618 48.9892 57.7619C49.1163 57.9246 49.2615 58.0448 49.425 58.1223C49.5886 58.2 49.7618 58.2388 49.9445 58.2388C50.0369 58.2388 50.161 58.218 50.3169 58.1763C50.4727 58.1328 50.6247 58.0844 50.7729 58.0315C50.9209 57.9785 51.024 57.9378 51.0817 57.9095L51.2115 58.1054C50.9922 58.3116 50.7748 58.462 50.5592 58.5567C50.3457 58.6494 50.0917 58.6957 49.7974 58.6957ZM63.4528 58.3154L63.3921 58.5964H61.8943L61.9405 58.3523L62.4138 58.2189L62.0674 57.3161C61.625 57.3427 61.19 57.3559 60.7629 57.3559H60.6418L60.3444 58.2046L60.939 58.3608L60.8871 58.5964H59.4527L59.5046 58.3267L59.952 58.1933L61.2535 54.6676L61.5971 54.5684L63.017 58.2189L63.4528 58.3154ZM61.9433 56.984L61.3055 55.3177C61.2843 55.4464 61.1055 56.0018 60.7687 56.984H61.9433ZM72.3346 58.2019V55.0594L71.7919 54.9005L71.8411 54.6676H72.9378C73.1475 54.6676 73.3284 54.6733 73.4803 54.6846C73.6342 54.6942 73.7892 54.7206 73.945 54.7642C74.1009 54.8077 74.2384 54.8739 74.3577 54.9629C74.4771 55.0538 74.5703 55.1719 74.6376 55.3177C74.707 55.4615 74.7415 55.6318 74.7415 55.8286C74.7415 56.0066 74.704 56.1674 74.6291 56.3113C74.5539 56.4533 74.4501 56.5733 74.3174 56.6717C74.1807 56.7739 74.0153 56.8497 73.8209 56.8989C73.6265 56.9462 73.4362 56.9699 73.2495 56.9699L73.2842 56.7825C73.515 56.686 73.6881 56.6008 73.8036 56.527C73.9191 56.4512 74.0038 56.3586 74.0576 56.2487C74.1134 56.139 74.1413 55.9924 74.1413 55.8088C74.1413 55.4871 74.0258 55.2563 73.7949 55.1162C73.566 54.9761 73.2648 54.9032 72.8916 54.8976V58.2046L73.5669 58.3608L73.5179 58.5964H71.7689L71.8209 58.3552L72.3346 58.2019ZM83.8399 58.199V55.0594L83.2973 54.9032L83.3463 54.6676H84.9625L84.9163 54.9089L84.394 55.0651V58.199L84.951 58.3579L84.8933 58.5964H83.2771L83.3261 58.3495L83.8399 58.199ZM95.0104 58.1877V54.943L94.0551 55.0423L93.651 55.752L93.3855 55.6925L93.6221 54.6421L94.0002 54.6676H96.6871L97.0507 54.6335L97.1663 55.7009L96.9093 55.7775L96.5602 55.0452L95.5644 54.9374V58.1906L96.1965 58.3409L96.1446 58.5964H94.4072L94.4592 58.3409L95.0104 58.1877ZM109.012 58.3154L108.951 58.5964H107.454L107.5 58.3523L107.973 58.2189L107.627 57.3161C107.184 57.3427 106.749 57.3559 106.322 57.3559H106.201L105.904 58.2046L106.498 58.3608L106.446 58.5964H105.012L105.064 58.3267L105.511 58.1933L106.813 54.6676L107.156 54.5684L108.576 58.2189L109.012 58.3154ZM107.503 56.984L106.865 55.3177C106.844 55.4464 106.665 56.0018 106.328 56.984H107.503ZM120.338 57.6256L120.558 57.6824L120.347 58.5964H117.334L117.377 58.3523L117.894 58.1962V55.0538L117.354 54.9061L117.403 54.6676H119.034L118.988 54.9118L118.448 55.0679V58.3125L119.963 58.1564L120.338 57.6256Z" fill="#FAFAFA"/>
<path d="M39.4397 48.6293L33.9928 57.8981C33.5011 58.735 32.5929 59.2504 31.61 59.2504H20.7108C19.728 59.2504 18.8198 58.735 18.3279 57.8981L12.8811 48.6293C12.3886 47.7911 12.3886 46.7582 12.8811 45.9198L18.3279 36.6512C18.8198 35.8143 19.728 35.2988 20.7108 35.2988H31.61C32.5929 35.2988 33.5011 35.8143 33.9928 36.6512L39.4397 45.9198C39.9323 46.7582 39.9323 47.7911 39.4397 48.6293Z" fill="white" stroke="#C4C4C4"/>
<mask id="mask0_2033_5728" style="mask-type:alpha" maskUnits="userSpaceOnUse" x="12" y="34" width="29" height="26">
<path d="M39.4397 48.6293L33.9928 57.8981C33.5011 58.735 32.5929 59.2504 31.61 59.2504H20.7108C19.728 59.2504 18.8198 58.735 18.3279 57.8981L12.8811 48.6293C12.3886 47.7911 12.3886 46.7582 12.8811 45.9198L18.3279 36.6512C18.8198 35.8143 19.728 35.2988 20.7108 35.2988H31.61C32.5929 35.2988 33.5011 35.8143 33.9928 36.6512L39.4397 45.9198C39.9323 46.7582 39.9323 47.7911 39.4397 48.6293Z" fill="white" stroke="#C4C4C4"/>
</mask>
<g mask="url(#mask0_2033_5728)">
<path d="M6.42578 51.418C12.5731 50.4363 25.6845 44.845 28.951 30.3334C32.9896 12.3918 35.4969 54.0396 35.9463 54.7561C35.9648 54.7574 35.9698 54.7602 35.9603 54.7648C35.9559 54.767 35.9512 54.7641 35.9463 54.7561C35.3166 54.7161 18.974 56.6008 10.645 57.5762L6.42578 51.418Z" fill="#BDBDBD"/>
<path d="M10.373 54.4971C16.5204 53.5155 29.6318 47.924 32.8983 33.4125C36.9369 15.4709 39.4442 57.1187 39.8935 57.8354C39.912 57.8365 39.917 57.8393 39.9076 57.8439C39.9031 57.8461 39.8984 57.8432 39.8935 57.8354C39.2638 57.7952 22.9213 59.6799 14.5923 60.6553L10.373 54.4971Z" fill="#666666"/>
<path d="M14.3193 56.6388C20.4667 55.657 33.5781 50.0657 36.8445 35.5541C40.8831 17.6125 43.3904 59.2604 43.8398 59.9769C43.8584 59.978 43.8633 59.981 43.8538 59.9856C43.8494 59.9878 43.8447 59.9849 43.8398 59.9769C43.2101 59.9368 26.8677 61.8216 18.5386 62.7968L14.3193 56.6388Z" fill="#3F3F3F"/>
</g>
<path fill-rule="evenodd" clip-rule="evenodd" d="M33.8759 57.9747L39.4498 48.4898C39.8918 47.7376 39.8918 46.8103 39.4498 46.0581L33.8759 36.5732C33.4345 35.8221 32.6194 35.3595 31.7373 35.3595H20.5844C19.7023 35.3595 18.8872 35.8221 18.4458 36.5732L12.872 46.0581C12.4299 46.8103 12.4299 47.7376 12.872 48.4898L18.4458 57.9747C18.8872 58.7259 19.7023 59.1885 20.5844 59.1885H31.7373C32.6194 59.1885 33.4345 58.7259 33.8759 57.9747ZM39.5676 48.5568C40.0339 47.7632 40.0339 46.7848 39.5676 45.9912L33.9937 36.5062C33.5281 35.7137 32.6679 35.2256 31.7373 35.2256H20.5844C19.6537 35.2256 18.7937 35.7137 18.328 36.5062L12.7541 45.9912C12.2877 46.7848 12.2877 47.7632 12.7541 48.5568L18.328 58.0417C18.7937 58.8342 19.6537 59.3224 20.5844 59.3224H31.7373C32.6679 59.3224 33.5281 58.8342 33.9937 58.0417L39.5676 48.5568Z" fill="#C4C4C4"/>
</svg>
