<svg width="36" height="39" viewBox="0 0 36 39" fill="none" xmlns="http://www.w3.org/2000/svg">
<g clip-path="url(#clip0_2544_7506)">
<path d="M1.28516 29.1744V9.54353L10.4056 4.52539L19.8136 9.90805V17.2344H16.2797V11.8517L10.5487 8.41139L4.28433 11.8517V30.9545L1.28516 29.1744Z" fill="#01A8AB"/>
<path d="M8.43555 13.9941V33.3004L17.3912 38.6831L20.9657 36.8219L11.721 31.4792V16.0589L8.43555 13.9941Z" fill="#01A8AB"/>
<path d="M34.3771 9.823V29.4539L25.2567 34.472L15.8486 29.0894V21.763H19.3812V27.147L25.1122 30.5874L31.3779 27.147V8.04297L34.3771 9.823Z" fill="#01A8AB"/>
<path d="M27.2274 25.0034V5.69712L18.2717 0.314453L14.6973 2.17564L23.9406 7.51839V22.94L27.2274 25.0034Z" fill="#01A8AB"/>
</g>
<defs>
<clipPath id="clip0_2544_7506">
<rect width="36" height="38" fill="white" transform="translate(0 0.5)"/>
</clipPath>
</defs>
</svg>
