<svg width="102" height="20" viewBox="0 0 102 20" fill="none" xmlns="http://www.w3.org/2000/svg">
<path d="M4.10966 8.0792H19.6326V11.438H4.10966V8.0792ZM18.9669 0H22.9914V19.5777H18.9669V0ZM0.569336 0H4.59381V19.5777H0.569336V0Z" fill="white"/>
<path d="M31.6616 11.4077V16.2189H46.7609V19.5777H27.6371V0H46.7307V3.35877H31.6616V8.2305H44.0074V11.4077H31.6616Z" fill="white"/>
<path d="M54.9175 0V16.2189H67.9289V19.5777H50.893V0H54.9175Z" fill="white"/>
<path d="M72.2416 0H76.266V19.5777H72.2416V0Z" fill="white"/>
<path d="M96.5766 0H101.479L92.2192 10.8025L92.0982 10.9236L85.2294 19.5777H80.3274L89.859 8.2305L89.9498 8.13972L96.5766 0ZM85.532 0L92.0679 8.20024L92.1285 8.29102L101.569 19.5777H96.4555L89.6775 10.8025L89.5867 10.742L80.63 0H85.532Z" fill="white"/>
</svg>
