<svg width="160" height="41" viewBox="0 0 160 41" fill="none" xmlns="http://www.w3.org/2000/svg">
<g clip-path="url(#clip0_2151_9582)">
<path d="M1.8916 30.8812V10.3763L11.2769 5.13477L20.9582 10.7571V18.4096H17.3217V12.7873L11.4242 9.19377L4.97789 12.7873V32.7405L1.8916 30.8812Z" fill="#01A8AB"/>
<path d="M9.24902 15.0254V35.1912L18.4648 40.8135L22.1431 38.8695L12.6299 33.2888V17.182L9.24902 15.0254Z" fill="#01A8AB"/>
<path d="M35.9455 10.6698V31.1747L26.5602 36.4162L16.8789 30.7939V23.1414H20.5141V28.7651L26.4115 32.3586L32.8593 28.7651V8.81055L35.9455 10.6698Z" fill="#01A8AB"/>
<path d="M28.5884 26.5264V6.36058L19.3726 0.738281L15.6943 2.68232L25.2061 8.26294V24.3711L28.5884 26.5264Z" fill="#01A8AB"/>
</g>
<path d="M53.1545 18.9119H70.086V22.5754H53.1545V18.9119ZM69.3599 10.0996H73.7496V31.4537H69.3599V10.0996ZM49.293 10.0996H53.6826V31.4537H49.293V10.0996Z" fill="white"/>
<path d="M83.2065 22.5424V27.7902H99.6759V31.4537H78.8168V10.0996H99.6429V13.7631H83.2065V19.0769H96.6725V22.5424H83.2065Z" fill="white"/>
<path d="M108.573 10.0996V27.7902H122.765V31.4537H104.183V10.0996H108.573Z" fill="white"/>
<path d="M127.469 10.0996H131.858V31.4537H127.469V10.0996Z" fill="white"/>
<path d="M154.012 10.0996H159.358L149.259 21.8823L149.127 22.0144L141.635 31.4537H136.288L146.685 19.0769L146.784 18.9779L154.012 10.0996ZM141.965 10.0996L149.094 19.0439L149.16 19.1429L159.457 31.4537H153.88L146.487 21.8823L146.388 21.8163L136.618 10.0996H141.965Z" fill="white"/>
<defs>
<clipPath id="clip0_2151_9582">
<rect width="37.0456" height="39.6918" fill="white" transform="translate(0.569336 0.931641)"/>
</clipPath>
</defs>
</svg>
