<svg width="143" height="37" viewBox="0 0 143 37" fill="none" xmlns="http://www.w3.org/2000/svg">
<g clip-path="url(#clip0_1373_5881)">
<path d="M1.57104 27.7765V9.41138L9.97698 4.7168L18.648 9.75239V16.6063H15.3909V11.5707L10.1089 8.35223L4.33527 11.5707V29.4418L1.57104 27.7765Z" fill="#01A8AB"/>
<path d="M8.15991 13.5767V31.6381L16.414 36.6737L19.7084 34.9325L11.188 29.9343V15.5083L8.15991 13.5767Z" fill="#01A8AB"/>
<path d="M32.0709 9.67649V28.0416L23.6649 32.7362L14.9939 27.7006V20.8467H18.2497V25.8835L23.5318 29.102L29.3066 25.8835V8.01123L32.0709 9.67649Z" fill="#01A8AB"/>
<path d="M25.4821 23.8758V5.81441L17.228 0.778809L13.9336 2.51999L22.4528 7.51824V21.9455L25.4821 23.8758Z" fill="#01A8AB"/>
</g>
<path d="M47.483 17.0568H62.6477V20.338H47.483V17.0568ZM61.9973 9.16406H65.9289V28.2898H61.9973V9.16406ZM44.0244 9.16406H47.956V28.2898H44.0244V9.16406Z" fill="#193049"/>
<path d="M74.399 20.3084V25.0086H89.1497V28.2898H70.4674V9.16406H89.1202V12.4453H74.399V17.2046H86.4597V20.3084H74.399Z" fill="#193049"/>
<path d="M97.118 9.16406V25.0086H109.829V28.2898H93.1864V9.16406H97.118Z" fill="#193049"/>
<path d="M114.042 9.16406H117.974V28.2898H114.042V9.16406Z" fill="#193049"/>
<path d="M137.815 9.16406H142.604L133.559 19.7172L133.44 19.8355L126.73 28.2898H121.941L131.253 17.2046L131.342 17.1159L137.815 9.16406ZM127.026 9.16406L133.411 17.175L133.47 17.2637L142.693 28.2898H137.697L131.076 19.7172L130.987 19.6581L122.237 9.16406H127.026Z" fill="#193049"/>
<defs>
<clipPath id="clip0_1373_5881">
<rect width="33.1798" height="35.5498" fill="white" transform="translate(0.385986 0.95166)"/>
</clipPath>
</defs>
</svg>
