<svg width="161" height="89" viewBox="0 0 161 89" fill="none" xmlns="http://www.w3.org/2000/svg">
<g clip-path="url(#clip0_2040_7989)">
<path d="M56.0528 39.7441C56.3832 39.7441 56.6696 39.8123 56.8973 39.956C57.125 40.0998 57.3526 40.3723 57.5729 40.781L61.9351 48.9393C61.9792 49.0301 61.9865 49.1058 61.9645 49.1663C61.9425 49.2269 61.8764 49.2571 61.7736 49.2571H60.0992C59.9523 49.2571 59.8495 49.1966 59.7981 49.0831L58.8654 47.3349H52.6746L51.764 49.0831C51.7053 49.2042 51.6025 49.2571 51.4629 49.2571H49.7518C49.6343 49.2571 49.5682 49.2269 49.5462 49.1663C49.5242 49.1058 49.5315 49.0301 49.5756 48.9393L53.9011 40.781C54.1214 40.3723 54.3343 40.0998 54.5473 39.956C54.7603 39.8123 55.0026 39.7441 55.2817 39.7441H56.0528ZM53.4898 45.7456H58.0282L55.9353 41.7648C55.8986 41.7043 55.8545 41.6664 55.7884 41.6664H55.7076C55.6489 41.6664 55.5975 41.6967 55.5607 41.7648L53.4898 45.7456Z" fill="#232323"/>
<path d="M71.5189 39.7441C72.5323 39.7441 73.252 39.9787 73.6927 40.448C74.1333 40.9172 74.3536 41.6134 74.3536 42.5367V43.3087C74.3536 44.0882 74.1994 44.7012 73.8909 45.1553C73.5825 45.6093 73.0831 45.8969 72.3855 46.0256L74.64 48.9014C74.6841 48.9468 74.6987 49.015 74.6767 49.1058C74.662 49.1966 74.5886 49.242 74.4637 49.242H72.7673C72.6498 49.242 72.5764 49.2269 72.5323 49.2042C72.4883 49.1739 72.4442 49.1285 72.4002 49.0679L70.3145 46.2451H66.0552V48.9468C66.0552 49.1436 65.9597 49.242 65.7688 49.242H64.3441C64.1384 49.242 64.043 49.1436 64.043 48.9468V40.1528C64.043 39.8804 64.1752 39.7441 64.4395 39.7441H71.5189ZM66.0625 44.5952H71.1077C71.5556 44.5952 71.8714 44.4969 72.055 44.3001C72.2386 44.1033 72.3341 43.8006 72.3341 43.3919V42.8243C72.3341 42.4156 72.2386 42.1129 72.055 41.9162C71.8714 41.7194 71.5556 41.621 71.1077 41.621H66.2314C66.1139 41.621 66.0625 41.674 66.0625 41.7875V44.5952Z" fill="#232323"/>
<path d="M85.3767 39.7441C86.28 39.7441 86.9262 39.9333 87.3081 40.3042C87.69 40.675 87.8809 41.235 87.8809 41.9843V42.6351C87.8809 43.3919 87.6019 43.9671 87.0364 44.3606C87.6386 44.7239 87.947 45.3066 87.947 46.1088V46.8959C87.947 47.2592 87.9103 47.5846 87.8295 47.8722C87.7488 48.1598 87.6239 48.4095 87.4403 48.6138C87.2567 48.8182 87.0217 48.9771 86.7206 49.0831C86.4195 49.189 86.0523 49.2496 85.6117 49.2496H77.7833C77.5189 49.2496 77.3867 49.1133 77.3867 48.8409V40.1528C77.3867 39.8804 77.5189 39.7441 77.7833 39.7441H85.3767ZM79.4062 43.6946H84.8113C85.2519 43.6946 85.5456 43.6265 85.7072 43.4903C85.8688 43.3541 85.9422 43.1573 85.9422 42.8924V42.4308C85.9422 42.1508 85.8688 41.9464 85.7145 41.8102C85.5603 41.6816 85.3106 41.6134 84.9728 41.6134H79.5825C79.465 41.6134 79.4136 41.674 79.4136 41.7875V43.6946H79.4062ZM79.4062 45.178V47.1986C79.4062 47.3197 79.465 47.3727 79.5752 47.3727H84.9802C85.3327 47.3727 85.5823 47.3046 85.7292 47.1759C85.8761 47.0473 85.9569 46.8354 85.9569 46.5478V46.0332C85.9569 45.7531 85.8761 45.5412 85.7145 45.3974C85.553 45.2537 85.2519 45.178 84.8113 45.178H79.4062Z" fill="#232323"/>
<path d="M92.8596 39.7441C93.0505 39.7441 93.146 39.8425 93.146 40.0393V48.9468C93.146 49.1436 93.0505 49.242 92.8596 49.242H91.4349C91.2293 49.242 91.1338 49.1436 91.1338 48.9468V40.0469C91.1338 39.8501 91.2366 39.7517 91.4349 39.7517L92.8596 39.7441Z" fill="#232323"/>
<path d="M106.666 39.7441C106.872 39.7441 106.967 39.8425 106.967 40.0393V41.3713C106.967 41.5832 106.865 41.6816 106.666 41.6816H102.532V48.9468C102.532 49.1436 102.436 49.242 102.245 49.242H100.806C100.615 49.242 100.52 49.1436 100.52 48.9468V41.6816H96.3851C96.1795 41.6816 96.084 41.5756 96.084 41.3713V40.0393C96.084 39.8425 96.1868 39.7441 96.3851 39.7441H106.666Z" fill="#232323"/>
<path d="M117.086 39.7441C118.1 39.7441 118.819 39.9787 119.26 40.448C119.701 40.9172 119.921 41.6134 119.921 42.5367V43.3087C119.921 44.0882 119.767 44.7012 119.458 45.1553C119.15 45.6093 118.651 45.8969 117.953 46.0256L120.207 48.9014C120.251 48.9468 120.266 49.015 120.244 49.1058C120.229 49.1966 120.156 49.242 120.031 49.242H118.335C118.217 49.242 118.144 49.2269 118.1 49.2042C118.056 49.1739 118.012 49.1285 117.968 49.0679L115.882 46.2451H111.623V48.9468C111.623 49.1436 111.527 49.242 111.336 49.242H109.911C109.706 49.242 109.61 49.1436 109.61 48.9468V40.1528C109.61 39.8804 109.743 39.7441 110.007 39.7441H117.086ZM111.637 44.5952H116.682C117.13 44.5952 117.446 44.4969 117.63 44.3001C117.813 44.1033 117.909 43.8006 117.909 43.3919V42.8243C117.909 42.4156 117.813 42.1129 117.63 41.9162C117.446 41.7194 117.13 41.621 116.682 41.621H111.806C111.689 41.621 111.637 41.674 111.637 41.7875V44.5952Z" fill="#232323"/>
<path d="M124.496 39.7441C124.687 39.7441 124.783 39.8425 124.783 40.0393V45.458C124.783 45.8213 124.812 46.124 124.871 46.3586C124.93 46.6008 125.025 46.79 125.157 46.9262C125.289 47.07 125.466 47.1684 125.693 47.2213C125.921 47.2819 126.2 47.3122 126.545 47.3122H130.195C130.54 47.3122 130.819 47.2819 131.047 47.2213C131.275 47.1608 131.451 47.0624 131.583 46.9262C131.715 46.7824 131.811 46.5932 131.862 46.3586C131.913 46.1164 131.943 45.8213 131.943 45.458V40.0393C131.943 39.8425 132.038 39.7441 132.229 39.7441H133.669C133.86 39.7441 133.955 39.8425 133.955 40.0393V45.6623C133.955 46.3132 133.889 46.8656 133.757 47.3273C133.625 47.7814 133.412 48.1522 133.118 48.4398C132.824 48.7274 132.442 48.9317 131.972 49.0604C131.502 49.189 130.937 49.2496 130.268 49.2496H126.472C125.803 49.2496 125.238 49.189 124.775 49.0604C124.313 48.9317 123.931 48.7274 123.637 48.4398C123.343 48.1522 123.13 47.7814 122.991 47.3273C122.851 46.8732 122.785 46.3132 122.785 45.6623V40.0393C122.785 39.8425 122.888 39.7441 123.086 39.7441H124.496Z" fill="#232323"/>
<path d="M139.617 39.7441C139.808 39.7441 139.977 39.7593 140.117 39.782C140.256 39.8123 140.381 39.8577 140.484 39.9409C140.587 40.0166 140.682 40.1225 140.77 40.2512C140.851 40.3799 140.939 40.5539 141.027 40.7734L143.766 47.2894C143.803 47.3727 143.862 47.4105 143.95 47.4105H144.112C144.2 47.4105 144.258 47.3727 144.295 47.2894L147.034 40.7734C147.122 40.5539 147.211 40.3799 147.291 40.2512C147.372 40.1225 147.468 40.0166 147.578 39.9409C147.681 39.8652 147.805 39.8123 147.938 39.782C148.077 39.7517 148.239 39.7441 148.43 39.7441H149.84C150.295 39.7441 150.603 39.8501 150.765 40.062C150.927 40.2739 151 40.6372 151 41.1518V48.9468C151 49.1436 150.897 49.242 150.699 49.242H149.355C149.164 49.242 149.069 49.1436 149.069 48.9468V41.8556C149.069 41.7648 149.032 41.7194 148.966 41.7194H148.848C148.76 41.7194 148.701 41.7572 148.679 41.8253L146.021 47.91C145.918 48.1522 145.808 48.3641 145.698 48.5306C145.588 48.6971 145.47 48.8333 145.345 48.9468C145.22 49.0528 145.074 49.136 144.912 49.1814C144.75 49.2269 144.56 49.2496 144.339 49.2496H143.708C143.487 49.2496 143.296 49.2269 143.135 49.1814C142.973 49.136 142.826 49.0604 142.702 48.9468C142.577 48.8409 142.452 48.6971 142.349 48.5306C142.239 48.3641 142.129 48.1598 142.026 47.91L139.367 41.8253C139.338 41.7497 139.287 41.7194 139.199 41.7194H139.081C139.008 41.7194 138.978 41.7648 138.978 41.8556V48.9468C138.978 49.1436 138.883 49.242 138.692 49.242H137.348C137.142 49.242 137.047 49.1436 137.047 48.9468V41.1518C137.047 40.6372 137.128 40.2739 137.282 40.062C137.443 39.8501 137.752 39.7441 138.215 39.7441H139.617Z" fill="#232323"/>
</g>
<g clip-path="url(#clip1_2040_7989)">
<mask id="mask0_2040_7989" style="mask-type:luminance" maskUnits="userSpaceOnUse" x="13" y="28" width="30" height="33">
<path d="M42.1387 28.5H13.1387V60.5H42.1387V28.5Z" fill="white"/>
</mask>
<g mask="url(#mask0_2040_7989)">
<path d="M30.069 46.9326L28.4824 51.1805C28.4356 51.2983 28.4356 51.4292 28.4824 51.547L31.207 58.8582L34.3601 57.0778L30.5778 46.9326C30.4907 46.697 30.156 46.697 30.069 46.9326Z" fill="#3B3B3B"/>
<path d="M33.2418 39.7841C33.1548 39.5485 32.8201 39.5485 32.7331 39.7841L31.1465 44.032C31.0996 44.1499 31.0996 44.2808 31.1465 44.3986L35.6116 56.37L38.7647 54.5896L33.2418 39.7841Z" fill="#3B3B3B"/>
<path d="M27.6387 30.4832C27.719 30.4832 27.7927 30.5029 27.8663 30.5421L39.8894 37.3296C40.03 37.4082 40.117 37.5522 40.117 37.7093V51.2842C40.117 51.4413 40.03 51.5853 39.8894 51.6638L27.8663 58.4579C27.7994 58.4971 27.719 58.5168 27.6387 58.5168C27.5584 58.5168 27.4847 58.4971 27.4111 58.4579L15.3947 51.6704C15.2541 51.5918 15.1671 51.4478 15.1671 51.2908V37.7093C15.1671 37.5522 15.2541 37.4082 15.3947 37.3296L27.4178 30.5421C27.4847 30.5029 27.5651 30.4832 27.6387 30.4832ZM27.6387 28.5C27.2103 28.5 26.7818 28.6113 26.4002 28.8273L14.3771 35.6147C13.614 36.0467 13.1387 36.8453 13.1387 37.7093V51.2842C13.1387 52.1482 13.614 52.9533 14.3771 53.3853L26.4002 60.1727C26.7818 60.3887 27.2103 60.5 27.6387 60.5C28.0671 60.5 28.4956 60.3887 28.8772 60.1727L40.9002 53.3853C41.6701 52.9533 42.1387 52.1547 42.1387 51.2842V37.7093C42.1387 36.8453 41.6634 36.0402 40.9002 35.6082L28.8839 28.8273C28.4956 28.6113 28.0671 28.5 27.6387 28.5Z" fill="#3B3B3B"/>
<path d="M19.6934 56.3822L20.7979 53.4238L23.0205 55.2303L20.9452 57.0891L19.6934 56.3822Z" fill="#3B3B3B"/>
<path d="M26.6275 36.7402H23.5816C23.354 36.7402 23.1464 36.8777 23.0728 37.0871L16.5391 54.6024L19.6921 56.3827L26.8886 37.0937C26.9488 36.9235 26.8216 36.7402 26.6275 36.7402Z" fill="#3B3B3B"/>
<path d="M31.9623 36.7402H28.9164C28.6888 36.7402 28.4812 36.8777 28.4076 37.0871L20.9434 57.0896L24.0964 58.87L32.2167 37.1002C32.2836 36.9235 32.1498 36.7402 31.9623 36.7402Z" fill="#3B3B3B"/>
</g>
</g>
<defs>
<clipPath id="clip0_2040_7989">
<rect width="141" height="37" fill="white" transform="translate(10 26)"/>
</clipPath>
<clipPath id="clip1_2040_7989">
<rect width="29" height="32" fill="white" transform="translate(13.1387 28.5)"/>
</clipPath>
</defs>
</svg>
