<svg width="161" height="89" viewBox="0 0 161 89" fill="none" xmlns="http://www.w3.org/2000/svg">
<g clip-path="url(#clip0_2040_8018)">
<path fill-rule="evenodd" clip-rule="evenodd" d="M147.903 51.5322H149.804V32.5293H147.903V51.5322ZM146.469 44.4093C146.469 40.5007 143.078 37.1579 139.174 37.1579C136.399 37.1579 134.016 38.684 132.757 40.9314C131.482 38.7089 129.065 37.1579 126.407 37.1579C122.296 37.1579 119.034 40.5007 119.034 44.5893C119.034 48.6264 122.425 51.8664 126.407 51.8664C129.125 51.8664 131.469 50.3167 132.725 48.0907C133.998 50.3459 136.446 51.8664 139.174 51.8664C143.232 51.8664 146.469 48.4207 146.469 44.4093ZM131.801 44.4093C131.801 47.4693 129.54 50.0407 126.407 50.0407C123.401 50.0407 120.935 47.5979 120.935 44.5893C120.935 41.5293 123.298 38.9836 126.407 38.9836C127.794 38.9836 129.155 39.575 130.157 40.5264C131.287 41.6064 131.801 42.8664 131.801 44.4093ZM144.568 44.4093C144.568 47.4693 142.307 50.0407 139.174 50.0407C136.168 50.0407 133.702 47.5979 133.702 44.5893C133.702 41.5293 136.065 38.9836 139.174 38.9836C140.561 38.9836 141.922 39.575 142.924 40.5264C144.054 41.6064 144.568 42.8664 144.568 44.4093ZM117.897 44.5636C117.897 42.5064 117.074 40.655 116.227 39.8836C114.429 37.955 112.528 37.1579 110.473 37.1579C108.443 37.1579 105.977 38.0579 104.873 39.8836V37.4664H103.074V56.4693H104.975V48.9093C105.9 50.8636 108.212 51.8664 110.293 51.8664C114.377 51.8664 117.897 48.755 117.897 44.5636ZM115.996 44.5379C115.996 47.7007 113.478 50.0407 110.344 50.0407C108.829 50.0407 107.39 49.4236 106.337 48.3179C105.232 47.2122 104.847 45.9264 104.847 44.3836C104.847 41.2722 107.39 38.9836 110.473 38.9836C113.53 38.9836 115.996 41.4779 115.996 44.5379ZM99.5629 40.0122C100.359 39.3436 101.079 39.1122 102.106 39.035V37.1579C100.385 37.2093 98.7666 37.8264 98.0216 39.4979V37.4664H96.2235V51.5322H98.1244V43.6636C98.1244 42.0693 98.2528 41.1179 99.5629 40.0122ZM91.8257 51.5322H93.6495V37.4664H91.8257V40.1407C90.7725 38.135 88.5376 37.1579 86.3284 37.1579C84.3761 37.1579 82.3982 37.8522 80.266 40.1407C79.7523 40.6036 78.8018 42.5322 78.8018 44.4093C78.8018 46.5436 79.6752 48.3179 80.189 48.8836C81.9871 50.9407 84.2734 51.8664 86.3798 51.8664C88.589 51.8664 90.7468 50.8636 91.8257 48.8836V51.5322ZM91.8257 44.5893C91.8257 47.5207 89.3083 50.0407 86.3798 50.0407C83.3743 50.0407 80.7027 47.6493 80.7027 44.5636C80.7027 41.4522 83.2459 38.9836 86.3284 38.9836C89.4624 38.9836 91.8257 41.4779 91.8257 44.5893ZM64.9821 45.1807H77.6972C77.6459 43.1493 77.3633 41.5036 76.0532 39.8836C74.6404 38.1607 72.611 37.1579 70.4018 37.1579C66.3178 37.1579 63.0812 40.4236 63.0812 44.5122C63.0812 48.6264 66.3435 51.8664 70.4532 51.8664C73.4334 51.8664 76.3101 49.7836 77.2867 46.955H75.3082C74.4605 48.8836 72.3541 50.0407 70.2734 50.0407C67.6793 50.0407 65.0848 47.855 64.9821 45.1807ZM64.9821 43.4579C65.4445 40.8607 67.7821 38.9836 70.4275 38.9836C73.022 38.9836 75.3082 40.9636 75.7963 43.4579H64.9821ZM59.3256 51.5322H61.2265V32.5293H59.3256V51.5322ZM55.4728 41.735H57.6049C56.526 38.9064 53.6489 37.1579 50.6691 37.1579C46.6104 37.1579 43.0654 40.3207 43.0654 44.4864C43.0654 48.7807 46.559 51.8664 50.7462 51.8664C53.7774 51.8664 56.3205 50.1693 57.5792 47.4179H55.4728C54.2397 49.1407 52.7241 50.0407 50.5407 50.0407C47.4067 50.0407 44.9663 47.5722 44.9663 44.4607C44.9663 41.2979 47.5865 38.9836 50.6948 38.9836C52.6214 38.9836 54.4966 40.0636 55.4728 41.735Z" fill="black"/>
<path fill-rule="evenodd" clip-rule="evenodd" d="M32.3623 44.5008C30.1407 40.6617 26.0019 38.0723 21.2505 38.0723C16.499 38.0723 12.3607 40.6617 10.1387 44.5008C12.3607 48.34 16.499 50.9294 21.2505 50.9294C26.0019 50.9294 30.1407 48.34 32.3623 44.5008Z" fill="#A5A5A5"/>
<path fill-rule="evenodd" clip-rule="evenodd" d="M21.2505 29.5C16.499 29.5 12.3607 32.0894 10.1387 35.9286C12.3607 39.7677 16.499 42.3571 21.2505 42.3571C26.0019 42.3571 30.1403 39.7677 32.3623 35.9286C30.1403 32.0894 26.0019 29.5 21.2505 29.5Z" fill="#D2D2D2"/>
<path fill-rule="evenodd" clip-rule="evenodd" d="M21.2505 46.6426C16.499 46.6426 12.3607 49.232 10.1387 53.0711C12.3607 56.9103 16.499 59.4997 21.2505 59.4997C26.0019 59.4997 30.1403 56.9103 32.3623 53.0711C30.1403 49.232 26.0019 46.6426 21.2505 46.6426Z" fill="#767676"/>
<path fill-rule="evenodd" clip-rule="evenodd" d="M14.1602 48.7855C16.1905 50.1388 18.6271 50.9283 21.2506 50.9283C23.8741 50.9283 26.3109 50.1388 28.3412 48.7855C26.3109 47.4321 23.8743 46.6426 21.2507 46.6426C18.6271 46.6426 16.1905 47.4321 14.1602 48.7855Z" fill="#BDBDBD"/>
<path fill-rule="evenodd" clip-rule="evenodd" d="M28.3412 40.2151C26.3109 38.8617 23.8741 38.0723 21.2506 38.0723C18.6271 38.0723 16.1905 38.8617 14.1602 40.2151C16.1905 41.5685 18.6271 42.358 21.2507 42.358C23.8743 42.358 26.3109 41.5685 28.3412 40.2151Z" fill="#E9E9E9"/>
</g>
<defs>
<clipPath id="clip0_2040_8018">
<rect width="140" height="30" fill="white" transform="translate(10.1387 29.5)"/>
</clipPath>
</defs>
</svg>
