<svg width="161" height="89" viewBox="0 0 161 89" fill="none" xmlns="http://www.w3.org/2000/svg">
<g clip-path="url(#clip0_2040_8022)">
<path d="M30.0141 34H29.9241C29.87 34 29.8162 34.0072 29.764 34.0213L15.4429 37.9364C15.3157 37.9715 15.2036 38.0471 15.1236 38.1516C15.0436 38.256 15.0002 38.3837 15 38.515C15.0002 38.6464 15.0436 38.774 15.1236 38.8785C15.2036 38.983 15.3157 39.0585 15.4429 39.0936L24.2731 41.5104L29.7626 43.0102C29.8147 43.0243 29.8686 43.0315 29.9226 43.0315H30.0126C30.0662 43.0316 30.1196 43.0244 30.1712 43.0102L35.6622 41.5104L44.4923 39.0936C44.6195 39.0585 44.7317 38.983 44.8117 38.8785C44.8917 38.774 44.9351 38.6464 44.9353 38.515C44.9351 38.3837 44.8917 38.256 44.8117 38.1516C44.7317 38.0471 44.6195 37.9715 44.4923 37.9364L30.1727 34.0213C30.121 34.0071 30.0677 33.9999 30.0141 34Z" fill="black"/>
<path d="M30.167 44.1687H29.7697C29.7161 44.1687 29.6628 44.1616 29.6111 44.1474L22.2856 42.1444C22.1808 42.116 22.0703 42.116 21.9655 42.1444L15.4429 43.9271C15.3157 43.9621 15.2036 44.0377 15.1236 44.1422C15.0436 44.2467 15.0002 44.3743 15 44.5057C15 44.6369 15.0434 44.7644 15.1234 44.8687C15.2035 44.973 15.3157 45.0482 15.4429 45.0828L24.2788 47.4996L29.764 48.9994C29.8162 49.0135 29.87 49.0207 29.924 49.0207H30.0141C30.0677 49.0208 30.121 49.0136 30.1727 48.9994L35.6593 47.4996L44.4952 45.0828C44.6224 45.0482 44.7347 44.973 44.8147 44.8687C44.8947 44.7644 44.9381 44.6369 44.9381 44.5057C44.9379 44.3743 44.8945 44.2467 44.8145 44.1422C44.7346 44.0377 44.6224 43.9621 44.4952 43.9271L37.9712 42.1444C37.8669 42.1159 37.7568 42.1159 37.6525 42.1444L30.327 44.1474C30.2748 44.1617 30.221 44.1688 30.167 44.1687Z" fill="black"/>
<path d="M30.167 50.1478H29.7697C29.7161 50.1478 29.6628 50.1406 29.6111 50.1264L22.2884 48.1248C22.1836 48.0964 22.0731 48.0964 21.9684 48.1248L15.4429 49.9089C15.3157 49.9435 15.2035 50.0188 15.1234 50.1231C15.0434 50.2273 15 50.3549 15 50.4861C15.0002 50.6174 15.0436 50.7451 15.1236 50.8496C15.2036 50.9541 15.3157 51.0296 15.4429 51.0647L29.764 54.9798C29.8162 54.994 29.87 55.0011 29.924 55.0011H30.0141C30.0677 55.0012 30.121 54.9941 30.1727 54.9798L44.4952 51.0647C44.6224 51.0296 44.7346 50.9541 44.8145 50.8496C44.8945 50.7451 44.9379 50.6174 44.9381 50.4861C44.9381 50.3549 44.8947 50.2273 44.8147 50.1231C44.7347 50.0188 44.6224 49.9435 44.4952 49.9089L37.9697 48.1248C37.865 48.0964 37.7545 48.0964 37.6497 48.1248L30.327 50.1264C30.2748 50.1407 30.221 50.1479 30.167 50.1478Z" fill="black"/>
<path d="M52.6982 52.5245L52.6997 37.0176H56.4603V43.1476H63.263V37.019H67.0236L67.0222 52.5259H63.2615L63.263 46.1756L56.4589 46.1742V52.5245H52.6982Z" fill="black"/>
<path d="M79.3431 48.6624C78.7716 51.1474 76.8184 52.822 73.9493 52.822C70.4616 52.822 67.9883 50.7038 67.9883 47.2337C67.9883 43.7877 70.5116 41.3013 73.8765 41.3027C77.5128 41.3027 79.4174 43.7891 79.4174 46.7674V47.8492H71.5003C71.5989 49.3007 72.6877 50.138 74.0722 50.138C75.3081 50.138 76.0726 49.6703 76.4712 48.6624H79.3431ZM75.9783 45.9542C75.904 44.871 75.2124 43.8872 73.8507 43.8872C72.4219 43.8872 71.7489 44.797 71.5503 45.9542H75.9783Z" fill="black"/>
<path d="M97.2003 52.5284V40.0993H91.7822V37.0215H106.428V40.0978H100.937V52.5284H97.2003Z" fill="black"/>
<path d="M112.443 45.0728C111.871 44.7516 111.329 44.6293 110.562 44.6293C109.078 44.6293 108.087 45.4652 108.087 47.3602V52.5292H104.525V41.6013H108.09V43.5915C108.51 42.3618 109.649 41.3027 111.132 41.3027C111.801 41.3027 112.37 41.5003 112.667 41.7463L112.443 45.0728Z" fill="black"/>
<path d="M121.052 41.6101H124.64V52.538H121.053V50.8335C120.459 52.0632 119.222 52.8237 117.564 52.8237C114.596 52.8237 113.656 50.8051 113.656 48.4665V41.6016H117.218V47.6064C117.218 49.1574 117.738 50.0232 119.049 50.0232C120.385 50.0232 121.049 48.9157 121.049 47.1686L121.052 41.6101Z" fill="black"/>
<path d="M128.77 48.8886C128.913 49.9477 129.76 50.5377 131.096 50.5377C132.061 50.5377 132.704 50.1936 132.704 49.6037C132.704 49.062 132.358 48.7664 131.466 48.6185L129.785 48.347C127.261 47.9532 125.901 47.0917 125.901 44.9252C125.901 42.8084 127.759 41.3072 130.701 41.3086C133.818 41.3086 135.673 42.6876 135.896 45.0247L132.952 45.1228C132.778 44.1632 132.012 43.6216 130.651 43.6216C129.76 43.6216 129.222 43.9912 129.222 44.5811C129.222 45.0247 129.569 45.2919 130.112 45.3687L132.238 45.7326C134.638 46.1023 136.023 47.1542 136.023 49.2525C136.023 51.5413 134.068 52.8222 131.075 52.8222C128.106 52.8222 125.855 51.6153 125.658 48.9568L128.77 48.8886Z" fill="black"/>
<path d="M87.0197 46.333L90.6746 41.5977H86.9639L85.2236 43.9589L87.0197 46.333Z" fill="black"/>
<path d="M88.6612 49.4066V49.408L86.6651 46.7922L84.8605 44.4537L82.8073 41.5991L78.8238 41.5977L82.8316 46.9401L78.4766 52.527H82.1872L84.6376 49.2786L87.0609 52.527H91.0445L88.6612 49.4066Z" fill="black"/>
<path d="M143.218 49.9734C142.377 49.9734 141.932 49.5796 141.932 48.6442V44.095V41.6101V38.582H139.731L139.359 40.0349C139.088 41.0443 138.766 41.6101 137.677 41.8062L136.886 41.9299V44.095H138.419V49.6094C138.419 52.0702 140.026 52.8337 141.808 52.8337C143.237 52.8337 144.183 52.4896 144.999 51.8741V49.5298C144.331 49.8255 143.763 49.9734 143.218 49.9734Z" fill="black"/>
<path d="M144.852 41.6035H142.553V44.0899H144.852V41.6035Z" fill="black"/>
</g>
<defs>
<clipPath id="clip0_2040_8022">
<rect width="130" height="21" fill="white" transform="translate(15 34)"/>
</clipPath>
</defs>
</svg>
