<svg width="161" height="89" viewBox="0 0 161 89" fill="none" xmlns="http://www.w3.org/2000/svg">
<g clip-path="url(#clip0_2040_7987)">
<mask id="mask0_2040_7987" style="mask-type:luminance" maskUnits="userSpaceOnUse" x="23" y="23" width="115" height="43">
<path d="M137.517 23H23.1855V66H137.517V23Z" fill="white"/>
</mask>
<g mask="url(#mask0_2040_7987)">
<path d="M44.5809 23C32.765 23 23.1855 32.6263 23.1855 44.5C23.1855 56.3737 32.765 66 44.5809 66C56.3968 66 65.9762 56.3737 65.9762 44.5C65.9762 32.6263 56.3968 23 44.5809 23ZM57.6278 38.0901C57.3825 38.1575 57.2184 38.2191 57.0501 38.3094C56.6721 38.5087 56.18 38.9157 55.9604 39.2196C55.7735 39.4762 55.6451 39.6682 55.5724 39.7972C55.5096 39.9262 55.3913 40.1699 55.2144 40.5282L49.4305 53.917C49.1039 54.6294 48.9826 54.8945 48.4264 54.9347C47.8016 54.9805 47.3281 54.6294 47.0314 53.917L44.792 49.1211L42.5312 53.9113C42.2046 54.6236 41.7111 54.8802 41.1562 54.9218C40.5315 54.9676 39.9224 54.6308 39.6257 53.917L33.3512 40.4766C32.8648 39.4504 32.618 38.9143 32.3998 38.523C32.1374 38.05 32.183 38.0242 31.6182 37.9927C31.427 37.9927 31.2416 37.8723 31.2416 37.6673C31.2416 37.4623 31.3743 37.3548 31.4984 37.3333C32.1873 37.2703 34.6463 37.2703 34.8531 37.2703H37.1681C37.3478 37.2703 37.4562 37.372 37.442 37.5684C37.4206 37.8479 37.2109 37.9038 37.1225 37.9038C36.85 37.9038 36.5962 37.8565 36.4578 38.212C36.3194 38.5674 36.706 39.4031 37.0897 40.1814L42.1532 50.8769L42.3415 51.1822L44.0959 47.629L40.7554 40.4752C40.269 39.4489 40.0223 38.9129 39.804 38.5216C39.5416 38.0486 39.5872 38.0228 39.0224 37.9912C38.8313 37.9912 38.6458 37.8708 38.6458 37.6659C38.6458 37.4609 38.7785 37.3534 38.9026 37.3319C39.5915 37.2688 42.0505 37.2688 42.2574 37.2688H44.5723C44.7521 37.2688 44.8605 37.3706 44.8462 37.567C44.8248 37.8465 44.6151 37.9024 44.5267 37.9024C44.2543 37.9024 44.0004 37.8551 43.862 38.2105C43.7237 38.566 44.1102 39.4016 44.4939 40.1799L46.07 43.6271L47.6561 40.415C48.0598 39.6969 48.3422 38.6663 48.0641 38.308C47.8358 38.0142 47.2796 38.1188 46.4052 38.0887C46.234 38.083 46.1042 37.8794 46.0943 37.6659C46.0943 37.4523 46.2654 37.3219 46.4052 37.3004C48.3436 37.2688 48.6774 37.2688 48.9883 37.2688C49.1538 37.2688 49.4562 37.2688 51.0751 37.3004C51.1635 37.3004 51.3661 37.4523 51.3661 37.6659C51.3661 37.8794 51.1664 38.0643 51.0751 38.0887C50.8298 38.1561 50.6643 38.2163 50.4974 38.308C50.2079 38.4642 50.0995 38.5402 49.9511 38.6663C49.8242 38.7896 49.4918 39.201 49.1738 39.8546C49.111 39.9821 49.024 40.1599 48.8471 40.5196L46.7147 45.0404L49.382 50.8769L54.293 40.1054C54.6966 39.3873 54.9362 38.5359 54.6125 38.3094C54.2887 38.083 53.6112 38.212 52.9536 38.0901C52.7853 38.0586 52.6527 37.8809 52.6427 37.6673C52.6427 37.4537 52.8138 37.3233 52.9536 37.3018C54.892 37.2703 55.2258 37.2703 55.5367 37.2703C55.7022 37.2703 56.0046 37.2703 57.6235 37.3018C57.7119 37.3018 57.9145 37.4537 57.9145 37.6673C57.9145 37.8809 57.7148 38.0658 57.6235 38.0901H57.6278Z" fill="#282828"/>
<path d="M85.6 47.7691H85.4545L82.4306 36.1562H79.1486L76.1176 47.7448H75.9806L73.2335 36.1562H69.3994L74.1492 52.8345H77.5682L80.7218 41.9297H80.8502L84.011 52.8345H87.4314L92.1812 36.1562H88.3471L85.6 47.7691Z" fill="#282828"/>
<path d="M105.087 44.8216C104.644 44.4245 104.12 44.092 103.515 43.8197C102.91 43.5488 102.246 43.3309 101.521 43.1675L100.031 42.8092C99.6684 42.7275 99.3289 42.63 99.0094 42.5153C98.6899 42.3964 98.4103 42.2573 98.1664 42.0997C97.9239 41.9363 97.7314 41.7442 97.5916 41.522C97.4561 41.2999 97.3948 41.039 97.4048 40.7409C97.4048 40.3825 97.5075 40.0629 97.7128 39.7805C97.924 39.4982 98.2263 39.2789 98.62 39.1212C99.0151 38.9578 99.4986 38.8761 100.071 38.8761C100.914 38.8761 101.581 39.0581 102.072 39.4222C102.564 39.7863 102.842 40.2965 102.906 40.953H106.27C106.254 39.9597 105.989 39.0854 105.475 38.33C104.962 37.5761 104.243 36.987 103.32 36.5627C102.401 36.1399 101.326 35.9277 100.095 35.9277C98.8639 35.9277 97.8041 36.1399 96.8528 36.5627C95.9014 36.9855 95.154 37.5746 94.6077 38.33C94.0671 39.0854 93.8004 39.9669 93.8061 40.9774C93.8004 42.21 94.2026 43.1904 95.0142 43.9171C95.8244 44.6453 96.9298 45.1799 98.329 45.521L100.136 45.9768C100.741 46.123 101.252 46.2864 101.668 46.4656C102.089 46.6448 102.408 46.8626 102.624 47.1163C102.845 47.3715 102.956 47.6868 102.956 48.0609C102.956 48.4622 102.835 48.8177 102.591 49.1273C102.349 49.4369 102.005 49.6791 101.561 49.8526C101.123 50.026 100.607 50.1134 100.014 50.1134C99.4202 50.1134 98.8653 50.0217 98.3847 49.8368C97.9097 49.6462 97.5288 49.3667 97.2422 48.9983C96.9612 48.6242 96.8014 48.1569 96.7643 47.5979H93.3682C93.3953 48.7976 93.6848 49.8053 94.2354 50.6194C94.7917 51.4278 95.5648 52.0398 96.5532 52.4512C97.5474 52.864 98.7141 53.0704 100.055 53.0704C101.396 53.0704 102.56 52.8669 103.515 52.4598C104.477 52.047 105.211 51.4694 105.719 50.7255C106.232 49.9758 106.492 49.0915 106.496 48.0709C106.491 47.3758 106.364 46.7594 106.116 46.2219C105.873 45.6844 105.529 45.2172 105.086 44.8216H105.087Z" fill="#282828"/>
<path d="M118.624 36.8815C117.738 36.3985 116.665 36.1562 115.406 36.1562H108.857V52.8345H112.367V47.4266H115.316C116.591 47.4266 117.676 47.1901 118.574 46.7185C119.477 46.2455 120.165 45.5862 120.64 44.7391C121.116 43.892 121.354 42.9144 121.354 41.8079C121.354 40.7013 121.118 39.7224 120.649 38.8753C120.184 38.0224 119.509 37.3574 118.622 36.8801L118.624 36.8815ZM117.409 43.2656C117.191 43.6841 116.862 44.0124 116.42 44.2517C115.982 44.4853 115.426 44.6014 114.75 44.6014H112.368V39.0387H114.734C115.415 39.0387 115.976 39.1562 116.42 39.3884C116.863 39.6163 117.193 39.9388 117.409 40.3573C117.63 40.7701 117.74 41.2532 117.74 41.8065C117.74 42.3597 117.63 42.8413 117.409 43.2642V43.2656Z" fill="#282828"/>
<path d="M134.024 36.1562V46.6454H133.877L126.714 36.1562H123.634V52.8345H127.144V42.3368H127.265L134.486 52.8345H137.517V36.1562H134.024Z" fill="#282828"/>
</g>
</g>
<defs>
<clipPath id="clip0_2040_7987">
<rect width="115" height="43" fill="white" transform="translate(23 23)"/>
</clipPath>
</defs>
</svg>
