<svg width="161" height="89" viewBox="0 0 161 89" fill="none" xmlns="http://www.w3.org/2000/svg">
<g clip-path="url(#clip0_2056_5490)">
<path d="M56.5528 39.7441C56.8832 39.7441 57.1696 39.8123 57.3973 39.956C57.625 40.0998 57.8526 40.3723 58.0729 40.781L62.4351 48.9393C62.4792 49.0301 62.4865 49.1058 62.4645 49.1663C62.4425 49.2269 62.3764 49.2571 62.2736 49.2571H60.5992C60.4523 49.2571 60.3495 49.1966 60.2981 49.0831L59.3654 47.3349H53.1746L52.264 49.0831C52.2053 49.2042 52.1025 49.2571 51.9629 49.2571H50.2518C50.1343 49.2571 50.0682 49.2269 50.0462 49.1663C50.0242 49.1058 50.0315 49.0301 50.0756 48.9393L54.4011 40.781C54.6214 40.3723 54.8343 40.0998 55.0473 39.956C55.2603 39.8123 55.5026 39.7441 55.7817 39.7441H56.5528ZM53.9898 45.7456H58.5282L56.4353 41.7648C56.3986 41.7043 56.3545 41.6664 56.2884 41.6664H56.2076C56.1489 41.6664 56.0975 41.6967 56.0607 41.7648L53.9898 45.7456Z" fill="white"/>
<path d="M72.0189 39.7441C73.0323 39.7441 73.752 39.9787 74.1927 40.448C74.6333 40.9172 74.8536 41.6134 74.8536 42.5367V43.3087C74.8536 44.0882 74.6994 44.7012 74.3909 45.1553C74.0825 45.6093 73.5831 45.8969 72.8855 46.0256L75.14 48.9014C75.1841 48.9468 75.1987 49.015 75.1767 49.1058C75.162 49.1966 75.0886 49.242 74.9637 49.242H73.2673C73.1498 49.242 73.0764 49.2269 73.0323 49.2042C72.9883 49.1739 72.9442 49.1285 72.9002 49.0679L70.8145 46.2451H66.5552V48.9468C66.5552 49.1436 66.4597 49.242 66.2688 49.242H64.8441C64.6384 49.242 64.543 49.1436 64.543 48.9468V40.1528C64.543 39.8804 64.6752 39.7441 64.9395 39.7441H72.0189ZM66.5625 44.5952H71.6077C72.0556 44.5952 72.3714 44.4969 72.555 44.3001C72.7386 44.1033 72.8341 43.8006 72.8341 43.3919V42.8243C72.8341 42.4156 72.7386 42.1129 72.555 41.9162C72.3714 41.7194 72.0556 41.621 71.6077 41.621H66.7314C66.6139 41.621 66.5625 41.674 66.5625 41.7875V44.5952Z" fill="white"/>
<path d="M85.8767 39.7441C86.78 39.7441 87.4262 39.9333 87.8081 40.3042C88.19 40.675 88.3809 41.235 88.3809 41.9843V42.6351C88.3809 43.3919 88.1019 43.9671 87.5364 44.3606C88.1386 44.7239 88.447 45.3066 88.447 46.1088V46.8959C88.447 47.2592 88.4103 47.5846 88.3295 47.8722C88.2488 48.1598 88.1239 48.4095 87.9403 48.6138C87.7567 48.8182 87.5217 48.9771 87.2206 49.0831C86.9195 49.189 86.5523 49.2496 86.1117 49.2496H78.2833C78.0189 49.2496 77.8867 49.1133 77.8867 48.8409V40.1528C77.8867 39.8804 78.0189 39.7441 78.2833 39.7441H85.8767ZM79.9062 43.6946H85.3113C85.7519 43.6946 86.0456 43.6265 86.2072 43.4903C86.3688 43.3541 86.4422 43.1573 86.4422 42.8924V42.4308C86.4422 42.1508 86.3688 41.9464 86.2145 41.8102C86.0603 41.6816 85.8106 41.6134 85.4728 41.6134H80.0825C79.965 41.6134 79.9136 41.674 79.9136 41.7875V43.6946H79.9062ZM79.9062 45.178V47.1986C79.9062 47.3197 79.965 47.3727 80.0752 47.3727H85.4802C85.8327 47.3727 86.0823 47.3046 86.2292 47.1759C86.3761 47.0473 86.4569 46.8354 86.4569 46.5478V46.0332C86.4569 45.7531 86.3761 45.5412 86.2145 45.3974C86.053 45.2537 85.7519 45.178 85.3113 45.178H79.9062Z" fill="white"/>
<path d="M93.3596 39.7441C93.5505 39.7441 93.646 39.8425 93.646 40.0393V48.9468C93.646 49.1436 93.5505 49.242 93.3596 49.242H91.9349C91.7293 49.242 91.6338 49.1436 91.6338 48.9468V40.0469C91.6338 39.8501 91.7366 39.7517 91.9349 39.7517L93.3596 39.7441Z" fill="white"/>
<path d="M107.166 39.7441C107.372 39.7441 107.467 39.8425 107.467 40.0393V41.3713C107.467 41.5832 107.365 41.6816 107.166 41.6816H103.032V48.9468C103.032 49.1436 102.936 49.242 102.745 49.242H101.306C101.115 49.242 101.02 49.1436 101.02 48.9468V41.6816H96.8851C96.6795 41.6816 96.584 41.5756 96.584 41.3713V40.0393C96.584 39.8425 96.6868 39.7441 96.8851 39.7441H107.166Z" fill="white"/>
<path d="M117.586 39.7441C118.6 39.7441 119.319 39.9787 119.76 40.448C120.201 40.9172 120.421 41.6134 120.421 42.5367V43.3087C120.421 44.0882 120.267 44.7012 119.958 45.1553C119.65 45.6093 119.151 45.8969 118.453 46.0256L120.707 48.9014C120.751 48.9468 120.766 49.015 120.744 49.1058C120.729 49.1966 120.656 49.242 120.531 49.242H118.835C118.717 49.242 118.644 49.2269 118.6 49.2042C118.556 49.1739 118.512 49.1285 118.468 49.0679L116.382 46.2451H112.123V48.9468C112.123 49.1436 112.027 49.242 111.836 49.242H110.411C110.206 49.242 110.11 49.1436 110.11 48.9468V40.1528C110.11 39.8804 110.243 39.7441 110.507 39.7441H117.586ZM112.137 44.5952H117.182C117.63 44.5952 117.946 44.4969 118.13 44.3001C118.313 44.1033 118.409 43.8006 118.409 43.3919V42.8243C118.409 42.4156 118.313 42.1129 118.13 41.9162C117.946 41.7194 117.63 41.621 117.182 41.621H112.306C112.189 41.621 112.137 41.674 112.137 41.7875V44.5952Z" fill="white"/>
<path d="M124.996 39.7441C125.187 39.7441 125.283 39.8425 125.283 40.0393V45.458C125.283 45.8213 125.312 46.124 125.371 46.3586C125.43 46.6008 125.525 46.79 125.657 46.9262C125.789 47.07 125.966 47.1684 126.193 47.2213C126.421 47.2819 126.7 47.3122 127.045 47.3122H130.695C131.04 47.3122 131.319 47.2819 131.547 47.2213C131.775 47.1608 131.951 47.0624 132.083 46.9262C132.215 46.7824 132.311 46.5932 132.362 46.3586C132.413 46.1164 132.443 45.8213 132.443 45.458V40.0393C132.443 39.8425 132.538 39.7441 132.729 39.7441H134.169C134.36 39.7441 134.455 39.8425 134.455 40.0393V45.6623C134.455 46.3132 134.389 46.8656 134.257 47.3273C134.125 47.7814 133.912 48.1522 133.618 48.4398C133.324 48.7274 132.942 48.9317 132.472 49.0604C132.002 49.189 131.437 49.2496 130.768 49.2496H126.972C126.303 49.2496 125.738 49.189 125.275 49.0604C124.813 48.9317 124.431 48.7274 124.137 48.4398C123.843 48.1522 123.63 47.7814 123.491 47.3273C123.351 46.8732 123.285 46.3132 123.285 45.6623V40.0393C123.285 39.8425 123.388 39.7441 123.586 39.7441H124.996Z" fill="white"/>
<path d="M140.117 39.7441C140.308 39.7441 140.477 39.7593 140.617 39.782C140.756 39.8123 140.881 39.8577 140.984 39.9409C141.087 40.0166 141.182 40.1225 141.27 40.2512C141.351 40.3799 141.439 40.5539 141.527 40.7734L144.266 47.2894C144.303 47.3727 144.362 47.4105 144.45 47.4105H144.612C144.7 47.4105 144.758 47.3727 144.795 47.2894L147.534 40.7734C147.622 40.5539 147.711 40.3799 147.791 40.2512C147.872 40.1225 147.968 40.0166 148.078 39.9409C148.181 39.8652 148.305 39.8123 148.438 39.782C148.577 39.7517 148.739 39.7441 148.93 39.7441H150.34C150.795 39.7441 151.103 39.8501 151.265 40.062C151.427 40.2739 151.5 40.6372 151.5 41.1518V48.9468C151.5 49.1436 151.397 49.242 151.199 49.242H149.855C149.664 49.242 149.569 49.1436 149.569 48.9468V41.8556C149.569 41.7648 149.532 41.7194 149.466 41.7194H149.348C149.26 41.7194 149.201 41.7572 149.179 41.8253L146.521 47.91C146.418 48.1522 146.308 48.3641 146.198 48.5306C146.088 48.6971 145.97 48.8333 145.845 48.9468C145.72 49.0528 145.574 49.136 145.412 49.1814C145.25 49.2269 145.06 49.2496 144.839 49.2496H144.208C143.987 49.2496 143.796 49.2269 143.635 49.1814C143.473 49.136 143.326 49.0604 143.202 48.9468C143.077 48.8409 142.952 48.6971 142.849 48.5306C142.739 48.3641 142.629 48.1598 142.526 47.91L139.867 41.8253C139.838 41.7497 139.787 41.7194 139.699 41.7194H139.581C139.508 41.7194 139.478 41.7648 139.478 41.8556V48.9468C139.478 49.1436 139.383 49.242 139.192 49.242H137.848C137.642 49.242 137.547 49.1436 137.547 48.9468V41.1518C137.547 40.6372 137.628 40.2739 137.782 40.062C137.943 39.8501 138.252 39.7441 138.715 39.7441H140.117Z" fill="white"/>
<g clip-path="url(#clip1_2056_5490)">
<mask id="mask0_2056_5490" style="mask-type:luminance" maskUnits="userSpaceOnUse" x="10" y="28" width="30" height="32">
<path d="M39.5 28H10.5V60H39.5V28Z" fill="white"/>
</mask>
<g mask="url(#mask0_2056_5490)">
<path d="M27.4303 46.4326L25.8437 50.6805C25.7969 50.7983 25.7969 50.9292 25.8437 51.047L28.5683 58.3582L31.7214 56.5778L27.9391 46.4326C27.852 46.197 27.5173 46.197 27.4303 46.4326Z" fill="white"/>
<path d="M30.6031 39.2841C30.5161 39.0485 30.1814 39.0485 30.0944 39.2841L28.5078 43.532C28.4609 43.6499 28.4609 43.7808 28.5078 43.8986L32.9729 55.87L36.126 54.0896L30.6031 39.2841Z" fill="white"/>
<path d="M25 29.9832C25.0803 29.9832 25.154 30.0029 25.2276 30.0421L37.2507 36.8296C37.3913 36.9082 37.4783 37.0522 37.4783 37.2093V50.7842C37.4783 50.9413 37.3913 51.0853 37.2507 51.1638L25.2276 57.9579C25.1607 57.9971 25.0803 58.0168 25 58.0168C24.9197 58.0168 24.846 57.9971 24.7724 57.9579L12.756 51.1704C12.6154 51.0918 12.5284 50.9478 12.5284 50.7908V37.2093C12.5284 37.0522 12.6154 36.9082 12.756 36.8296L24.7791 30.0421C24.846 30.0029 24.9264 29.9832 25 29.9832ZM25 28C24.5716 28 24.1431 28.1113 23.7615 28.3273L11.7385 35.1147C10.9753 35.5467 10.5 36.3453 10.5 37.2093V50.7842C10.5 51.6482 10.9753 52.4533 11.7385 52.8853L23.7615 59.6727C24.1431 59.8887 24.5716 60 25 60C25.4284 60 25.8569 59.8887 26.2385 59.6727L38.2615 52.8853C39.0314 52.4533 39.5 51.6547 39.5 50.7842V37.2093C39.5 36.3453 39.0247 35.5402 38.2615 35.1082L26.2452 28.3273C25.8569 28.1113 25.4284 28 25 28Z" fill="white"/>
<path d="M17.0547 55.8822L18.1593 52.9238L20.3818 54.7303L18.3065 56.5891L17.0547 55.8822Z" fill="white"/>
<path d="M23.9888 36.2402H20.9429C20.7153 36.2402 20.5077 36.3777 20.4341 36.5871L13.9004 54.1024L17.0534 55.8827L24.2499 36.5937C24.3101 36.4235 24.1829 36.2402 23.9888 36.2402Z" fill="white"/>
<path d="M29.3236 36.2402H26.2777C26.0501 36.2402 25.8425 36.3777 25.7689 36.5871L18.3047 56.5896L21.4577 58.37L29.578 36.6002C29.6449 36.4235 29.5111 36.2402 29.3236 36.2402Z" fill="white"/>
</g>
</g>
</g>
<defs>
<clipPath id="clip0_2056_5490">
<rect width="141" height="37" fill="white" transform="translate(10.5 26)"/>
</clipPath>
<clipPath id="clip1_2056_5490">
<rect width="29" height="32" fill="white" transform="translate(10.5 28)"/>
</clipPath>
</defs>
</svg>
