<svg width="161" height="89" viewBox="0 0 161 89" fill="none" xmlns="http://www.w3.org/2000/svg">
<g clip-path="url(#clip0_2056_5504)">
<path fill-rule="evenodd" clip-rule="evenodd" d="M148.265 51.0322H150.165V32.0293H148.265V51.0322ZM146.83 43.9093C146.83 40.0007 143.439 36.6579 139.535 36.6579C136.761 36.6579 134.377 38.184 133.118 40.4314C131.844 38.2089 129.426 36.6579 126.768 36.6579C122.658 36.6579 119.395 40.0007 119.395 44.0893C119.395 48.1264 122.786 51.3664 126.768 51.3664C129.487 51.3664 131.831 49.8167 133.086 47.5907C134.359 49.8459 136.808 51.3664 139.535 51.3664C143.594 51.3664 146.83 47.9207 146.83 43.9093ZM132.162 43.9093C132.162 46.9693 129.902 49.5407 126.768 49.5407C123.762 49.5407 121.296 47.0979 121.296 44.0893C121.296 41.0293 123.66 38.4836 126.768 38.4836C128.155 38.4836 129.516 39.075 130.518 40.0264C131.649 41.1064 132.162 42.3664 132.162 43.9093ZM144.929 43.9093C144.929 46.9693 142.669 49.5407 139.535 49.5407C136.529 49.5407 134.063 47.0979 134.063 44.0893C134.063 41.0293 136.427 38.4836 139.535 38.4836C140.922 38.4836 142.283 39.075 143.285 40.0264C144.416 41.1064 144.929 42.3664 144.929 43.9093ZM118.258 44.0636C118.258 42.0064 117.436 40.155 116.588 39.3836C114.79 37.455 112.889 36.6579 110.834 36.6579C108.805 36.6579 106.339 37.5579 105.234 39.3836V36.9664H103.436V55.9693H105.337V48.4093C106.261 50.3636 108.573 51.3664 110.654 51.3664C114.739 51.3664 118.258 48.255 118.258 44.0636ZM116.357 44.0379C116.357 47.2007 113.839 49.5407 110.706 49.5407C109.19 49.5407 107.751 48.9236 106.698 47.8179C105.594 46.7122 105.208 45.4264 105.208 43.8836C105.208 40.7722 107.751 38.4836 110.834 38.4836C113.891 38.4836 116.357 40.9779 116.357 44.0379ZM99.9243 39.5122C100.721 38.8436 101.44 38.6122 102.467 38.535V36.6579C100.746 36.7093 99.1279 37.3264 98.383 38.9979V36.9664H96.5848V51.0322H98.4857V43.1636C98.4857 41.5693 98.6142 40.6179 99.9243 39.5122ZM92.187 51.0322H94.0109V36.9664H92.187V39.6407C91.1338 37.635 88.8989 36.6579 86.6898 36.6579C84.7375 36.6579 82.7595 37.3522 80.6274 39.6407C80.1136 40.1036 79.1632 42.0322 79.1632 43.9093C79.1632 46.0436 80.0365 47.8179 80.5503 48.3836C82.3485 50.4407 84.6347 51.3664 86.7411 51.3664C88.9503 51.3664 91.1081 50.3636 92.187 48.3836V51.0322ZM92.187 44.0893C92.187 47.0207 89.6696 49.5407 86.7411 49.5407C83.7356 49.5407 81.0641 47.1493 81.0641 44.0636C81.0641 40.9522 83.6072 38.4836 86.6898 38.4836C89.8237 38.4836 92.187 40.9779 92.187 44.0893ZM65.3434 44.6807H78.0586C78.0072 42.6493 77.7246 41.0036 76.4145 39.3836C75.0017 37.6607 72.9723 36.6579 70.7632 36.6579C66.6792 36.6579 63.4425 39.9236 63.4425 44.0122C63.4425 48.1264 66.7049 51.3664 70.8145 51.3664C73.7948 51.3664 76.6714 49.2836 77.648 46.455H75.6696C74.8219 48.3836 72.7154 49.5407 70.6347 49.5407C68.0406 49.5407 65.4461 47.355 65.3434 44.6807ZM65.3434 42.9579C65.8058 40.3607 68.1434 38.4836 70.7888 38.4836C73.3833 38.4836 75.6696 40.4636 76.1576 42.9579H65.3434ZM59.6869 51.0322H61.5878V32.0293H59.6869V51.0322ZM55.8341 41.235H57.9662C56.8873 38.4064 54.0102 36.6579 51.0304 36.6579C46.9717 36.6579 43.4268 39.8207 43.4268 43.9864C43.4268 48.2807 46.9203 51.3664 51.1075 51.3664C54.1387 51.3664 56.6818 49.6693 57.9405 46.9179H55.8341C54.6011 48.6407 53.0855 49.5407 50.902 49.5407C47.768 49.5407 45.3277 47.0722 45.3277 43.9607C45.3277 40.7979 47.9479 38.4836 51.0561 38.4836C52.9827 38.4836 54.858 39.5636 55.8341 41.235Z" fill="white"/>
<path fill-rule="evenodd" clip-rule="evenodd" d="M32.7236 44.0008C30.502 40.1617 26.3632 37.5723 21.6118 37.5723C16.8604 37.5723 12.722 40.1617 10.5 44.0008C12.722 47.84 16.8604 50.4294 21.6118 50.4294C26.3632 50.4294 30.502 47.84 32.7236 44.0008Z" fill="#92A9C2"/>
<path fill-rule="evenodd" clip-rule="evenodd" d="M21.6118 29C16.8604 29 12.722 31.5894 10.5 35.4286C12.722 39.2677 16.8604 41.8571 21.6118 41.8571C26.3632 41.8571 30.5016 39.2677 32.7236 35.4286C30.5016 31.5894 26.3632 29 21.6118 29Z" fill="#BFD6EF"/>
<path fill-rule="evenodd" clip-rule="evenodd" d="M21.6118 46.1426C16.8604 46.1426 12.722 48.732 10.5 52.5711C12.722 56.4103 16.8604 58.9997 21.6118 58.9997C26.3632 58.9997 30.5016 56.4103 32.7236 52.5711C30.5016 48.732 26.3632 46.1426 21.6118 46.1426Z" fill="#637A93"/>
<path fill-rule="evenodd" clip-rule="evenodd" d="M14.5215 48.2855C16.5518 49.6388 18.9884 50.4283 21.6119 50.4283C24.2355 50.4283 26.6722 49.6388 28.7026 48.2855C26.6722 46.9321 24.2356 46.1426 21.612 46.1426C18.9885 46.1426 16.5518 46.9321 14.5215 48.2855Z" fill="#AAC1DA"/>
<path fill-rule="evenodd" clip-rule="evenodd" d="M28.7026 39.7151C26.6722 38.3617 24.2355 37.5723 21.6119 37.5723C18.9884 37.5723 16.5518 38.3617 14.5215 39.7151C16.5518 41.0685 18.9885 41.858 21.612 41.858C24.2356 41.858 26.6722 41.0685 28.7026 39.7151Z" fill="#DBECFF"/>
</g>
<defs>
<clipPath id="clip0_2056_5504">
<rect width="140" height="30" fill="white" transform="translate(10.5 29)"/>
</clipPath>
</defs>
</svg>
