<svg width="106" height="89" viewBox="0 0 106 89" fill="none" xmlns="http://www.w3.org/2000/svg">
<g clip-path="url(#clip0_2326_6359)">
<path d="M32.9094 31.9238H24.6362L19.9932 57.6854H28.2664L32.9094 31.9238Z" fill="white"/>
<path d="M42.9119 40.0226L44.371 31.9238H24.6359L23.1768 40.0226H42.9119Z" fill="white"/>
<path d="M58.375 31.9238H50.1017L45.46 57.6854H53.732L58.375 31.9238Z" fill="white"/>
<path d="M86.3828 31.9238H78.1108L73.4678 57.6854H81.7398L86.3828 31.9238Z" fill="white"/>
<path d="M72.3789 31.9238H64.1068L59.4639 57.6854H67.7371L72.3789 31.9238Z" fill="white"/>
<path d="M62.6473 40.0226L64.1064 31.9238H44.3712L42.9121 40.0226H62.6473Z" fill="white"/>
<path d="M81.8455 48.8546L83.3058 40.7559H63.5707L62.1104 48.8546H81.8455Z" fill="white"/>
<path d="M39.7283 57.6847L41.1887 49.5859H21.4535L19.9932 57.6847H39.7283Z" fill="white"/>
</g>
<defs>
<clipPath id="clip0_2326_6359">
<rect width="94" height="38" fill="white" transform="translate(6 26)"/>
</clipPath>
</defs>
</svg>
