<svg width="161" height="89" viewBox="0 0 161 89" fill="none" xmlns="http://www.w3.org/2000/svg">
<g clip-path="url(#clip0_2056_5513)">
<path d="M30.3754 34H30.2854C30.2313 34 30.1775 34.0072 30.1254 34.0213L15.8043 37.9364C15.6771 37.9715 15.5649 38.0471 15.4849 38.1516C15.4049 38.256 15.3615 38.3837 15.3613 38.515C15.3615 38.6464 15.4049 38.774 15.4849 38.8785C15.5649 38.983 15.6771 39.0585 15.8043 39.0936L24.6344 41.5104L30.1239 43.0102C30.1761 43.0243 30.2299 43.0315 30.284 43.0315H30.374C30.4276 43.0316 30.4809 43.0244 30.5326 43.0102L36.0235 41.5104L44.8537 39.0936C44.9809 39.0585 45.093 38.983 45.173 38.8785C45.253 38.774 45.2964 38.6464 45.2966 38.515C45.2964 38.3837 45.253 38.256 45.173 38.1516C45.093 38.0471 44.9809 37.9715 44.8537 37.9364L30.534 34.0213C30.4823 34.0071 30.429 33.9999 30.3754 34Z" fill="white"/>
<path d="M30.5283 44.1687H30.1311C30.0775 44.1687 30.0241 44.1616 29.9725 44.1474L22.6469 42.1444C22.5421 42.116 22.4316 42.116 22.3268 42.1444L15.8043 43.9271C15.6771 43.9621 15.5649 44.0377 15.4849 44.1422C15.4049 44.2467 15.3615 44.3743 15.3613 44.5057C15.3614 44.6369 15.4047 44.7644 15.4848 44.8687C15.5648 44.973 15.677 45.0482 15.8043 45.0828L24.6401 47.4996L30.1253 48.9994C30.1775 49.0135 30.2313 49.0207 30.2854 49.0207H30.3754C30.429 49.0208 30.4823 49.0136 30.534 48.9994L36.0207 47.4996L44.8565 45.0828C44.9837 45.0482 45.096 44.973 45.176 44.8687C45.256 44.7644 45.2994 44.6369 45.2994 44.5057C45.2993 44.3743 45.2558 44.2467 45.1759 44.1422C45.0959 44.0377 44.9837 43.9621 44.8565 43.9271L38.3325 42.1444C38.2282 42.1159 38.1182 42.1159 38.0139 42.1444L30.6883 44.1474C30.6362 44.1617 30.5823 44.1688 30.5283 44.1687Z" fill="white"/>
<path d="M30.5283 50.1478H30.1311C30.0775 50.1478 30.0241 50.1406 29.9725 50.1264L22.6497 48.1248C22.545 48.0964 22.4345 48.0964 22.3297 48.1248L15.8043 49.9089C15.677 49.9435 15.5648 50.0188 15.4848 50.1231C15.4047 50.2273 15.3614 50.3549 15.3613 50.4861C15.3615 50.6174 15.4049 50.7451 15.4849 50.8496C15.5649 50.9541 15.6771 51.0296 15.8043 51.0647L30.1253 54.9798C30.1775 54.994 30.2313 55.0011 30.2854 55.0011H30.3754C30.429 55.0012 30.4823 54.9941 30.534 54.9798L44.8565 51.0647C44.9837 51.0296 45.0959 50.9541 45.1759 50.8496C45.2558 50.7451 45.2993 50.6174 45.2994 50.4861C45.2994 50.3549 45.256 50.2273 45.176 50.1231C45.096 50.0188 44.9837 49.9435 44.8565 49.9089L38.3311 48.1248C38.2263 48.0964 38.1158 48.0964 38.011 48.1248L30.6883 50.1264C30.6362 50.1407 30.5823 50.1479 30.5283 50.1478Z" fill="white"/>
<path d="M53.0596 52.5245L53.061 37.0176H56.8217V43.1476H63.6243V37.019H67.3849L67.3835 52.5259H63.6229L63.6243 46.1756L56.8202 46.1742V52.5245H53.0596Z" fill="white"/>
<path d="M79.7045 48.6624C79.1329 51.1474 77.1797 52.822 74.3107 52.822C70.8229 52.822 68.3496 50.7038 68.3496 47.2337C68.3496 43.7877 70.8729 41.3013 74.2378 41.3027C77.8741 41.3027 79.7788 43.7891 79.7788 46.7674V47.8492H71.8616C71.9602 49.3007 73.049 50.138 74.4335 50.138C75.6695 50.138 76.4339 49.6703 76.8325 48.6624H79.7045ZM76.3396 45.9542C76.2653 44.871 75.5737 43.8872 74.2121 43.8872C72.7832 43.8872 72.1103 44.797 71.9117 45.9542H76.3396Z" fill="white"/>
<path d="M97.5617 52.5284V40.0993H92.1436V37.0215H106.789V40.0978H101.298V52.5284H97.5617Z" fill="white"/>
<path d="M112.804 45.0728C112.232 44.7516 111.691 44.6293 110.923 44.6293C109.439 44.6293 108.449 45.4652 108.449 47.3602V52.5292H104.887V41.6013H108.452V43.5915C108.872 42.3618 110.01 41.3027 111.494 41.3027C112.162 41.3027 112.731 41.5003 113.028 41.7463L112.804 45.0728Z" fill="white"/>
<path d="M121.413 41.6101H125.001V52.538H121.415V50.8335C120.82 52.0632 119.583 52.8237 117.925 52.8237C114.958 52.8237 114.018 50.8051 114.018 48.4665V41.6016H117.58V47.6064C117.58 49.1574 118.1 50.0232 119.41 50.0232C120.746 50.0232 121.41 48.9157 121.41 47.1686L121.413 41.6101Z" fill="white"/>
<path d="M129.132 48.8886C129.274 49.9477 130.122 50.5377 131.458 50.5377C132.422 50.5377 133.065 50.1936 133.065 49.6037C133.065 49.062 132.719 48.7664 131.828 48.6185L130.146 48.347C127.623 47.9532 126.262 47.0917 126.262 44.9252C126.262 42.8084 128.12 41.3072 131.062 41.3086C134.18 41.3086 136.034 42.6876 136.257 45.0247L133.314 45.1228C133.139 44.1632 132.374 43.6216 131.012 43.6216C130.122 43.6216 129.583 43.9912 129.583 44.5811C129.583 45.0247 129.93 45.2919 130.473 45.3687L132.599 45.7326C135 46.1023 136.384 47.1542 136.384 49.2525C136.384 51.5413 134.43 52.8222 131.436 52.8222C128.467 52.8222 126.217 51.6153 126.02 48.9568L129.132 48.8886Z" fill="white"/>
<path d="M87.381 46.333L91.0359 41.5977H87.3253L85.585 43.9589L87.381 46.333Z" fill="white"/>
<path d="M89.0225 49.4066V49.408L87.0265 46.7922L85.2219 44.4537L83.1687 41.5991L79.1851 41.5977L83.1929 46.9401L78.8379 52.527H82.5485L84.999 49.2786L87.4223 52.527H91.4058L89.0225 49.4066Z" fill="white"/>
<path d="M143.58 49.9734C142.738 49.9734 142.294 49.5796 142.294 48.6442V44.095V41.6101V38.582H140.092L139.72 40.0349C139.449 41.0443 139.127 41.6101 138.039 41.8062L137.247 41.9299V44.095H138.78V49.6094C138.78 52.0702 140.388 52.8337 142.169 52.8337C143.598 52.8337 144.544 52.4896 145.36 51.8741V49.5298C144.693 49.8255 144.124 49.9734 143.58 49.9734Z" fill="white"/>
<path d="M145.213 41.6035H142.914V44.0899H145.213V41.6035Z" fill="white"/>
</g>
<defs>
<clipPath id="clip0_2056_5513">
<rect width="130" height="21" fill="white" transform="translate(15.3613 34)"/>
</clipPath>
</defs>
</svg>
