<svg width="161" height="89" viewBox="0 0 161 89" fill="none" xmlns="http://www.w3.org/2000/svg">
<g clip-path="url(#clip0_2056_5483)">
<mask id="mask0_2056_5483" style="mask-type:luminance" maskUnits="userSpaceOnUse" x="23" y="23" width="115" height="43">
<path d="M137.021 23H23.6836V66H137.021V23Z" fill="white"/>
</mask>
<g mask="url(#mask0_2056_5483)">
<path d="M44.8929 23C33.1797 23 23.6836 32.6263 23.6836 44.5C23.6836 56.3737 33.1797 66 44.8929 66C56.6061 66 66.1022 56.3737 66.1022 44.5C66.1022 32.6263 56.6061 23 44.8929 23ZM57.8263 38.0901C57.5831 38.1575 57.4205 38.2191 57.2537 38.3094C56.879 38.5087 56.3912 38.9157 56.1734 39.2196C55.9882 39.4762 55.8609 39.6682 55.7888 39.7972C55.7266 39.9262 55.6093 40.1699 55.4339 40.5282L49.7003 53.917C49.3765 54.6294 49.2564 54.8945 48.7049 54.9347C48.0856 54.9805 47.6162 54.6294 47.3221 53.917L45.1022 49.1211L42.861 53.9113C42.5373 54.6236 42.048 54.8802 41.498 54.9218C40.8787 54.9676 40.2749 54.6308 39.9808 53.917L33.7608 40.4766C33.2787 39.4504 33.0341 38.9143 32.8177 38.523C32.5576 38.05 32.6028 38.0242 32.0429 37.9927C31.8534 37.9927 31.6696 37.8723 31.6696 37.6673C31.6696 37.4623 31.8011 37.3548 31.9241 37.3333C32.6071 37.2703 35.0447 37.2703 35.2497 37.2703H37.5446C37.7227 37.2703 37.8302 37.372 37.8161 37.5684C37.7949 37.8479 37.587 37.9038 37.4993 37.9038C37.2293 37.9038 36.9776 37.8565 36.8404 38.212C36.7033 38.5674 37.0865 39.4031 37.4668 40.1814L42.4864 50.8769L42.673 51.1822L44.4122 47.629L41.1007 40.4752C40.6185 39.4489 40.3739 38.9129 40.1576 38.5216C39.8974 38.0486 39.9426 38.0228 39.3827 37.9912C39.1933 37.9912 39.0094 37.8708 39.0094 37.6659C39.0094 37.4609 39.1409 37.3534 39.264 37.3319C39.9469 37.2688 42.3845 37.2688 42.5896 37.2688H44.8844C45.0626 37.2688 45.17 37.3706 45.1559 37.567C45.1347 37.8465 44.9268 37.9024 44.8392 37.9024C44.5691 37.9024 44.3174 37.8551 44.1803 38.2105C44.0431 38.566 44.4263 39.4016 44.8067 40.1799L46.3691 43.6271L47.9414 40.415C48.3415 39.6969 48.6215 38.6663 48.3458 38.308C48.1195 38.0142 47.5681 38.1188 46.7013 38.0887C46.5317 38.083 46.403 37.8794 46.3931 37.6659C46.3931 37.4523 46.5628 37.3219 46.7013 37.3004C48.6229 37.2688 48.9538 37.2688 49.262 37.2688C49.426 37.2688 49.7258 37.2688 51.3306 37.3004C51.4183 37.3004 51.6191 37.4523 51.6191 37.6659C51.6191 37.8794 51.4211 38.0643 51.3306 38.0887C51.0874 38.1561 50.9234 38.2163 50.758 38.308C50.4709 38.4642 50.3635 38.5402 50.2164 38.6663C50.0906 38.7896 49.7611 39.201 49.4458 39.8546C49.3836 39.9821 49.2974 40.1599 49.122 40.5196L47.0082 45.0404L49.6523 50.8769L54.5205 40.1054C54.9207 39.3873 55.1582 38.5359 54.8372 38.3094C54.5163 38.083 53.8446 38.212 53.1928 38.0901C53.026 38.0586 52.8945 37.8809 52.8846 37.6673C52.8846 37.4537 53.0542 37.3233 53.1928 37.3018C55.1144 37.2703 55.4452 37.2703 55.7535 37.2703C55.9175 37.2703 56.2173 37.2703 57.8221 37.3018C57.9098 37.3018 58.1105 37.4537 58.1105 37.6673C58.1105 37.8809 57.9126 38.0658 57.8221 38.0901H57.8263Z" fill="white"/>
<path d="M85.5548 47.7691H85.4106L82.413 36.1562H79.1595L76.1548 47.7448H76.0191L73.2958 36.1562H69.4951L74.2036 52.8345H77.5928L80.7191 41.9297H80.8463L83.9797 52.8345H87.3703L92.0788 36.1562H88.2781L85.5548 47.7691Z" fill="white"/>
<path d="M104.873 44.8196C104.433 44.4226 103.914 44.09 103.315 43.8177C102.715 43.5468 102.056 43.3289 101.338 43.1655L99.8604 42.8072C99.5013 42.7255 99.1648 42.628 98.848 42.5134C98.5313 42.3944 98.2542 42.2554 98.0124 42.0977C97.772 41.9343 97.5811 41.7422 97.4426 41.5201C97.3083 41.2979 97.2474 41.037 97.2573 40.7389C97.2573 40.3806 97.3592 40.0609 97.5628 39.7786C97.772 39.4962 98.0718 39.2769 98.462 39.1192C98.8537 38.9558 99.333 38.8741 99.9 38.8741C100.736 38.8741 101.397 39.0562 101.884 39.4202C102.372 39.7843 102.647 40.2946 102.711 40.951H106.045C106.03 39.9577 105.767 39.0834 105.257 38.328C104.748 37.5741 104.036 36.985 103.121 36.5607C102.21 36.1379 101.144 35.9258 99.9241 35.9258C98.7038 35.9258 97.6533 36.1379 96.7102 36.5607C95.767 36.9836 95.0261 37.5727 94.4846 38.328C93.9487 39.0834 93.6843 39.9649 93.6899 40.9754C93.6843 42.2081 94.083 43.1885 94.8876 43.9152C95.6907 44.6433 96.7865 45.1779 98.1736 45.5191L99.9651 45.9749C100.565 46.1211 101.071 46.2845 101.484 46.4636C101.901 46.6428 102.217 46.8607 102.431 47.1144C102.65 47.3695 102.76 47.6848 102.76 48.0589C102.76 48.4603 102.64 48.8157 102.398 49.1253C102.158 49.4349 101.817 49.6772 101.378 49.8506C100.944 50.024 100.432 50.1115 99.8435 50.1115C99.2553 50.1115 98.7052 50.0197 98.2287 49.8348C97.7579 49.6442 97.3804 49.3647 97.0962 48.9963C96.8176 48.6222 96.6592 48.155 96.6225 47.596H93.2559C93.2827 48.7957 93.5698 49.8033 94.1155 50.6174C94.667 51.4258 95.4333 52.0379 96.4132 52.4492C97.3987 52.862 98.5554 53.0684 99.8845 53.0684C101.214 53.0684 102.367 52.8649 103.315 52.4578C104.268 52.045 104.996 51.4674 105.499 50.7235C106.008 49.9739 106.266 49.0895 106.27 48.069C106.264 47.3738 106.138 46.7575 105.892 46.22C105.652 45.6825 105.311 45.2152 104.871 44.8196H104.873Z" fill="white"/>
<path d="M118.292 36.8815C117.413 36.3985 116.35 36.1562 115.102 36.1562H108.61V52.8345H112.089V47.4266H115.012C116.277 47.4266 117.352 47.1901 118.242 46.7185C119.138 46.2455 119.82 45.5862 120.291 44.7391C120.762 43.892 120.998 42.9144 120.998 41.8079C120.998 40.7013 120.765 39.7224 120.3 38.8753C119.838 38.0224 119.169 37.3574 118.29 36.8801L118.292 36.8815ZM117.087 43.2656C116.872 43.6841 116.546 44.0124 116.107 44.2517C115.673 44.4853 115.122 44.6014 114.451 44.6014H112.09V39.0387H114.436C115.11 39.0387 115.667 39.1562 116.107 39.3884C116.547 39.6163 116.873 39.9388 117.087 40.3573C117.307 40.7701 117.416 41.2532 117.416 41.8065C117.416 42.3597 117.307 42.8413 117.087 43.2642V43.2656Z" fill="white"/>
<path d="M133.559 36.1562V46.6454H133.413L126.312 36.1562H123.259V52.8345H126.738V42.3368H126.858L134.016 52.8345H137.021V36.1562H133.559Z" fill="white"/>
</g>
</g>
<defs>
<clipPath id="clip0_2056_5483">
<rect width="114" height="43" fill="white" transform="translate(23.5 23)"/>
</clipPath>
</defs>
</svg>
