<svg width="161" height="89" viewBox="0 0 161 89" fill="none" xmlns="http://www.w3.org/2000/svg">
<g clip-path="url(#clip0_2040_7626)">
<path d="M54.2598 35.9209V53.9022H50.5908V35.9209H54.2598Z" fill="black"/>
<path d="M69.2011 41.7689V53.9229C69.2011 57.6898 66.2607 59.9999 62.6698 59.9999C59.2039 59.9999 56.6174 57.8407 56.3676 54.8022L60.0105 54.8282C60.1614 56.1081 61.2907 56.6857 62.7999 56.6857C64.2051 56.6857 65.5373 55.9313 65.5373 53.9489V52.4193C64.6058 53.0228 63.4036 53.3714 62.0714 53.3714C58.7303 53.3714 56.0449 50.6607 56.0449 47.5442C56.0449 43.9281 58.7303 41.4932 62.0714 41.4932C63.4036 41.4932 64.6058 41.847 65.5373 42.4453V41.7949L69.2011 41.7689ZM65.5373 48.9281V45.9625C64.7827 44.8803 63.7523 44.5057 62.7219 44.5057C60.9108 44.5057 59.6827 45.7127 59.6827 47.5442C59.6827 48.9021 60.9369 50.3589 62.7219 50.3589C63.7523 50.3849 64.8088 50.0051 65.5373 48.9281Z" fill="black"/>
<path d="M83.8194 47.6954C83.8194 51.4363 81.056 54.1002 77.3402 54.1002C73.5984 54.1002 70.835 51.4363 70.835 47.6954C70.835 43.9806 73.5984 41.2646 77.3402 41.2646C81.0612 41.2699 83.8194 43.9806 83.8194 47.6954ZM80.2806 47.6954C80.2806 45.9369 79.1252 44.5061 77.3402 44.5061C75.5292 44.5061 74.3738 45.9369 74.3738 47.6954C74.3738 49.5009 75.5292 50.8588 77.3402 50.8588C79.1252 50.838 80.2806 49.5061 80.2806 47.6954Z" fill="black"/>
<path d="M106.576 41.7953V53.8712L102.986 53.8973V53.2209C102.054 53.8244 100.852 54.199 99.5196 54.199C96.1786 54.199 93.4932 51.3634 93.4932 47.8723C93.4932 44.3551 96.1786 41.5195 99.5196 41.5195C100.852 41.5195 102.054 41.8941 102.986 42.4977V41.8213L106.576 41.7953ZM102.96 49.7037V46.0149C102.205 44.9326 101.148 44.6361 100.097 44.6361C98.2654 44.6361 96.9852 46.1189 96.9852 47.8775C96.9852 49.6101 98.2654 51.0929 100.097 51.0929C101.154 51.0877 102.205 50.7859 102.96 49.7037Z" fill="black"/>
<path d="M121.347 47.3468V53.9025H117.803V47.7734C117.803 45.7911 116.824 44.7609 115.065 44.7609C114.16 44.7609 113.129 45.2864 112.276 46.2906V53.8973H108.659V41.8213H112.276V42.7266C113.254 41.9462 114.41 41.5195 115.768 41.5195C118.984 41.5195 121.347 43.7776 121.347 47.3468Z" fill="black"/>
<path d="M48.9096 53.8762H45.1938L42.7531 44.8595L37.5281 53.8762H33.3596L41.4208 39.9168L40.1145 35.0468L29.2379 53.8814H25.0693L38.8603 30H42.5293L44.1113 35.9521H47.8792L45.3187 40.4214L48.9096 53.8762Z" fill="black"/>
<path d="M135.939 35.9209V53.9022H132.27V53.2258C131.338 53.8293 130.136 54.2039 128.804 54.2039C125.463 54.2039 122.777 51.3683 122.777 47.8512C122.777 44.36 125.463 41.5244 128.804 41.5244C130.136 41.5244 131.338 41.899 132.27 42.5026V35.9209H135.939ZM132.275 49.7034V45.9885C131.52 44.9063 130.443 44.6098 129.387 44.6098C127.529 44.6098 126.248 46.0926 126.248 47.8512C126.248 49.6358 127.529 51.1134 129.387 51.1134C130.438 51.1134 131.494 50.8116 132.275 49.7034Z" fill="black"/>
<path d="M92.8124 44.8591C92.011 44.9579 90.1479 45.062 89.0446 46.5656V53.8965H85.4277V41.8466H89.0446V42.7519C89.8721 42.0495 91.1055 41.6229 92.8124 41.7998V44.8591Z" fill="black"/>
</g>
<defs>
<clipPath id="clip0_2040_7626">
<rect width="111" height="31" fill="white" transform="translate(25.0693 29.5)"/>
</clipPath>
</defs>
</svg>
