<svg width="49" height="48" viewBox="0 0 49 48" fill="none" xmlns="http://www.w3.org/2000/svg">
<rect x="0.5" width="48" height="48" rx="12" fill="#0A66C2"/>
<path d="M17.4609 36.2197H12.0215V19.8779H17.4609V36.2197ZM30.8135 19.4941C34.3924 19.4942 37.0752 21.8303 37.0752 26.8496V36.2197H31.6367V27.4766C31.6367 25.2807 30.8496 23.7823 28.8809 23.7822C27.3782 23.7822 26.4829 24.7928 26.0898 25.7686C25.9462 26.1182 25.9111 26.6055 25.9111 27.0938V36.2197H20.4717C20.472 36.1472 20.5432 21.4076 20.4717 19.8779H25.9111V22.1934C26.633 21.0807 27.9258 19.4941 30.8135 19.4941ZM14.7773 12C16.6377 12.0001 17.7838 13.2202 17.8193 14.8223C17.8193 16.3914 16.6377 17.6475 14.7412 17.6475H14.707C12.8811 17.6475 11.7002 16.3914 11.7002 14.8223C11.7004 13.2202 12.9169 12 14.7773 12Z" fill="white"/>
</svg>
