<svg width="49" height="48" viewBox="0 0 49 48" fill="none" xmlns="http://www.w3.org/2000/svg">
<rect x="0.5" width="48" height="48" rx="12" fill="url(#paint0_linear_2400_6363)"/>
<path d="M11.2874 23.4709C18.2667 20.3663 22.9206 18.3195 25.2493 17.3305C31.8979 14.507 33.2795 14.0165 34.18 14.0002C34.378 13.9968 34.8208 14.0469 35.1077 14.2845C35.3499 14.4852 35.4165 14.7563 35.4484 14.9465C35.4803 15.1368 35.52 15.5702 35.4884 15.9088C35.1281 19.774 33.5692 29.1539 32.776 33.483C32.4404 35.3148 31.7796 35.929 31.1399 35.9891C29.7496 36.1197 28.6938 35.051 27.3473 34.1497C25.2401 32.7395 24.0498 31.8615 22.0044 30.4854C19.6407 28.895 21.173 28.0209 22.5201 26.5923C22.8726 26.2185 28.9983 20.5295 29.1169 20.0135C29.1317 19.9489 29.1455 19.7083 29.0055 19.5813C28.8655 19.4543 28.6589 19.4977 28.5098 19.5322C28.2985 19.5812 24.9323 21.8529 18.4113 26.3473C17.4558 27.0172 16.5904 27.3435 15.815 27.3264C14.9602 27.3076 13.3159 26.833 12.0935 26.4273C10.5942 25.9296 9.40254 25.6666 9.5063 24.8215C9.56035 24.3813 10.154 23.9311 11.2874 23.4709Z" fill="white"/>
<defs>
<linearGradient id="paint0_linear_2400_6363" x1="24.5" y1="0" x2="24.5" y2="48" gradientUnits="userSpaceOnUse">
<stop stop-color="#2AABEE"/>
<stop offset="1" stop-color="#229ED9"/>
</linearGradient>
</defs>
</svg>
